<?xml version="1.0" encoding="utf-8"?>
<!-- Generator: Adobe Illustrator 23.0.1, SVG Export Plug-In . SVG Version: 6.00 Build 0)  -->
<svg version="1.1" id="Layer_1" xmlns="http://www.w3.org/2000/svg" xmlns:xlink="http://www.w3.org/1999/xlink" x="0px" y="0px"
	 viewBox="0 0 473 273" style="enable-background:new 0 0 473 273;" xml:space="preserve">
<style type="text/css">
	.st0{fill:#666666;}
	.st1{fill:none;stroke:#CCCCCC;stroke-miterlimit:10;}
	.st2{fill:none;stroke:#808080;stroke-width:3;stroke-miterlimit:10;}
	.st3{fill:none;stroke:#939393;stroke-width:3;stroke-miterlimit:10;}
	.st4{fill:none;stroke:#939393;stroke-width:3;stroke-miterlimit:10;stroke-dasharray:11.8371,11.8371;}
</style>
<g>
	<g>
		<g>
			<g>
				<path class="st0" d="M8.8,27.2H6.3V17c0-1.2,0-2.2,0.1-2.9c-0.2,0.1-0.5,0.4-0.7,0.6c-0.2,0.2-1.1,0.8-2.4,2L2,15.2l4.7-3.6h2.2
					L8.8,27.2L8.8,27.2z"/>
				<path class="st0" d="M24.6,19.3c0,2.8-0.5,4.8-1.3,6.1c-0.8,1.3-2.3,2-4.1,2c-1.8,0-3.1-0.7-4-2c-0.8-1.3-1.3-3.4-1.3-6
					c0-2.8,0.5-4.8,1.3-6.1c0.8-1.3,2.3-1.9,4.1-1.9c1.8,0,3.1,0.7,4,2C24.2,14.6,24.6,16.6,24.6,19.3z M16.5,19.3
					c0,2.2,0.2,3.7,0.7,4.6c0.5,1,1.2,1.3,2.2,1.3s1.7-0.5,2.2-1.4c0.5-1,0.7-2.5,0.7-4.6c0-2.2-0.2-3.6-0.7-4.6s-1.2-1.4-2.2-1.4
					s-1.7,0.5-2.2,1.4S16.5,17.1,16.5,19.3z"/>
				<path class="st0" d="M37.2,19.3c0,2.8-0.5,4.8-1.3,6.1s-2.3,2-4.1,2s-3.1-0.7-4-2c-0.8-1.3-1.3-3.4-1.3-6c0-2.8,0.5-4.8,1.3-6.1
					s2.3-1.9,4.1-1.9c1.8,0,3.1,0.7,4,2C36.8,14.6,37.2,16.6,37.2,19.3z M29.1,19.3c0,2.2,0.2,3.7,0.7,4.6c0.5,1,1.2,1.3,2.2,1.3
					c1,0,1.7-0.5,2.2-1.4c0.5-1,0.7-2.5,0.7-4.6c0-2.2-0.2-3.6-0.7-4.6S33,13.2,32,13.2s-1.7,0.5-2.2,1.4S29.1,17.1,29.1,19.3z"/>
				<path class="st0" d="M46,16.2c0,1.7-0.2,2.9-0.8,3.7c-0.6,0.8-1.4,1.2-2.6,1.2c-1.1,0-1.9-0.5-2.5-1.3s-1-2-1-3.6
					c0-3.2,1.2-4.9,3.5-4.9c1.1,0,2,0.5,2.6,1.3C45.8,13.3,46,14.6,46,16.2z M41.2,16.2c0,1.1,0.1,1.9,0.4,2.4s0.6,0.8,1.1,0.8
					c1,0,1.4-1.1,1.4-3.1c0-2.2-0.5-3.1-1.4-3.1c-0.5,0-0.8,0.2-1.1,0.8C41.3,14.6,41.2,15.1,41.2,16.2z M53.1,11.5l-8.8,15.7h-2
					L51,11.5H53.1z M56.3,22.4c0,1.7-0.2,2.9-0.8,3.7c-0.6,0.8-1.4,1.2-2.6,1.2c-1.1,0-1.9-0.5-2.5-1.3s-1-1.9-1-3.6
					c0-3.2,1.2-4.9,3.5-4.9c1.1,0,1.9,0.5,2.6,1.3C56,19.6,56.3,20.9,56.3,22.4z M51.4,22.4c0,1.1,0.1,1.9,0.4,2.4s0.6,0.8,1.1,0.8
					c1,0,1.4-1.1,1.4-3.2s-0.5-3.1-1.4-3.1c-0.5,0-0.8,0.2-1.1,0.7C51.5,20.6,51.4,21.3,51.4,22.4z"/>
			</g>
		</g>
		<line class="st1" x1="52.1" y1="33.9" x2="52.1" y2="178.3"/>
		<g>
			<g>
				<path class="st0" d="M33.6,193.5c0,2.8-0.5,4.8-1.3,6.1s-2.3,2-4.1,2c-1.8,0-3.1-0.7-4-2c-1-1.3-1.3-3.4-1.3-6
					c0-2.8,0.5-4.8,1.3-6.1s2.3-1.9,4.1-1.9s3.1,0.7,4,2C33.1,188.8,33.6,190.9,33.6,193.5z M25.4,193.5c0,2.2,0.2,3.7,0.7,4.6
					s1.2,1.3,2.2,1.3s1.7-0.5,2.2-1.4s0.7-2.5,0.7-4.6c0-2.2-0.2-3.6-0.7-4.6s-1.2-1.4-2.2-1.4s-1.7,0.5-2.2,1.4
					S25.4,191.3,25.4,193.5z"/>
				<path class="st0" d="M42.5,190.4c0,1.7-0.2,2.9-0.8,3.7s-1.4,1.2-2.6,1.2c-1.1,0-1.9-0.5-2.5-1.3s-1-2-1-3.7
					c0-3.2,1.2-4.9,3.5-4.9c1.1,0,2,0.5,2.6,1.3C42.1,187.6,42.5,188.8,42.5,190.4z M37.6,190.4c0,1.1,0.1,1.9,0.4,2.4
					c0.2,0.5,0.6,0.8,1.1,0.8c1,0,1.4-1.1,1.4-3.1c0-2.2-0.5-3.2-1.4-3.2c-0.5,0-0.8,0.2-1.1,0.8S37.6,189.3,37.6,190.4z
					 M49.4,185.7l-8.8,15.7h-2l8.8-15.7H49.4z M52.7,196.7c0,1.7-0.2,2.9-0.8,3.7s-1.4,1.2-2.6,1.2c-1.1,0-1.9-0.5-2.5-1.3
					s-1-2-1-3.7c0-3.2,1.2-4.9,3.5-4.9c1.1,0,1.9,0.5,2.6,1.3C52.4,193.9,52.7,195.1,52.7,196.7z M47.9,196.7c0,1.1,0.1,1.9,0.4,2.4
					c0.2,0.5,0.6,0.8,1.1,0.8c1,0,1.4-1.1,1.4-3.2s-0.5-3.1-1.4-3.1c-0.5,0-0.8,0.2-1.1,0.7C48,194.8,47.9,195.7,47.9,196.7z"/>
			</g>
		</g>
	</g>
	<g>
		<g>
			<g>
				<path class="st0" d="M65.7,235.6h-2.4v-14.5h8.2v2h-5.8v4.6h5.5v2h-5.5C65.7,229.7,65.7,235.6,65.7,235.6z"/>
				<path class="st0" d="M82.4,235.6h-8.3v-14.5h8.3v2h-5.9v4H82v2h-5.5v4.6h5.9V235.6z"/>
				<path class="st0" d="M85.7,221.1H90c2,0,3.5,0.2,4.3,0.8s1.3,1.6,1.3,2.8c0,0.8-0.2,1.6-0.6,2.2c-0.5,0.6-1.1,1-1.9,1.1v0.1
					c1.1,0.2,1.8,0.6,2.3,1.2c0.5,0.6,0.7,1.3,0.7,2.3c0,1.3-0.5,2.3-1.3,3.1c-1,0.7-2.2,1.1-3.8,1.1h-5.3V221.1z M87.9,227.1h2.3
					c1,0,1.7-0.1,2.2-0.5s0.7-0.8,0.7-1.6s-0.2-1.2-0.7-1.4c-0.5-0.4-1.3-0.5-2.4-0.5h-2C87.9,223.1,87.9,227.1,87.9,227.1z
					 M87.9,229v4.6h2.5c1,0,1.8-0.2,2.3-0.6c0.5-0.4,0.7-1,0.7-1.8c0-0.7-0.2-1.3-0.7-1.7s-1.3-0.6-2.4-0.6h-2.4V229z"/>
				<path class="st0" d="M66.8,259.6H57v-1.8l3.7-3.7c1.1-1.1,1.8-1.9,2.2-2.4s0.6-1,0.8-1.3c0.2-0.4,0.2-0.8,0.2-1.3
					c0-0.6-0.2-1.2-0.6-1.6c-0.4-0.4-1-0.6-1.7-0.6c-0.6,0-1.1,0.1-1.6,0.4c-0.5,0.2-1.1,0.6-1.8,1.1l-1.3-1.6
					c0.8-0.7,1.6-1.2,2.4-1.4c0.8-0.2,1.6-0.5,2.4-0.5c1.3,0,2.4,0.4,3.2,1.1c0.8,0.7,1.2,1.7,1.2,2.9c0,0.6-0.1,1.3-0.4,1.9
					c-0.2,0.6-0.6,1.2-1.1,1.8s-1.3,1.4-2.4,2.5l-2.5,2.4v0.1h7L66.8,259.6L66.8,259.6z"/>
				<path class="st0" d="M78.4,252.3c0,2.5-0.4,4.4-1.2,5.6c-0.8,1.2-2,1.8-3.7,1.8s-2.9-0.6-3.7-1.9c-0.8-1.3-1.2-3.1-1.2-5.5
					c0-2.5,0.4-4.4,1.2-5.6c0.8-1.2,2-1.8,3.7-1.8s2.9,0.6,3.7,1.9S78.4,249.9,78.4,252.3z M70.9,252.3c0,2,0.2,3.4,0.6,4.2
					c0.4,0.8,1.1,1.3,1.9,1.3s1.6-0.5,1.9-1.3c0.4-0.8,0.6-2.3,0.6-4.2s-0.2-3.4-0.6-4.2s-1.1-1.3-1.9-1.3s-1.6,0.5-1.9,1.3
					C71.1,248.9,70.9,250.4,70.9,252.3z"/>
				<path class="st0" d="M87.1,259.6h-2.4v-9.4c0-1.1,0-2,0.1-2.6c-0.1,0.1-0.4,0.4-0.6,0.5c-0.2,0.2-1,0.8-2.3,1.8l-1.2-1.4
					l4.3-3.4h2L87.1,259.6L87.1,259.6L87.1,259.6z"/>
				<path class="st0" d="M91.9,253.4c0-5.6,2.3-8.5,7-8.5c0.7,0,1.3,0,1.8,0.1v1.9c-0.5-0.1-1.1-0.2-1.8-0.2c-1.6,0-2.8,0.4-3.5,1.2
					s-1.2,2.2-1.3,4.1h0.1c0.4-0.5,0.7-1,1.3-1.2s1.2-0.5,2-0.5c1.3,0,2.4,0.4,3.1,1.2s1.1,1.9,1.1,3.2c0,1.6-0.5,2.8-1.3,3.6
					s-2,1.3-3.5,1.3c-1.1,0-1.9-0.2-2.8-0.7s-1.3-1.2-1.8-2.2C92.1,255.9,91.9,254.8,91.9,253.4z M96.9,257.9c0.8,0,1.4-0.2,1.8-0.7
					c0.5-0.5,0.6-1.2,0.6-2.3c0-0.8-0.2-1.4-0.6-1.9s-1.1-0.7-1.8-0.7c-0.5,0-1,0.1-1.4,0.4c-0.5,0.2-0.7,0.5-1,0.8
					c-0.2,0.4-0.4,0.7-0.4,1.2c0,1,0.2,1.7,0.7,2.4C95.5,257.6,96.2,257.9,96.9,257.9z"/>
			</g>
		</g>
		<g>
			<g>
				<path class="st0" d="M164.7,234.6l-4.2-12.1h-0.1c0.1,1.8,0.1,3.5,0.1,5v7.1h-2.2v-14.5h3.4l4.1,11.6l0,0l4.2-11.6h3.4v14.5
					h-2.3v-7.2c0-0.7,0-1.7,0-2.9s0.1-1.9,0.1-2.2h-0.1l-4.3,12.1h-2L164.7,234.6L164.7,234.6z"/>
				<path class="st0" d="M186.2,234.6l-1.4-4.1h-5.5l-1.4,4.1h-2.5l5.4-14.6h2.6l5.4,14.6H186.2z M184.1,228.5l-1.3-4
					c-0.1-0.2-0.2-0.7-0.4-1.2c-0.1-0.6-0.2-1-0.4-1.2c-0.1,0.8-0.5,1.7-0.8,2.6l-1.3,3.8L184.1,228.5L184.1,228.5z"/>
				<path class="st0" d="M194.8,226.7l3.5-6.6h2.6l-4.8,8.9v5.6h-2.4v-5.5l-4.8-9h2.6L194.8,226.7z"/>
			</g>
		</g>
		<g>
			<g>
				<path class="st0" d="M266.3,234.6l-1.4-4.1h-5.5l-1.4,4.1h-2.5l5.4-14.6h2.6l5.4,14.6H266.3z M264.2,228.5l-1.3-4
					c-0.1-0.2-0.2-0.7-0.4-1.2c-0.1-0.6-0.2-1-0.4-1.2c-0.1,0.8-0.5,1.7-0.8,2.6l-1.3,3.8L264.2,228.5L264.2,228.5L264.2,228.5z"/>
				<path class="st0" d="M282.2,220.1v9.5c0,1.1-0.2,2-0.7,2.9s-1.1,1.4-2,1.9c-0.8,0.5-1.9,0.6-3.1,0.6c-1.8,0-3.2-0.5-4.2-1.4
					s-1.6-2.3-1.6-4v-9.4h2.4v9.2c0,1.2,0.2,2,0.8,2.6c0.6,0.6,1.4,0.8,2.5,0.8c2.3,0,3.4-1.2,3.4-3.5v-9.2L282.2,220.1L282.2,220.1
					L282.2,220.1z"/>
				<path class="st0" d="M291.9,226.7h5.4v7.3c-0.8,0.2-1.7,0.5-2.5,0.6s-1.7,0.1-2.6,0.1c-2.2,0-4-0.6-5-1.9
					c-1.2-1.3-1.8-3.1-1.8-5.5s0.7-4.2,2-5.5s3.2-2,5.5-2c1.6,0,3,0.2,4.3,0.8l-0.8,2c-1.2-0.6-2.4-0.8-3.6-0.8
					c-1.6,0-2.8,0.5-3.7,1.4c-1,1-1.3,2.3-1.3,4c0,1.8,0.4,3.1,1.2,4.1c0.8,1,2,1.4,3.5,1.4c0.7,0,1.6-0.1,2.5-0.2v-3.7h-3
					L291.9,226.7L291.9,226.7z"/>
			</g>
		</g>
		<g>
			<g>
				<path class="st0" d="M366.7,234.6h-2.9l-7.2-11.6h-0.1v0.6c0.1,1.2,0.1,2.4,0.1,3.4v7.6h-2.2V220h2.9l7.2,11.5l0,0
					c0-0.1,0-0.7-0.1-1.7s0-1.7,0-2.3v-7.7h2.2v14.8H366.7z"/>
				<path class="st0" d="M383.5,227.3c0,2.4-0.6,4.2-1.8,5.5c-1.2,1.3-2.9,1.9-5,1.9c-2.2,0-3.8-0.6-5-1.9c-1.2-1.3-1.8-3.1-1.8-5.5
					s0.6-4.2,1.8-5.5c1.2-1.3,2.9-1.9,5-1.9c2.2,0,3.8,0.6,5,1.9C382.9,223.1,383.5,225,383.5,227.3z M372.3,227.3
					c0,1.8,0.4,3.1,1.1,4.1s1.8,1.4,3.2,1.4s2.5-0.5,3.2-1.3s1.1-2.3,1.1-4.1s-0.4-3.1-1.1-4.1s-1.8-1.4-3.2-1.4s-2.5,0.5-3.2,1.4
					C372.7,224.2,372.3,225.5,372.3,227.3z"/>
				<path class="st0" d="M394.9,220.1h2.5l-5,14.5h-2.5l-5-14.5h2.4l3,9c0.1,0.5,0.4,1,0.5,1.7s0.2,1.2,0.4,1.6
					c0.1-0.5,0.2-1.1,0.4-1.8c0.1-0.7,0.4-1.2,0.5-1.4L394.9,220.1z"/>
			</g>
		</g>
		<line class="st1" x1="112.4" y1="200.2" x2="112.4" y2="211.2"/>
		<line class="st1" x1="145.2" y1="200.2" x2="145.2" y2="211.2"/>
		<line class="st1" x1="177.9" y1="200.2" x2="177.9" y2="211.2"/>
		<line class="st1" x1="210.6" y1="200.2" x2="210.6" y2="211.2"/>
		<line class="st1" x1="243.3" y1="200.2" x2="243.3" y2="211.2"/>
		<line class="st1" x1="276" y1="200.2" x2="276" y2="211.2"/>
		<line class="st1" x1="308.7" y1="200.2" x2="308.7" y2="211.2"/>
		<line class="st1" x1="341.4" y1="200.2" x2="341.4" y2="211.2"/>
		<line class="st1" x1="374.2" y1="200.2" x2="374.2" y2="211.2"/>
		<line class="st1" x1="406.9" y1="200.2" x2="406.9" y2="211.2"/>
		<line class="st1" x1="439.6" y1="200.2" x2="439.6" y2="211.2"/>
		<line class="st1" x1="78.5" y1="200.2" x2="78.5" y2="211.2"/>
		<g>
			<g>
				<path class="st0" d="M422.2,238.7c-0.6,0-1.2-0.1-1.7-0.2v-2c0.6,0.1,1.1,0.2,1.4,0.2c1.3,0,1.9-0.8,1.9-2.5V220h2.4v14.2
					c0,1.4-0.4,2.6-1.1,3.4C424.4,238.3,423.5,238.7,422.2,238.7z"/>
				<path class="st0" d="M439.1,234.6l-1.4-4.1h-5.5l-1.4,4.1h-2.5l5.4-14.6h2.6l5.4,14.6H439.1z M437,228.5l-1.3-4
					c-0.1-0.2-0.2-0.7-0.4-1.2c-0.1-0.6-0.2-1-0.4-1.2c-0.1,0.8-0.5,1.7-0.8,2.6l-1.3,3.8L437,228.5L437,228.5L437,228.5z"/>
				<path class="st0" d="M455.6,234.6h-2.9l-7.2-11.6h-0.1v0.6c0.1,1.2,0.1,2.4,0.1,3.4v7.6h-2.2V220h2.9l7.2,11.5l0,0
					c0-0.1,0-0.7-0.1-1.7s0-1.7,0-2.3v-7.7h2.2v14.8H455.6z"/>
				<path class="st0" d="M427.3,258.6h-9.8v-1.8l3.7-3.7c1.1-1.1,1.8-1.9,2.2-2.4s0.6-1,0.8-1.3c0.1-0.4,0.2-0.8,0.2-1.3
					c0-0.6-0.2-1.2-0.6-1.6c-0.4-0.4-1-0.6-1.7-0.6c-0.6,0-1.1,0.1-1.6,0.4c-0.5,0.2-1.1,0.6-1.8,1.1l-1.3-1.6
					c0.8-0.7,1.6-1.2,2.4-1.4s1.6-0.5,2.4-0.5c1.3,0,2.4,0.4,3.2,1.1c0.8,0.7,1.2,1.7,1.2,2.9c0,0.6-0.1,1.3-0.4,1.9
					s-0.6,1.2-1.1,1.8s-1.3,1.4-2.4,2.5l-2.5,2.4v0.1h7L427.3,258.6L427.3,258.6z"/>
				<path class="st0" d="M439,251.3c0,2.5-0.4,4.4-1.2,5.6c-0.8,1.2-2,1.8-3.7,1.8s-2.9-0.6-3.7-1.9c-0.8-1.3-1.2-3.1-1.2-5.5
					c0-2.5,0.4-4.4,1.2-5.6s2-1.8,3.7-1.8s2.9,0.6,3.7,1.9C438.6,247.1,439,248.9,439,251.3z M431.4,251.3c0,2,0.2,3.4,0.6,4.2
					c0.4,0.8,1.1,1.3,1.9,1.3s1.6-0.5,1.9-1.3c0.4-0.8,0.6-2.3,0.6-4.2s-0.2-3.4-0.6-4.2s-1.1-1.3-1.9-1.3s-1.6,0.5-1.9,1.3
					C431.6,247.9,431.4,249.4,431.4,251.3z"/>
				<path class="st0" d="M447.6,258.6h-2.4v-9.4c0-1.1,0-2,0.1-2.6c-0.1,0.1-0.4,0.4-0.6,0.5c-0.2,0.2-1,0.8-2.3,1.8l-1.2-1.4
					l4.3-3.4h1.9v14.5L447.6,258.6L447.6,258.6z"/>
				<path class="st0" d="M454,258.6l5.8-12.5h-7.6v-2h10.1v1.7l-5.8,13H454V258.6z"/>
			</g>
		</g>
	</g>
</g>
<g>
	<g>
		<polyline class="st2" points="440,149.9 411.3,149.1 385.1,146.3 347.5,154.2 311.1,154.2 283.5,164.4 253,161.6 214.1,165.2 
			178.2,149.1 137.5,149.1 106.4,139.4 62,139.8 		"/>
	</g>
</g>
<g>
	<g>
		<g>
			<g>
				<line class="st3" x1="62" y1="136.1" x2="68" y2="136.3"/>
				<polyline class="st4" points="79.8,136.6 90.7,136.9 116.9,131.7 154.5,131.8 190.9,131.8 218.5,134.6 249,134.4 287.9,133.8 
					323.8,136.9 364.5,136.9 395.6,136.6 428.1,139.2 				"/>
				<line class="st3" x1="434" y1="139.7" x2="440" y2="140.2"/>
			</g>
		</g>
	</g>
</g>
</svg>
