<?xml version="1.0" encoding="utf-8"?>
<!-- Generator: Adobe Illustrator 21.1.0, SVG Export Plug-In . SVG Version: 6.00 Build 0)  -->
<svg version="1.1" id="Layer_1" xmlns="http://www.w3.org/2000/svg" xmlns:xlink="http://www.w3.org/1999/xlink" x="0px" y="0px"
	 viewBox="0 0 422 38" style="enable-background:new 0 0 422 38;" xml:space="preserve">
<style type="text/css">
	.st0{fill:#437C94;}
	.st1{fill:#417C95;}
	.st2{fill:#80B247;}
	.st3{fill:#4DA7C3;}
	.st4{fill:#FFFFFF;}
	.st5{fill:#D1D3D4;}
	.st6{fill:#005E9D;}
</style>
<g>
	<g>
		<path class="st0" d="M102.3,15c-1,0-1.8,0.3-2.3,1c-0.6,0.7-0.9,1.6-0.9,2.9s0.3,2.3,0.9,2.9c0.5,0.7,1.4,1,2.4,1
			c0.4,0,0.9-0.1,1.3-0.2s0.9-0.2,1.3-0.3V24c-0.9,0.3-1.8,0.4-2.9,0.4c-1.6,0-2.8-0.4-3.6-1.4c-0.9-1-1.2-2.3-1.2-4.1
			c0-1.1,0.2-2.1,0.6-2.9c0.4-0.9,1-1.5,1.7-1.9c0.8-0.4,1.6-0.7,2.7-0.7s2.1,0.3,3,0.7l-0.6,1.5c-0.3-0.2-0.8-0.3-1.1-0.4
			C103.2,15.1,102.8,15,102.3,15z"/>
		<path class="st0" d="M107.3,24.4V13.7h1.7v9.2h4.5v1.5H107.3z"/>
		<path class="st0" d="M115.3,24.4V13.7h1.7v10.7C117.1,24.4,115.3,24.4,115.3,24.4z"/>
		<path class="st0" d="M128.8,24.4h-2.2l-5.2-8.5h-0.1v0.4c0.1,0.9,0.1,1.7,0.1,2.5v5.6h-1.6V13.7h2.1l5.2,8.4h0.1
			c0-0.1,0-0.5-0.1-1.2c0-0.7-0.1-1.2-0.1-1.6v-5.6h1.6v10.7C128.6,24.4,128.8,24.4,128.8,24.4z"/>
		<path class="st0" d="M131.6,24.4V13.7h1.7v10.7C133.4,24.4,131.6,24.4,131.6,24.4z"/>
		<path class="st0" d="M140.8,15c-1,0-1.8,0.3-2.3,1c-0.6,0.7-0.9,1.6-0.9,2.9s0.3,2.3,0.9,2.9c0.5,0.7,1.4,1,2.4,1
			c0.4,0,0.9-0.1,1.3-0.2c0.4-0.1,0.9-0.2,1.3-0.3V24c-0.9,0.3-1.8,0.4-2.9,0.4c-1.6,0-2.8-0.4-3.6-1.4c-0.9-1-1.2-2.3-1.2-4.1
			c0-1.1,0.2-2.1,0.6-2.9c0.4-0.9,1-1.5,1.7-1.9c0.8-0.4,1.6-0.7,2.7-0.7c1.1,0,2.1,0.3,3,0.7l-0.6,1.5c-0.3-0.2-0.8-0.3-1.1-0.4
			C141.6,15.1,141.2,15,140.8,15z"/>
		<path class="st0" d="M152.3,24.4l-1-2.9h-4.1l-1,2.9h-1.8l4-10.7h1.9l4,10.7C154.2,24.4,152.3,24.4,152.3,24.4z M150.7,19.9
			l-1-2.9c-0.1-0.2-0.2-0.5-0.3-1c-0.1-0.4-0.3-0.7-0.3-1c-0.2,0.6-0.3,1.2-0.6,2l-1,2.8h3.2V19.9z"/>
		<path class="st0" d="M155.6,24.4V13.7h1.7v9.2h4.5v1.5H155.6z"/>
		<path class="st0" d="M177,19c0,1.3-0.3,2.3-0.8,3.3c-0.5,0.9-1.2,1.5-2.2,1.9l2.5,2.8h-2.3l-2-2.4H172c-1.6,0-2.9-0.5-3.7-1.5
			c-0.9-1-1.3-2.3-1.3-4.1c0-1.7,0.4-3.1,1.3-4.1s2.1-1.4,3.7-1.4c1.6,0,2.8,0.5,3.6,1.5C176.6,15.9,177,17.3,177,19z M168.9,19
			c0,1.3,0.3,2.3,0.8,2.9c0.5,0.7,1.3,1,2.3,1s1.8-0.3,2.3-1s0.8-1.6,0.8-3c0-1.3-0.3-2.3-0.8-2.9c-0.5-0.7-1.3-1-2.3-1
			s-1.8,0.3-2.3,1C169.1,16.8,168.9,17.7,168.9,19z"/>
		<path class="st0" d="M187.7,13.7v6.9c0,0.8-0.2,1.5-0.5,2.1s-0.9,1-1.5,1.4s-1.4,0.5-2.3,0.5c-1.3,0-2.3-0.3-3.1-1
			c-0.7-0.7-1.1-1.6-1.1-2.9v-6.9h1.7v6.8c0,0.9,0.2,1.6,0.6,1.9c0.4,0.4,1,0.6,1.9,0.6c1.6,0,2.4-0.9,2.4-2.6v-6.8L187.7,13.7
			L187.7,13.7L187.7,13.7z"/>
		<path class="st0" d="M196.9,24.4l-1-2.9h-4.1l-1,2.9H189l4-10.7h1.9l4,10.7C198.8,24.4,196.9,24.4,196.9,24.4z M195.3,19.9l-1-2.9
			c-0.1-0.2-0.2-0.5-0.3-1c-0.1-0.4-0.3-0.7-0.3-1c-0.2,0.6-0.3,1.2-0.6,2l-1,2.8h3.2V19.9z"/>
		<path class="st0" d="M200.2,24.4V13.7h1.7v9.2h4.5v1.5H200.2z"/>
		<path class="st0" d="M208.2,24.4V13.7h1.7v10.7C210,24.4,208.2,24.4,208.2,24.4z"/>
		<path class="st0" d="M216.5,24.4h-1.7v-9.2h-3.1v-1.5h8v1.5h-3.1L216.5,24.4L216.5,24.4z"/>
		<path class="st0" d="M224.9,18.6l2.5-4.9h1.9l-3.6,6.5v4.2H224v-4.1l-3.6-6.6h1.9L224.9,18.6z"/>
		<path class="st0" d="M240.7,21.4c0,1-0.3,1.7-1,2.3c-0.7,0.5-1.6,0.8-2.9,0.8c-1.2,0-2.2-0.2-2.9-0.5v-1.6c0.5,0.3,1,0.4,1.6,0.5
			c0.5,0.2,1,0.2,1.6,0.2c0.7,0,1.2-0.2,1.6-0.4c0.3-0.3,0.5-0.6,0.5-1s-0.2-0.7-0.4-1c-0.3-0.3-1-0.6-1.9-1c-1-0.4-1.6-0.9-2.1-1.4
			s-0.6-1.1-0.6-1.8c0-0.9,0.3-1.6,1-2.1c0.6-0.5,1.5-0.8,2.5-0.8s2.1,0.3,3,0.7l-0.5,1.4c-1-0.4-1.8-0.6-2.5-0.6
			c-0.5,0-1,0.1-1.3,0.3c-0.3,0.3-0.4,0.6-0.4,1c0,0.3,0.1,0.5,0.2,0.7c0.1,0.2,0.3,0.3,0.6,0.5s0.8,0.4,1.5,0.7
			c0.8,0.3,1.4,0.6,1.7,1c0.3,0.3,0.6,0.6,0.8,1C240.7,20.6,240.7,21,240.7,21.4z"/>
		<path class="st0" d="M247.3,15c-1,0-1.8,0.3-2.3,1c-0.6,0.7-0.9,1.6-0.9,2.9s0.3,2.3,0.9,2.9c0.5,0.7,1.4,1,2.4,1
			c0.4,0,0.9-0.1,1.3-0.2c0.4-0.1,0.9-0.2,1.3-0.3V24c-0.9,0.3-1.8,0.4-2.9,0.4c-1.6,0-2.8-0.4-3.6-1.4c-0.9-1-1.2-2.3-1.2-4.1
			c0-1.1,0.2-2.1,0.6-2.9s1-1.5,1.7-1.9c0.8-0.4,1.6-0.7,2.7-0.7c1.1,0,2.1,0.3,3,0.7l-0.6,1.5c-0.3-0.2-0.8-0.3-1.1-0.4
			C248.2,15.1,247.8,15,247.3,15z"/>
		<path class="st0" d="M261.7,19c0,1.7-0.4,3.1-1.3,4.1s-2.1,1.5-3.7,1.5s-2.9-0.5-3.7-1.5c-0.9-1-1.3-2.3-1.3-4.1
			c0-1.7,0.4-3.1,1.3-4.1s2.1-1.4,3.7-1.4c1.6,0,2.8,0.5,3.6,1.5C261.3,15.9,261.7,17.3,261.7,19z M253.6,19c0,1.3,0.3,2.3,0.8,2.9
			c0.5,0.7,1.3,1,2.3,1s1.8-0.3,2.3-1s0.8-1.6,0.8-3c0-1.3-0.3-2.3-0.8-2.9c-0.5-0.7-1.3-1-2.3-1s-1.8,0.3-2.3,1
			C253.8,16.8,253.6,17.7,253.6,19z"/>
		<path class="st0" d="M265.7,20.1v4.2H264V13.7h3c1.4,0,2.4,0.3,3,0.8c0.7,0.5,1,1.3,1,2.3c0,1.3-0.7,2.3-2.1,2.9l3,4.7h-2
			l-2.5-4.2C267.5,20.1,265.7,20.1,265.7,20.1z M265.7,18.7h1.2c0.8,0,1.4-0.2,1.7-0.4c0.3-0.3,0.5-0.8,0.5-1.3c0-0.6-0.2-1-0.6-1.3
			s-1-0.4-1.8-0.4h-1.1L265.7,18.7L265.7,18.7z"/>
		<path class="st0" d="M279.6,24.4h-6.1V13.7h6.1v1.5h-4.2v2.9h4v1.5h-4V23h4.2V24.4z"/>
	</g>
</g>
<path class="st1" d="M29.7,28.2H12.8c-2.4,0-4.3-1.9-4.3-4.3V12.3c0-2.4,1.9-4.3,4.3-4.3h16.8c2.4,0,4.3,1.9,4.3,4.3v11.5
	C34,26.3,32,28.2,29.7,28.2z"/>
<g>
	<path class="st2" d="M57,28.2H40.2c-2.4,0-4.3-1.9-4.3-4.3V12.3c0-2.4,1.9-4.3,4.3-4.3H57c2.4,0,4.3,1.9,4.3,4.3v11.5
		C61.3,26.3,59.4,28.2,57,28.2z"/>
</g>
<path class="st3" d="M84.4,28.2H67.6c-2.4,0-4.3-1.9-4.3-4.3V12.3c0-2.4,1.9-4.3,4.3-4.3h16.8c2.4,0,4.3,1.9,4.3,4.3v11.5
	C88.7,26.3,86.7,28.2,84.4,28.2z"/>
<g>
	<path class="st4" d="M21.8,14c-1,0-1.9,0.3-2.5,1.1s-1,1.8-1,3.2s0.3,2.5,0.9,3.2s1.5,1.1,2.6,1.1c0.5,0,1-0.1,1.4-0.2
		s1-0.3,1.4-0.3v1.6c-0.9,0.3-1.9,0.5-3,0.5c-1.6,0-2.9-0.5-3.9-1.6c-0.9-1-1.4-2.5-1.4-4.3c0-1.2,0.3-2.3,0.7-3.1
		c0.4-0.9,1-1.6,1.9-2.1s1.8-0.7,2.9-0.7c1.2,0,2.3,0.3,3.3,0.8l-0.7,1.6c-0.3-0.2-0.8-0.3-1.2-0.5C22.6,14.1,22.2,14,21.8,14z"/>
</g>
<g>
	<path class="st4" d="M53.9,17.6c0,1.4-0.3,2.6-0.8,3.6s-1.3,1.6-2.3,2l2.8,2.9h-2.5l-2.2-2.6h-0.3c-1.7,0-3-0.5-4-1.6
		c-1-1-1.4-2.5-1.4-4.4s0.4-3.4,1.4-4.3c1-1,2.3-1.6,4-1.6s3,0.5,4,1.6C53.5,14.2,53.9,15.7,53.9,17.6z M45.2,17.6
		c0,1.4,0.3,2.5,0.9,3.2s1.4,1.1,2.5,1.1s2-0.3,2.5-1.1c0.6-0.7,0.9-1.8,0.9-3.2s-0.3-2.5-0.9-3.2c-0.5-0.7-1.4-1.1-2.5-1.1
		s-2,0.3-2.5,1.1C45.5,15.1,45.2,16.2,45.2,17.6z"/>
</g>
<g>
	<path class="st4" d="M80,20.9c0,1-0.3,1.8-1.1,2.4c-0.8,0.6-1.7,0.9-3,0.9s-2.3-0.2-3.2-0.6v-1.7c0.5,0.3,1,0.4,1.6,0.6
		s1.1,0.2,1.6,0.2c0.8,0,1.3-0.2,1.6-0.4c0.3-0.3,0.5-0.7,0.5-1.1s-0.2-0.8-0.5-1.1c-0.3-0.3-1-0.7-2-1c-1-0.4-1.8-0.9-2.3-1.5
		c-0.4-0.5-0.6-1.2-0.6-2c0-1,0.3-1.7,1-2.3c0.7-0.5,1.6-0.9,2.8-0.9c1.1,0,2.2,0.3,3.3,0.7l-0.6,1.6c-1-0.4-1.9-0.6-2.8-0.6
		c-0.6,0-1,0.2-1.4,0.4s-0.4,0.6-0.4,1c0,0.3,0.1,0.5,0.2,0.8c0.1,0.2,0.3,0.4,0.6,0.6c0.3,0.2,0.8,0.4,1.6,0.8
		c0.9,0.3,1.5,0.7,1.8,1c0.4,0.3,0.7,0.6,0.9,1C79.9,19.9,80,20.4,80,20.9z"/>
</g>
<rect x="296.2" y="5.1" class="st5" width="1" height="28.2"/>
<polygon class="st6" points="328.2,10.4 313.8,7.9 316.8,12.7 328.2,15.2 339.7,12.7 342.7,7.9 "/>
<polygon class="st6" points="328.2,30.4 331.4,25.4 328.2,26.3 325.1,25.4 "/>
<polygon class="st6" points="319.5,17.2 328.2,19 337,17.2 334.2,21.6 328.2,23.1 322.2,21.6 "/>
<g>
	<path class="st6" d="M398.6,19.3c1.7,0,2.8-0.7,2.8-2.2c0-1.4-0.9-1.9-2.5-2.2c-1-0.2-1.2-0.4-1.2-0.7c0-0.3,0.2-0.5,0.8-0.5
		c0.7,0,1.3,0.2,1.8,0.6l0.9-1.3c-0.7-0.6-1.5-0.9-2.7-0.9c-1.6,0-2.7,0.8-2.7,2.1c0,1.4,0.8,1.8,2.4,2.2c1.1,0.2,1.3,0.4,1.3,0.7
		c0,0.4-0.3,0.5-1,0.5c-0.7,0-1.5-0.3-2-0.7l-0.9,1.3C396.4,18.9,397.4,19.3,398.6,19.3"/>
	<polygon class="st6" points="349.8,13.8 349.8,14.8 352.3,14.8 352.3,16.4 349.8,16.4 349.8,19.2 348.1,19.2 348.1,12.2 
		353.2,12.2 353.2,13.8 	"/>
	<path class="st6" d="M357,13.7h-1.4v1.6h1.4c0.6,0,0.9-0.3,0.9-0.8C357.9,14,357.6,13.7,357,13.7 M357.8,19.2l-1.2-2.4h-1v2.4h-1.7
		v-7h3.2c1.5,0,2.6,0.7,2.6,2.2c0,1-0.5,1.7-1.3,2l1.4,2.7H357.8z"/>
	<polygon class="st6" points="360.7,19.2 365.9,19.2 365.9,17.6 362.4,17.6 362.4,16.3 364.6,16.3 364.6,14.8 362.4,14.8 
		362.4,13.7 365.7,13.7 365.7,12.2 360.7,12.2 	"/>
	<path class="st6" d="M369.1,19.3c1.7,0,2.8-0.7,2.8-2.2c0-1.4-0.9-1.9-2.5-2.2c-1-0.2-1.2-0.4-1.2-0.7c0-0.3,0.2-0.5,0.8-0.5
		c0.7,0,1.3,0.2,1.8,0.6l0.9-1.3c-0.7-0.6-1.5-0.9-2.7-0.9c-1.6,0-2.7,0.8-2.7,2.1c0,1.4,0.8,1.8,2.4,2.2c1.1,0.2,1.3,0.4,1.3,0.7
		c0,0.4-0.3,0.5-1,0.5c-0.7,0-1.5-0.3-2-0.7l-0.9,1.3C366.9,18.9,368,19.3,369.1,19.3"/>
	<polygon class="st6" points="372.9,19.2 378.2,19.2 378.2,17.6 374.6,17.6 374.6,16.3 376.8,16.3 376.8,14.8 374.6,14.8 
		374.6,13.7 377.9,13.7 377.9,12.2 372.9,12.2 	"/>
	<polygon class="st6" points="383.5,19.2 385,19.2 385,12.2 383.3,12.2 383.3,16 380.6,12.2 379,12.2 379,19.2 380.7,19.2 
		380.7,15.2 	"/>
	<rect x="386.2" y="12.2" class="st6" width="1.8" height="7"/>
	<path class="st6" d="M392.1,19.3c1.8,0,3-1,3-3.1v-4h-1.8v4c0,0.9-0.4,1.5-1.2,1.5c-0.8,0-1.2-0.6-1.2-1.5v-4h-1.8v4
		C389.1,18.3,390.4,19.3,392.1,19.3"/>
	<path class="st6" d="M392.6,25.1l1.6-0.7c-0.5-1.2-1.2-1.9-2.8-1.9c-1.9,0-3.1,1.4-3.1,3.6c0,2.1,1.1,3.6,3.1,3.6
		c1.5,0,2.3-0.8,2.8-1.7l-1.5-0.8c-0.4,0.6-0.7,1-1.3,1c-0.9,0-1.3-0.9-1.3-2c0-1.2,0.4-2,1.3-2C392,24.1,392.3,24.5,392.6,25.1"/>
	<path class="st6" d="M396.9,26.8h1.4l-0.7-2.2L396.9,26.8z M399.2,29.6l-0.4-1.3h-2.3l-0.4,1.3h-1.9l2.6-6.9h1.7l2.6,6.9H399.2z"/>
	<path class="st6" d="M404.9,24.1h-1.4v1.6h1.4c0.6,0,0.9-0.3,0.9-0.8C405.7,24.4,405.5,24.1,404.9,24.1 M405.6,29.6l-1.2-2.4h-1
		v2.4h-1.7v-6.9h3.2c1.5,0,2.6,0.7,2.6,2.2c0,1-0.5,1.7-1.3,2l1.4,2.7H405.6z"/>
	<polygon class="st6" points="408.5,29.6 413.8,29.6 413.8,28.1 410.3,28.1 410.3,26.7 412.5,26.7 412.5,25.2 410.3,25.2 
		410.3,24.2 413.6,24.2 413.6,22.6 408.5,22.6 	"/>
	<path class="st6" d="M352.2,29.5l-1.4-3l-0.7,0.9v2.1h-2v-6.9h2v0.8c0,0.6,0,1.2,0,1.7c0.3-0.5,0.9-1.3,1.3-1.8l0.6-0.7h2.3
		l-2.1,2.4l2.3,4.5H352.2z"/>
	<path class="st6" d="M360.5,29.5h-2.2v-6.9h2.4c2.2,0,3.6,0.8,3.6,3.4C364.3,28.6,363,29.5,360.5,29.5 M360.7,24.2h-0.5v3.6h0.4
		c1.2,0,1.7-0.5,1.7-1.8C362.3,24.8,361.9,24.2,360.7,24.2"/>
	<path class="st6" d="M382.6,26.9v2.6h-1.9V27l-2.6-4.4h2.2l0.5,1.1c0.4,0.7,0.7,1.4,0.8,1.8c0.1-0.4,0.4-1.1,0.8-1.8l0.5-1.1h2.2
		L382.6,26.9z"/>
	<rect x="355.2" y="22.7" class="st6" width="1.8" height="6.9"/>
	<polygon class="st6" points="372.4,29.5 377.7,29.5 377.7,28 374.2,28 374.2,26.7 376.3,26.7 376.3,25.1 374.2,25.1 374.2,24.1 
		377.4,24.1 377.4,22.6 372.4,22.6 	"/>
	<polygon class="st6" points="369.7,29.5 371.2,29.5 371.2,22.6 369.5,22.6 369.5,26.4 366.8,22.6 365.2,22.6 365.2,29.5 
		366.9,29.5 366.9,25.6 	"/>
</g>
</svg>
