<?xml version="1.0" encoding="utf-8"?>
<!-- Generator: Adobe Illustrator 23.0.0, SVG Export Plug-In . SVG Version: 6.00 Build 0)  -->
<svg version="1.1" id="Layer_1" xmlns="http://www.w3.org/2000/svg" xmlns:xlink="http://www.w3.org/1999/xlink" x="0px" y="0px"
	 viewBox="0 0 350 50" style="enable-background:new 0 0 350 50;" xml:space="preserve">
<style type="text/css">
	.st0{fill:#4D4D4D;}
	.st1{fill:#CD455F;}
	.st2{fill:#DD7184;}
	.st3{fill:#FAA919;}
	.st4{fill:#9BCF63;}
	.st5{fill:#80B147;}
</style>
<g>
	<g>
		<path class="st0" d="M31.87,41.3c0,1.41-0.23,2.46-0.68,3.14c-0.45,0.68-1.15,1.03-2.08,1.03c-0.9,0-1.59-0.35-2.05-1.06
			s-0.7-1.74-0.7-3.11c0-1.43,0.23-2.49,0.68-3.17s1.14-1.02,2.07-1.02c0.91,0,1.59,0.36,2.06,1.07
			C31.64,38.9,31.87,39.94,31.87,41.3z M27.68,41.3c0,1.11,0.11,1.9,0.34,2.37s0.59,0.71,1.09,0.71s0.87-0.24,1.1-0.72
			c0.23-0.48,0.35-1.27,0.35-2.36c0-1.09-0.12-1.88-0.35-2.36c-0.23-0.49-0.6-0.73-1.1-0.73s-0.86,0.24-1.09,0.72
			S27.68,40.2,27.68,41.3z"/>
		<path class="st0" d="M32.76,42.87v-1.11h2.85v1.11H32.76z"/>
		<path class="st0" d="M40.35,45.36h-1.3v-5.24c0-0.62,0.01-1.12,0.04-1.49c-0.09,0.09-0.19,0.19-0.31,0.29
			c-0.12,0.11-0.54,0.45-1.25,1.02l-0.65-0.83l2.39-1.88h1.09V45.36z"/>
	</g>
	<g>
		<path class="st0" d="M102.08,45.36h-5.5v-0.99l2.09-2.1c0.62-0.63,1.03-1.08,1.23-1.35s0.35-0.51,0.44-0.75s0.14-0.48,0.14-0.75
			c0-0.37-0.11-0.65-0.33-0.87s-0.52-0.32-0.91-0.32c-0.31,0-0.61,0.06-0.9,0.17s-0.63,0.32-1.01,0.62l-0.71-0.86
			c0.45-0.38,0.89-0.65,1.32-0.81c0.43-0.16,0.88-0.24,1.36-0.24c0.75,0,1.36,0.2,1.81,0.59c0.46,0.39,0.68,0.92,0.68,1.59
			c0,0.37-0.07,0.71-0.2,1.04s-0.33,0.67-0.6,1.02s-0.72,0.82-1.36,1.42l-1.41,1.37v0.05h3.85V45.36z"/>
		<path class="st0" d="M102.97,42.87v-1.11h2.85v1.11H102.97z"/>
		<path class="st0" d="M112.51,43.59h-1.09v1.77h-1.27v-1.77h-3.71v-1l3.71-5.36h1.27v5.28h1.09V43.59z M110.15,42.51v-2.04
			c0-0.73,0.02-1.32,0.06-1.78h-0.04c-0.1,0.25-0.27,0.54-0.49,0.89l-2.02,2.93H110.15z"/>
	</g>
	<g>
		<path class="st0" d="M169.54,40.29c0.82,0,1.47,0.22,1.94,0.65c0.48,0.43,0.72,1.02,0.72,1.77c0,0.87-0.27,1.54-0.81,2.03
			c-0.54,0.49-1.31,0.73-2.31,0.73c-0.91,0-1.62-0.15-2.14-0.44v-1.18c0.3,0.17,0.64,0.3,1.03,0.39c0.39,0.09,0.75,0.14,1.08,0.14
			c0.59,0,1.04-0.13,1.34-0.39s0.46-0.65,0.46-1.15c0-0.97-0.62-1.46-1.85-1.46c-0.17,0-0.39,0.02-0.64,0.05
			c-0.25,0.04-0.48,0.08-0.67,0.12l-0.58-0.34l0.31-3.96h4.22v1.16h-3.07l-0.18,2.01c0.13-0.02,0.29-0.05,0.47-0.08
			C169.04,40.31,169.27,40.29,169.54,40.29z"/>
		<path class="st0" d="M173.17,42.87v-1.11h2.85v1.11H173.17z"/>
		<path class="st0" d="M179.67,37.14c0.77,0,1.38,0.18,1.83,0.53c0.45,0.35,0.67,0.83,0.67,1.42c0,0.83-0.5,1.5-1.5,1.99
			c0.64,0.32,1.09,0.65,1.36,1c0.27,0.35,0.4,0.74,0.4,1.18c0,0.67-0.25,1.21-0.74,1.61s-1.16,0.61-2,0.61
			c-0.88,0-1.56-0.19-2.05-0.57c-0.48-0.38-0.73-0.91-0.73-1.6c0-0.45,0.13-0.86,0.38-1.22c0.25-0.36,0.67-0.68,1.25-0.96
			c-0.5-0.3-0.85-0.61-1.06-0.94c-0.21-0.33-0.32-0.7-0.32-1.11c0-0.59,0.23-1.06,0.69-1.41C178.33,37.32,178.93,37.14,179.67,37.14
			z M178.17,43.26c0,0.38,0.13,0.68,0.41,0.9s0.64,0.32,1.1,0.32c0.48,0,0.85-0.11,1.11-0.33c0.26-0.22,0.4-0.52,0.4-0.9
			c0-0.3-0.12-0.57-0.37-0.82c-0.25-0.25-0.61-0.48-1.11-0.69l-0.16-0.07c-0.49,0.21-0.84,0.45-1.05,0.71S178.17,42.93,178.17,43.26
			z M179.66,38.15c-0.37,0-0.67,0.09-0.89,0.28c-0.23,0.18-0.34,0.43-0.34,0.75c0,0.19,0.04,0.37,0.12,0.52
			c0.08,0.15,0.2,0.29,0.36,0.41c0.16,0.12,0.42,0.27,0.79,0.45c0.44-0.2,0.76-0.4,0.94-0.62c0.18-0.22,0.27-0.47,0.27-0.76
			c0-0.31-0.11-0.56-0.34-0.75C180.34,38.24,180.04,38.15,179.66,38.15z"/>
	</g>
	<g>
		<path class="st0" d="M247.55,40.71c0,1.6-0.32,2.79-0.97,3.58c-0.64,0.79-1.61,1.18-2.91,1.18c-0.49,0-0.85-0.03-1.06-0.09v-1.09
			c0.33,0.09,0.66,0.14,0.99,0.14c0.88,0,1.54-0.24,1.97-0.71c0.43-0.47,0.67-1.22,0.71-2.23h-0.07c-0.22,0.33-0.48,0.57-0.79,0.72
			c-0.31,0.15-0.67,0.22-1.08,0.22c-0.72,0-1.28-0.22-1.69-0.67c-0.41-0.45-0.62-1.06-0.62-1.84c0-0.85,0.24-1.52,0.71-2.02
			c0.48-0.5,1.12-0.75,1.95-0.75c0.58,0,1.08,0.14,1.51,0.42c0.43,0.28,0.76,0.69,0.99,1.22C247.44,39.32,247.55,39.96,247.55,40.71
			z M244.72,38.22c-0.45,0-0.8,0.15-1.04,0.44c-0.24,0.29-0.36,0.71-0.36,1.24c0,0.46,0.11,0.83,0.34,1.09s0.56,0.4,1.02,0.4
			c0.44,0,0.81-0.13,1.11-0.39s0.45-0.57,0.45-0.92c0-0.33-0.06-0.64-0.19-0.92s-0.31-0.51-0.54-0.68
			C245.28,38.31,245.02,38.22,244.72,38.22z"/>
	</g>
	<g>
		<path class="st0" d="M312.85,45.36h-1.3v-5.24c0-0.62,0.01-1.12,0.04-1.49c-0.08,0.09-0.19,0.19-0.31,0.29s-0.54,0.45-1.25,1.02
			l-0.66-0.83l2.39-1.88h1.09V45.36z"/>
		<path class="st0" d="M321.01,41.3c0,1.41-0.23,2.46-0.68,3.14c-0.45,0.68-1.15,1.03-2.08,1.03c-0.9,0-1.59-0.35-2.05-1.06
			c-0.47-0.71-0.7-1.74-0.7-3.11c0-1.43,0.23-2.49,0.68-3.17c0.45-0.68,1.14-1.02,2.07-1.02c0.91,0,1.59,0.36,2.06,1.07
			C320.78,38.9,321.01,39.94,321.01,41.3z M316.82,41.3c0,1.11,0.11,1.9,0.34,2.37s0.59,0.71,1.09,0.71c0.5,0,0.86-0.24,1.1-0.72
			c0.23-0.48,0.35-1.27,0.35-2.36c0-1.09-0.12-1.88-0.35-2.36s-0.6-0.73-1.1-0.73c-0.5,0-0.86,0.24-1.09,0.72
			S316.82,40.2,316.82,41.3z"/>
	</g>
	<g>
		<path class="st0" d="M157.53,6.16c0,0.87-0.27,1.54-0.82,2c-0.55,0.46-1.32,0.69-2.33,0.69h-0.74v2.89h-1.72V3.63h2.59
			c0.98,0,1.73,0.21,2.25,0.64C157.28,4.69,157.53,5.32,157.53,6.16z M153.65,7.45h0.57c0.53,0,0.92-0.1,1.19-0.31
			c0.26-0.21,0.39-0.51,0.39-0.91c0-0.4-0.11-0.7-0.33-0.89s-0.56-0.29-1.04-0.29h-0.78V7.45z"/>
		<path class="st0" d="M166.43,7.67c0,1.34-0.33,2.38-1,3.1c-0.67,0.72-1.62,1.08-2.86,1.08c-1.24,0-2.2-0.36-2.86-1.08
			c-0.67-0.72-1-1.76-1-3.11c0-1.35,0.33-2.38,1-3.09s1.63-1.07,2.87-1.07s2.2,0.36,2.86,1.08C166.1,5.29,166.43,6.33,166.43,7.67z
			 M160.51,7.67c0,0.91,0.17,1.59,0.52,2.05s0.86,0.69,1.54,0.69c1.37,0,2.06-0.91,2.06-2.74c0-1.83-0.68-2.74-2.05-2.74
			c-0.68,0-1.2,0.23-1.55,0.69C160.68,6.08,160.51,6.77,160.51,7.67z"/>
		<path class="st0" d="M168.11,11.74V3.63h1.72v8.12H168.11z"/>
		<path class="st0" d="M179.08,11.74h-2.19l-3.53-6.14h-0.05c0.07,1.08,0.11,1.86,0.11,2.32v3.82h-1.54V3.63h2.17l3.52,6.08h0.04
			c-0.06-1.05-0.08-1.8-0.08-2.24V3.63h1.55V11.74z"/>
		<path class="st0" d="M184.25,11.74h-1.72V5.06h-2.2V3.63h6.13v1.43h-2.2V11.74z"/>
		<path class="st0" d="M192.49,9.49c0,0.73-0.26,1.31-0.79,1.73s-1.26,0.63-2.2,0.63c-0.87,0-1.63-0.16-2.3-0.49v-1.6
			c0.55,0.24,1.01,0.42,1.39,0.52c0.38,0.1,0.73,0.15,1.04,0.15c0.38,0,0.67-0.07,0.87-0.22c0.2-0.14,0.3-0.36,0.3-0.64
			c0-0.16-0.04-0.3-0.13-0.42s-0.22-0.24-0.39-0.36s-0.52-0.3-1.05-0.55c-0.5-0.23-0.87-0.46-1.12-0.67
			c-0.25-0.21-0.45-0.46-0.59-0.75c-0.15-0.29-0.22-0.62-0.22-1c0-0.72,0.24-1.28,0.73-1.69c0.49-0.41,1.16-0.62,2.02-0.62
			c0.42,0,0.82,0.05,1.21,0.15c0.38,0.1,0.78,0.24,1.2,0.42l-0.56,1.34c-0.43-0.18-0.79-0.3-1.07-0.37
			c-0.28-0.07-0.56-0.11-0.83-0.11c-0.33,0-0.58,0.08-0.75,0.23c-0.17,0.15-0.26,0.35-0.26,0.59c0,0.15,0.04,0.28,0.11,0.4
			s0.18,0.22,0.34,0.33s0.52,0.29,1.09,0.57c0.76,0.36,1.28,0.73,1.56,1.09C192.35,8.51,192.49,8.96,192.49,9.49z"/>
	</g>
	<rect x="0.63" y="23.36" class="st1" width="69.98" height="7.73"/>
	<rect x="69.62" y="23.37" class="st2" width="69.98" height="7.73"/>
	<rect x="139.37" y="23.37" class="st3" width="69.98" height="7.73"/>
	<rect x="209.8" y="23.47" class="st4" width="69.98" height="7.73"/>
	<rect x="279.64" y="23.4" class="st5" width="69.98" height="7.73"/>
</g>
</svg>
