<?xml version="1.0" encoding="utf-8"?>
<!-- Generator: Adobe Illustrator 21.0.2, SVG Export Plug-In . SVG Version: 6.00 Build 0)  -->
<svg version="1.1" id="Layer_1" xmlns="http://www.w3.org/2000/svg" xmlns:xlink="http://www.w3.org/1999/xlink" x="0px" y="0px"
	 viewBox="0 0 443 198" style="enable-background:new 0 0 443 198;" xml:space="preserve">
<style type="text/css">
	.st0{fill:#808080;}
	.st1{fill:none;stroke:#B3B3B3;stroke-miterlimit:10;}
	.st2{fill:none;stroke:#4EA8C4;stroke-width:3;stroke-linecap:round;stroke-linejoin:round;stroke-miterlimit:10;}
</style>
<g>
	<g>
		<path class="st0" d="M10.1,17.2H8.5v-6.4c0-0.8,0-1.4,0.1-1.8C8.5,9.1,8.3,9.2,8.2,9.3C8,9.5,7.5,9.9,6.7,10.6l-0.8-1l2.9-2.3h1.3
			C10.1,7.3,10.1,17.2,10.1,17.2z"/>
		<path class="st0" d="M20,12.2c0,1.7-0.3,3-0.8,3.8c-0.6,0.8-1.4,1.2-2.5,1.2s-1.9-0.4-2.5-1.3c-0.6-0.9-0.8-2.1-0.8-3.8
			s0.3-3,0.8-3.8c0.6-0.8,1.4-1.2,2.5-1.2s1.9,0.4,2.5,1.3C19.7,9.3,20,10.6,20,12.2z M14.9,12.2c0,1.3,0.1,2.3,0.4,2.9
			S16,16,16.6,16s1-0.3,1.3-0.9c0.3-0.6,0.4-1.5,0.4-2.9c0-1.3-0.1-2.3-0.4-2.9c-0.3-0.6-0.7-0.9-1.3-0.9s-1,0.3-1.3,0.9
			C15.1,9.9,14.9,10.9,14.9,12.2z"/>
		<path class="st0" d="M27.9,12.2c0,1.7-0.3,3-0.8,3.8c-0.6,0.8-1.4,1.2-2.5,1.2s-1.9-0.4-2.5-1.3c-0.6-0.9-0.8-2.1-0.8-3.8
			s0.3-3,0.8-3.8c0.6-0.8,1.4-1.2,2.5-1.2s1.9,0.4,2.5,1.3C27.6,9.3,27.9,10.6,27.9,12.2z M22.8,12.2c0,1.3,0.1,2.3,0.4,2.9
			s0.7,0.9,1.3,0.9s1-0.3,1.3-0.9c0.3-0.6,0.4-1.5,0.4-2.9c0-1.3-0.1-2.3-0.4-2.9c-0.3-0.6-0.7-0.9-1.3-0.9s-1,0.3-1.3,0.9
			C22.9,9.9,22.8,10.9,22.8,12.2z"/>
		<path class="st0" d="M33.4,10.2c0,1-0.2,1.8-0.6,2.3c-0.4,0.5-0.9,0.8-1.6,0.8S30,13,29.6,12.5S29,11.2,29,10.2
			c0-2.1,0.7-3.1,2.1-3.1c0.7,0,1.2,0.3,1.6,0.8C33.2,8.5,33.4,9.3,33.4,10.2z M30.4,10.3c0,0.7,0.1,1.2,0.2,1.5s0.3,0.5,0.6,0.5
			c0.6,0,0.9-0.7,0.9-2s-0.3-2-0.9-2c-0.3,0-0.5,0.2-0.6,0.5S30.4,9.6,30.4,10.3z M37.8,7.3l-5.5,9.8H31l5.5-9.8H37.8z M39.8,14.2
			c0,1-0.2,1.8-0.6,2.3c-0.4,0.5-0.9,0.8-1.6,0.8c-0.7,0-1.2-0.3-1.6-0.8c-0.4-0.5-0.6-1.3-0.6-2.3c0-2.1,0.7-3.1,2.2-3.1
			c0.7,0,1.2,0.3,1.6,0.8S39.8,13.2,39.8,14.2z M36.8,14.2c0,0.7,0.1,1.2,0.2,1.5c0.1,0.3,0.3,0.5,0.6,0.5c0.6,0,0.9-0.7,0.9-2
			s-0.3-2-0.9-2c-0.3,0-0.5,0.2-0.6,0.5C36.8,13,36.8,13.5,36.8,14.2z"/>
	</g>
</g>
<line class="st1" x1="37.3" y1="23.3" x2="37.3" y2="119.9"/>
<g>
	<g>
		<path class="st0" d="M26.9,131.8c0,1.7-0.3,3-0.8,3.8c-0.6,0.8-1.4,1.2-2.5,1.2s-1.9-0.4-2.5-1.3c-0.6-0.9-0.8-2.1-0.8-3.8
			s0.3-3,0.8-3.8c0.6-0.8,1.4-1.2,2.5-1.2s1.9,0.4,2.5,1.3C26.6,128.9,26.9,130.1,26.9,131.8z M21.8,131.8c0,1.3,0.1,2.3,0.4,2.9
			s0.7,0.9,1.3,0.9s1-0.3,1.3-0.9c0.3-0.6,0.4-1.5,0.4-2.9c0-1.3-0.1-2.3-0.4-2.9c-0.3-0.6-0.7-0.9-1.3-0.9s-1,0.3-1.3,0.9
			C22,129.5,21.8,130.5,21.8,131.8z"/>
		<path class="st0" d="M32.4,129.8c0,1-0.2,1.8-0.6,2.3s-0.9,0.8-1.6,0.8s-1.2-0.3-1.6-0.8s-0.6-1.3-0.6-2.3c0-2.1,0.7-3.1,2.1-3.1
			c0.7,0,1.2,0.3,1.6,0.8C32.2,128.1,32.4,128.8,32.4,129.8z M29.4,129.8c0,0.7,0.1,1.2,0.2,1.5s0.3,0.5,0.6,0.5
			c0.6,0,0.9-0.7,0.9-2s-0.3-2-0.9-2c-0.3,0-0.5,0.2-0.6,0.5S29.4,129.2,29.4,129.8z M36.8,126.9l-5.5,9.8H30l5.5-9.8
			C35.5,126.9,36.8,126.9,36.8,126.9z M38.8,133.8c0,1-0.2,1.8-0.6,2.3c-0.4,0.5-0.9,0.8-1.6,0.8c-0.7,0-1.2-0.3-1.6-0.8
			c-0.4-0.5-0.6-1.3-0.6-2.3c0-2.1,0.7-3.1,2.2-3.1c0.7,0,1.2,0.3,1.6,0.8S38.8,132.8,38.8,133.8z M35.8,133.8
			c0,0.7,0.1,1.2,0.2,1.5c0.1,0.3,0.3,0.5,0.6,0.5c0.6,0,0.9-0.7,0.9-2s-0.3-2-0.9-2c-0.3,0-0.5,0.2-0.6,0.5S35.8,133.1,35.8,133.8z
			"/>
	</g>
</g>
<g>
	<g>
		<polyline class="st2" points="407,50.7 381.3,56.4 358.3,62.9 321.4,80.2 284.9,72.2 258.3,66.4 227.6,65.3 190.1,58.4 
			154.8,65.3 114.8,65.3 84.2,66.5 54.6,65.3 		"/>
	</g>
</g>
<g>
	<g>
		<path class="st0" d="M50.8,189.6h-6.7v-1.2l2.5-2.6c0.8-0.8,1.2-1.3,1.5-1.6c0.2-0.3,0.4-0.6,0.5-0.9c0.1-0.3,0.2-0.6,0.2-0.9
			c0-0.4-0.1-0.8-0.4-1.1c-0.3-0.3-0.6-0.4-1.1-0.4c-0.4,0-0.7,0.1-1.1,0.2c-0.4,0.1-0.8,0.4-1.2,0.8l-0.9-1c0.5-0.5,1.1-0.8,1.6-1
			s1.1-0.3,1.7-0.3c0.9,0,1.7,0.2,2.2,0.7s0.8,1.1,0.8,1.9c0,0.4-0.1,0.9-0.2,1.3c-0.2,0.4-0.4,0.8-0.7,1.2s-0.9,1-1.6,1.7l-1.7,1.7
			v0.1h4.6V189.6z"/>
		<path class="st0" d="M58.7,184.7c0,1.7-0.3,3-0.8,3.8c-0.6,0.8-1.4,1.2-2.5,1.2s-1.9-0.4-2.5-1.3c-0.6-0.9-0.8-2.1-0.8-3.8
			s0.3-3,0.8-3.8c0.6-0.8,1.4-1.2,2.5-1.2s1.9,0.4,2.5,1.3C58.4,181.8,58.7,183,58.7,184.7z M53.6,184.7c0,1.3,0.1,2.3,0.4,2.9
			s0.7,0.9,1.3,0.9s1-0.3,1.3-0.9c0.3-0.6,0.4-1.5,0.4-2.9c0-1.3-0.1-2.3-0.4-2.9c-0.3-0.6-0.7-0.9-1.3-0.9s-1,0.3-1.3,0.9
			C53.8,182.4,53.6,183.3,53.6,184.7z"/>
		<path class="st0" d="M64.6,189.6H63v-6.4c0-0.8,0-1.4,0.1-1.8c-0.1,0.1-0.2,0.2-0.4,0.4c-0.2,0.1-0.7,0.5-1.5,1.2l-0.8-1l2.9-2.3
			h1.3V189.6z"/>
		<path class="st0" d="M67.8,185.4c0-3.9,1.6-5.8,4.7-5.8c0.5,0,0.9,0,1.3,0.1v1.3c-0.3-0.1-0.7-0.1-1.2-0.1c-1.1,0-1.8,0.3-2.4,0.8
			c-0.5,0.6-0.8,1.5-0.9,2.7h0.1c0.2-0.4,0.5-0.6,0.9-0.8s0.8-0.3,1.3-0.3c0.9,0,1.6,0.3,2.1,0.8s0.7,1.3,0.7,2.2
			c0,1-0.3,1.8-0.9,2.4c-0.6,0.6-1.4,0.9-2.4,0.9c-0.7,0-1.3-0.2-1.8-0.5s-0.9-0.8-1.2-1.5C67.9,187.1,67.8,186.3,67.8,185.4z
			 M71.2,188.4c0.5,0,1-0.2,1.3-0.5s0.4-0.9,0.4-1.5s-0.1-1-0.4-1.3s-0.7-0.5-1.2-0.5c-0.3,0-0.7,0.1-0.9,0.2
			c-0.3,0.1-0.5,0.3-0.7,0.6c-0.2,0.3-0.2,0.5-0.2,0.8c0,0.6,0.2,1.2,0.5,1.6C70.3,188.2,70.7,188.4,71.2,188.4z"/>
	</g>
</g>
<g>
	<g>
		<path class="st0" d="M112.3,174.7l-2.9-8.2h-0.1c0.1,1.2,0.1,2.4,0.1,3.4v4.8h-1.5v-9.8h2.3l2.7,7.8l0,0l2.8-7.8h2.3v9.8h-1.5
			v-4.9c0-0.5,0-1.1,0-1.9c0-0.8,0-1.3,0.1-1.4h-0.1l-3,8.2L112.3,174.7L112.3,174.7z"/>
		<path class="st0" d="M126.9,174.7l-1-2.7h-3.8l-1,2.7h-1.7l3.7-9.9h1.8l3.7,9.9H126.9z M125.5,170.5l-0.9-2.7
			c-0.1-0.2-0.2-0.5-0.3-0.8c-0.1-0.4-0.2-0.7-0.2-0.8c-0.1,0.6-0.3,1.2-0.5,1.8l-0.9,2.6h2.8L125.5,170.5L125.5,170.5z"/>
		<path class="st0" d="M132.7,169.3l2.3-4.5h1.8l-3.3,6v3.8h-1.6v-3.8l-3.3-6.1h1.8L132.7,169.3z"/>
	</g>
</g>
<g>
	<g>
		<path class="st0" d="M207.7,174.7l-1-2.7h-3.8l-1,2.7h-1.7l3.7-9.9h1.8l3.7,9.9H207.7z M206.3,170.5l-0.9-2.7
			c-0.1-0.2-0.2-0.5-0.3-0.8c-0.1-0.4-0.2-0.7-0.2-0.8c-0.1,0.6-0.3,1.2-0.5,1.8l-0.9,2.6h2.8L206.3,170.5L206.3,170.5z"/>
		<path class="st0" d="M218.4,164.8v6.4c0,0.7-0.2,1.4-0.5,1.9s-0.8,1-1.4,1.3c-0.6,0.3-1.3,0.4-2.1,0.4c-1.2,0-2.2-0.3-2.8-1
			c-0.7-0.6-1-1.5-1-2.7v-6.3h1.6v6.2c0,0.8,0.2,1.4,0.6,1.8s1,0.6,1.7,0.6c1.5,0,2.3-0.8,2.3-2.4v-6.2H218.4z"/>
		<path class="st0" d="M225,169.3h3.6v4.9c-0.6,0.2-1.2,0.3-1.7,0.4c-0.5,0.1-1.1,0.1-1.8,0.1c-1.5,0-2.6-0.4-3.4-1.3
			s-1.2-2.1-1.2-3.7c0-1.6,0.5-2.8,1.4-3.7s2.2-1.3,3.8-1.3c1,0,2,0.2,2.9,0.6l-0.6,1.3c-0.8-0.4-1.6-0.6-2.4-0.6
			c-1.1,0-1.9,0.3-2.5,1s-0.9,1.6-0.9,2.7c0,1.2,0.3,2.1,0.8,2.7c0.6,0.6,1.3,0.9,2.4,0.9c0.5,0,1.1-0.1,1.7-0.2v-2.5h-2v-1.3
			L225,169.3L225,169.3z"/>
	</g>
</g>
<g>
	<g>
		<path class="st0" d="M301.4,174.7h-2l-4.8-7.8h-0.1v0.4c0.1,0.8,0.1,1.6,0.1,2.3v5.1h-1.5v-9.8h2l4.8,7.8l0,0c0-0.1,0-0.5-0.1-1.1
			c0-0.6,0-1.2,0-1.5v-5.2h1.5v9.8H301.4z"/>
		<path class="st0" d="M312.7,169.7c0,1.6-0.4,2.8-1.2,3.7c-0.8,0.9-1.9,1.3-3.4,1.3s-2.6-0.4-3.4-1.3s-1.2-2.1-1.2-3.8
			c0-1.6,0.4-2.9,1.2-3.7c0.8-0.9,1.9-1.3,3.4-1.3s2.6,0.4,3.4,1.3S312.7,168.1,312.7,169.7z M305.2,169.7c0,1.2,0.2,2.1,0.7,2.8
			c0.5,0.6,1.2,0.9,2.2,0.9s1.7-0.3,2.2-0.9c0.5-0.6,0.7-1.5,0.7-2.8c0-1.2-0.2-2.1-0.7-2.7c-0.5-0.6-1.2-0.9-2.2-0.9
			s-1.7,0.3-2.2,0.9C305.4,167.6,305.2,168.5,305.2,169.7z"/>
		<path class="st0" d="M320.4,164.8h1.7l-3.4,9.8H317l-3.4-9.8h1.7l2.1,6.1c0.1,0.3,0.2,0.7,0.3,1.1c0.1,0.5,0.2,0.8,0.2,1
			c0.1-0.3,0.1-0.7,0.3-1.2c0.1-0.4,0.2-0.8,0.3-1L320.4,164.8z"/>
	</g>
</g>
<line class="st1" x1="59.6" y1="146.3" x2="59.6" y2="156.7"/>
<line class="st1" x1="90.2" y1="146.3" x2="90.2" y2="156.7"/>
<line class="st1" x1="120.9" y1="146.3" x2="120.9" y2="156.7"/>
<line class="st1" x1="151.6" y1="146.3" x2="151.6" y2="156.7"/>
<line class="st1" x1="182.3" y1="146.3" x2="182.3" y2="156.7"/>
<line class="st1" x1="214.1" y1="146.3" x2="214.1" y2="156.7"/>
<line class="st1" x1="244.8" y1="146.3" x2="244.8" y2="156.7"/>
<line class="st1" x1="275.4" y1="146.3" x2="275.4" y2="156.7"/>
<line class="st1" x1="306.1" y1="146.3" x2="306.1" y2="156.7"/>
<line class="st1" x1="336.8" y1="146.3" x2="336.8" y2="156.7"/>
<line class="st1" x1="365.5" y1="146.3" x2="365.5" y2="156.7"/>
<line class="st1" x1="394.3" y1="146.3" x2="394.3" y2="156.7"/>
<g>
	<g>
		<path class="st0" d="M386.8,189.6h-6.7v-1.2l2.5-2.6c0.8-0.8,1.2-1.3,1.5-1.6c0.2-0.3,0.4-0.6,0.5-0.9c0.1-0.3,0.2-0.6,0.2-0.9
			c0-0.4-0.1-0.8-0.4-1.1s-0.6-0.4-1.1-0.4c-0.4,0-0.7,0.1-1.1,0.2c-0.4,0.1-0.8,0.4-1.2,0.8l-0.9-1c0.5-0.5,1.1-0.8,1.6-1
			s1.1-0.3,1.7-0.3c0.9,0,1.7,0.2,2.2,0.7c0.6,0.5,0.8,1.1,0.8,1.9c0,0.4-0.1,0.9-0.2,1.3c-0.2,0.4-0.4,0.8-0.7,1.2
			c-0.3,0.4-0.9,1-1.6,1.7l-1.7,1.7v0.1h4.7L386.8,189.6L386.8,189.6z"/>
		<path class="st0" d="M394.7,184.7c0,1.7-0.3,3-0.8,3.8c-0.6,0.8-1.4,1.2-2.5,1.2s-1.9-0.4-2.5-1.3c-0.6-0.9-0.8-2.1-0.8-3.8
			s0.3-3,0.8-3.8c0.6-0.8,1.4-1.2,2.5-1.2s1.9,0.4,2.5,1.3C394.4,181.8,394.7,183,394.7,184.7z M389.6,184.7c0,1.3,0.1,2.3,0.4,2.9
			s0.7,0.9,1.3,0.9c0.6,0,1.1-0.3,1.3-0.9s0.4-1.5,0.4-2.9c0-1.3-0.1-2.3-0.4-2.9c-0.3-0.6-0.7-0.9-1.3-0.9c-0.6,0-1,0.3-1.3,0.9
			S389.6,183.3,389.6,184.7z"/>
		<path class="st0" d="M400.5,189.6h-1.6v-6.4c0-0.8,0-1.4,0.1-1.8c-0.1,0.1-0.2,0.2-0.4,0.4c-0.2,0.1-0.7,0.5-1.5,1.2l-0.8-1
			l2.9-2.3h1.3V189.6z"/>
		<path class="st0" d="M404.8,189.6l3.9-8.4h-5.1v-1.4h6.8v1.1l-3.9,8.7L404.8,189.6L404.8,189.6z"/>
	</g>
</g>
<path class="st0" d="M385.2,174.7h-1.6v-9.8h5.6v1.4h-4v3.1h3.7v1.4h-3.7V174.7z"/>
<path class="st0" d="M396.6,174.7H391v-9.8h5.6v1.4h-4v2.7h3.7v1.3h-3.7v3.1h4V174.7z"/>
<path class="st0" d="M398.8,164.8h2.9c1.4,0,2.3,0.2,2.9,0.6c0.6,0.4,0.9,1,0.9,1.9c0,0.6-0.1,1.1-0.4,1.4c-0.3,0.4-0.7,0.6-1.3,0.7
	v0.1c0.7,0.1,1.2,0.4,1.5,0.8c0.3,0.4,0.5,0.9,0.5,1.6c0,0.9-0.3,1.6-0.9,2.1s-1.5,0.8-2.6,0.8h-3.6L398.8,164.8L398.8,164.8z
	 M400.4,168.9h1.5c0.7,0,1.2-0.1,1.5-0.3s0.5-0.6,0.5-1.1s-0.2-0.8-0.5-1s-0.9-0.3-1.6-0.3h-1.4V168.9z M400.4,170.2v3.1h1.7
	c0.7,0,1.2-0.1,1.5-0.4c0.3-0.3,0.5-0.7,0.5-1.2s-0.2-0.9-0.5-1.1c-0.4-0.2-0.9-0.4-1.6-0.4L400.4,170.2L400.4,170.2z"/>
<g>
	<path class="st0" d="M49.6,174.6l-2.9-8.3h-0.1c0.1,1.2,0.1,2.4,0.1,3.5v4.9h-1.5v-10h2.3l2.8,8h0l2.9-8h2.3v10H54v-4.9
		c0-0.5,0-1.1,0-1.9s0-1.3,0.1-1.4h-0.1l-3,8.3H49.6z"/>
	<path class="st0" d="M64.4,174.6l-1-2.8h-3.8l-1,2.8h-1.7l3.7-10h1.8l3.7,10H64.4z M63,170.4l-0.9-2.7c-0.1-0.2-0.2-0.5-0.3-0.9
		s-0.2-0.7-0.2-0.9c-0.1,0.6-0.3,1.2-0.5,1.8l-0.9,2.6H63z"/>
	<path class="st0" d="M69.1,170.6v4h-1.6v-10h2.8c1.3,0,2.2,0.2,2.9,0.7s0.9,1.2,0.9,2.2c0,1.2-0.6,2.1-1.9,2.7l2.8,4.4h-1.9l-2.4-4
		H69.1z M69.1,169.3h1.1c0.8,0,1.3-0.1,1.7-0.4s0.5-0.7,0.5-1.3c0-0.6-0.2-1-0.6-1.2s-0.9-0.4-1.7-0.4h-1.1V169.3z"/>
</g>
</svg>
