<?xml version="1.0" encoding="utf-8"?>
<!-- Generator: Adobe Illustrator 21.0.2, SVG Export Plug-In . SVG Version: 6.00 Build 0)  -->
<svg version="1.1" id="Layer_1" xmlns="http://www.w3.org/2000/svg" xmlns:xlink="http://www.w3.org/1999/xlink" x="0px" y="0px"
	 viewBox="0 0 423.8 191" style="enable-background:new 0 0 423.8 191;" xml:space="preserve">
<style type="text/css">
	.st0{fill:#808080;}
	.st1{fill:none;stroke:#CCCCCC;stroke-miterlimit:10;}
	.st2{fill:none;stroke:#4EA8C4;stroke-width:3;stroke-linecap:round;stroke-linejoin:round;stroke-miterlimit:10;}
	.st3{fill:none;stroke:#B3B3B3;stroke-miterlimit:10;}
</style>
<g>
	<g>
		<path class="st0" d="M10.9,16.7H9.4v-5.9c0-0.7,0-1.3,0.1-1.7C9.4,9.2,9.2,9.4,9.1,9.5C9,9.6,8.5,10,7.7,10.6L7,9.7l2.7-2.1h1.2
			V16.7z"/>
		<path class="st0" d="M20.1,12.2c0,1.6-0.3,2.8-0.8,3.5S18,16.9,17,16.9s-1.8-0.4-2.3-1.2s-0.8-2-0.8-3.5c0-1.6,0.3-2.8,0.8-3.6
			C15.2,7.8,16,7.5,17,7.5s1.8,0.4,2.3,1.2C19.8,9.4,20.1,10.6,20.1,12.2z M15.4,12.2c0,1.2,0.1,2.1,0.4,2.7
			c0.3,0.5,0.7,0.8,1.2,0.8c0.6,0,1-0.3,1.2-0.8s0.4-1.4,0.4-2.7c0-1.2-0.1-2.1-0.4-2.7S17.5,8.7,17,8.7c-0.6,0-1,0.3-1.2,0.8
			C15.5,10,15.4,10.9,15.4,12.2z"/>
		<path class="st0" d="M27.4,12.2c0,1.6-0.3,2.8-0.8,3.5s-1.3,1.2-2.3,1.2s-1.8-0.4-2.3-1.2s-0.8-2-0.8-3.5c0-1.6,0.3-2.8,0.8-3.6
			c0.5-0.8,1.3-1.1,2.3-1.1s1.8,0.4,2.3,1.2C27.1,9.4,27.4,10.6,27.4,12.2z M22.7,12.2c0,1.2,0.1,2.1,0.4,2.7
			c0.3,0.5,0.7,0.8,1.2,0.8c0.6,0,1-0.3,1.2-0.8s0.4-1.4,0.4-2.7c0-1.2-0.1-2.1-0.4-2.7s-0.7-0.8-1.2-0.8c-0.6,0-1,0.3-1.2,0.8
			C22.8,10,22.7,10.9,22.7,12.2z"/>
		<path class="st0" d="M32.5,10.3c0,1-0.2,1.7-0.5,2.2s-0.9,0.7-1.5,0.7S29.4,13,29,12.5c-0.3-0.5-0.5-1.2-0.5-2.1
			c0-1.9,0.7-2.9,2-2.9c0.7,0,1.2,0.2,1.5,0.7S32.5,9.4,32.5,10.3z M29.7,10.3c0,0.6,0.1,1.1,0.2,1.4c0.1,0.3,0.3,0.5,0.6,0.5
			c0.6,0,0.8-0.6,0.8-1.8S31,8.6,30.5,8.6c-0.3,0-0.5,0.2-0.6,0.5C29.8,9.2,29.7,9.7,29.7,10.3z M36.6,7.6l-5.1,9.1h-1.2l5.1-9.1
			C35.4,7.6,36.6,7.6,36.6,7.6z M38.5,14c0,1-0.2,1.7-0.5,2.2c-0.3,0.5-0.9,0.7-1.5,0.7s-1.1-0.2-1.5-0.7s-0.5-1.2-0.5-2.1
			c0-1.9,0.7-2.9,2-2.9c0.6,0,1.1,0.2,1.5,0.7C38.3,12.3,38.5,13.1,38.5,14z M35.7,14c0,0.6,0.1,1.1,0.2,1.4
			c0.1,0.3,0.3,0.5,0.6,0.5c0.5,0,0.8-0.6,0.8-1.9c0-1.2-0.3-1.8-0.8-1.8c-0.3,0-0.5,0.2-0.6,0.5S35.7,13.4,35.7,14z"/>
	</g>
</g>
<line class="st1" x1="36.2" y1="24.6" x2="36.2" y2="128.2"/>
<g>
	<g>
		<polyline class="st2" points="373.7,68.4 348.8,67.7 326.1,65.4 293.4,72.1 261.7,72.1 237.7,80.9 211.4,78.5 177.4,81.6 
			146.3,67.7 111,67.7 83.9,59.4 45.4,54.5 		"/>
	</g>
</g>
<g>
	<g>
		<path class="st0" d="M26.5,138.2c0,1.6-0.3,2.8-0.8,3.5c-0.5,0.8-1.3,1.2-2.3,1.2s-1.8-0.4-2.3-1.2s-0.8-2-0.8-3.5
			c0-1.6,0.3-2.8,0.8-3.6s1.3-1.1,2.3-1.1s1.8,0.4,2.3,1.2C26.2,135.5,26.5,136.6,26.5,138.2z M21.8,138.2c0,1.2,0.1,2.1,0.4,2.7
			c0.3,0.5,0.7,0.8,1.2,0.8c0.6,0,1-0.3,1.2-0.8s0.4-1.4,0.4-2.7c0-1.2-0.1-2.1-0.4-2.7c-0.3-0.5-0.7-0.8-1.2-0.8
			c-0.6,0-1,0.3-1.2,0.8C21.9,136.1,21.8,136.9,21.8,138.2z"/>
		<path class="st0" d="M31.6,136.3c0,1-0.2,1.7-0.5,2.2s-0.9,0.7-1.5,0.7s-1.1-0.2-1.5-0.7c-0.3-0.5-0.5-1.2-0.5-2.1
			c0-1.9,0.7-2.9,2-2.9c0.7,0,1.2,0.2,1.5,0.7S31.6,135.4,31.6,136.3z M28.8,136.4c0,0.6,0.1,1.1,0.2,1.4c0.1,0.3,0.3,0.5,0.6,0.5
			c0.6,0,0.8-0.6,0.8-1.8s-0.3-1.8-0.8-1.8c-0.3,0-0.5,0.2-0.6,0.5C28.8,135.3,28.8,135.7,28.8,136.4z M35.7,133.6l-5.1,9.1h-1.2
			l5.1-9.1H35.7z M37.6,140c0,1-0.2,1.7-0.5,2.2s-0.9,0.7-1.5,0.7s-1.1-0.2-1.5-0.7s-0.5-1.2-0.5-2.1c0-1.9,0.7-2.9,2-2.9
			c0.6,0,1.1,0.2,1.5,0.7C37.4,138.4,37.6,139.1,37.6,140z M34.7,140c0,0.6,0.1,1.1,0.2,1.4c0.1,0.3,0.3,0.5,0.6,0.5
			c0.5,0,0.8-0.6,0.8-1.9c0-1.2-0.3-1.8-0.8-1.8c-0.3,0-0.5,0.2-0.6,0.5S34.7,139.4,34.7,140z"/>
	</g>
</g>
<g>
	<g>
		<path class="st0" d="M47.1,187.3h-6.3v-1.1l2.3-2.4c0.7-0.7,1.1-1.2,1.4-1.5c0.2-0.3,0.4-0.6,0.5-0.8c0.1-0.3,0.2-0.6,0.2-0.8
			c0-0.4-0.1-0.7-0.4-1c-0.3-0.3-0.6-0.4-1-0.4c-0.4,0-0.7,0.1-1,0.2c-0.4,0.1-0.7,0.4-1.1,0.7l-0.8-0.9c0.5-0.5,1-0.7,1.5-0.9
			c0.5-0.2,1-0.3,1.6-0.3c0.8,0,1.6,0.2,2.1,0.7c0.5,0.5,0.7,1,0.7,1.8c0,0.4-0.1,0.8-0.2,1.2c-0.2,0.4-0.4,0.7-0.7,1.1
			s-0.8,0.9-1.5,1.6l-1.6,1.6v0.1h4.3C47.1,186,47.1,187.3,47.1,187.3z"/>
		<path class="st0" d="M54.5,182.7c0,1.6-0.3,2.8-0.7,3.6c-0.6,0.7-1.3,1.1-2.3,1.1c-1,0-1.8-0.4-2.3-1.2c-0.6-0.8-0.7-2-0.7-3.6
			c0-1.6,0.3-2.8,0.7-3.6c0.6-0.7,1.3-1.1,2.3-1.1c1,0,1.8,0.4,2.3,1.2C54.2,180,54.5,181.1,54.5,182.7z M49.8,182.7
			c0,1.2,0.1,2.2,0.4,2.7c0.3,0.6,0.7,0.8,1.2,0.8c0.6,0,0.9-0.3,1.2-0.8c0.3-0.6,0.4-1.4,0.4-2.7c0-1.2-0.1-2.2-0.4-2.7
			c-0.3-0.6-0.7-0.8-1.2-0.8c-0.6,0-0.9,0.3-1.2,0.8C49.9,180.5,49.8,181.4,49.8,182.7z"/>
		<path class="st0" d="M60,187.3h-1.5v-6c0-0.7,0-1.3,0.1-1.7c-0.1,0.1-0.2,0.2-0.4,0.4c-0.2,0.1-0.7,0.5-1.4,1.1l-0.7-0.9l2.7-2.2
			H60V187.3z"/>
		<path class="st0" d="M63,183.4c0-3.6,1.5-5.4,4.4-5.4c0.5,0,0.8,0,1.2,0.1v1.2c-0.3-0.1-0.7-0.1-1.1-0.1c-1,0-1.7,0.3-2.2,0.7
			c-0.5,0.6-0.7,1.4-0.8,2.5h0.1c0.2-0.4,0.5-0.6,0.8-0.7c0.4-0.2,0.7-0.3,1.2-0.3c0.8,0,1.5,0.3,2,0.7s0.7,1.2,0.7,2.1
			c0,0.9-0.3,1.7-0.8,2.2c-0.6,0.6-1.3,0.8-2.2,0.8c-0.7,0-1.2-0.2-1.7-0.5c-0.5-0.3-0.8-0.7-1.1-1.4C63.1,184.9,63,184.2,63,183.4z
			 M66.2,186.2c0.5,0,0.9-0.2,1.2-0.5s0.4-0.8,0.4-1.4s-0.1-0.9-0.4-1.2s-0.7-0.5-1.1-0.5c-0.3,0-0.7,0.1-0.8,0.2
			c-0.3,0.1-0.5,0.3-0.7,0.6c-0.2,0.3-0.2,0.5-0.2,0.7c0,0.6,0.2,1.1,0.5,1.5C65.4,186,65.7,186.2,66.2,186.2z"/>
	</g>
</g>
<g>
	<g>
		<path class="st0" d="M104.6,173.4l-2.7-7.7h-0.1c0.1,1.1,0.1,2.2,0.1,3.2v4.5h-1.4v-9.2h2.2l2.5,7.3l0,0l2.6-7.3h2.2v9.2h-1.4
			v-4.6c0-0.5,0-1,0-1.8s0-1.2,0.1-1.3h-0.1l-2.8,7.7L104.6,173.4L104.6,173.4z"/>
		<path class="st0" d="M118.3,173.4l-0.9-2.5h-3.6l-0.9,2.5h-1.6l3.5-9.3h1.7l3.5,9.3H118.3z M117,169.4l-0.8-2.5
			c-0.1-0.2-0.2-0.5-0.3-0.7c-0.1-0.4-0.2-0.7-0.2-0.7c-0.1,0.6-0.3,1.1-0.5,1.7l-0.8,2.4L117,169.4L117,169.4L117,169.4z"/>
		<path class="st0" d="M123.7,168.3l2.2-4.2h1.7l-3.1,5.6v3.6H123v-3.6l-3.1-5.7h1.7L123.7,168.3z"/>
	</g>
</g>
<g>
	<g>
		<path class="st0" d="M193.8,173.4l-0.9-2.5h-3.6l-0.9,2.5h-1.6l3.5-9.3h1.7l3.5,9.3H193.8z M192.5,169.4l-0.8-2.5
			c-0.1-0.2-0.2-0.5-0.3-0.7c-0.1-0.4-0.2-0.7-0.2-0.7c-0.1,0.6-0.3,1.1-0.5,1.7l-0.8,2.4L192.5,169.4L192.5,169.4L192.5,169.4z"/>
		<path class="st0" d="M203.8,164.1v6c0,0.7-0.2,1.3-0.5,1.8c-0.3,0.5-0.7,0.9-1.3,1.2c-0.6,0.3-1.2,0.4-2,0.4
			c-1.1,0-2.1-0.3-2.6-0.9c-0.7-0.6-0.9-1.4-0.9-2.5v-5.9h1.5v5.8c0,0.7,0.2,1.3,0.6,1.7s0.9,0.6,1.6,0.6c1.4,0,2.2-0.7,2.2-2.2
			v-5.8H203.8z"/>
		<path class="st0" d="M210,168.3h3.4v4.6c-0.6,0.2-1.1,0.3-1.6,0.4s-1,0.1-1.7,0.1c-1.4,0-2.4-0.4-3.2-1.2c-0.7-0.8-1.1-2-1.1-3.5
			c0-1.5,0.5-2.6,1.3-3.5s2.1-1.2,3.6-1.2c0.9,0,1.9,0.2,2.7,0.6l-0.6,1.2c-0.7-0.4-1.5-0.6-2.2-0.6c-1,0-1.8,0.3-2.3,0.9
			s-0.8,1.5-0.8,2.5c0,1.1,0.3,2,0.7,2.5c0.6,0.6,1.2,0.8,2.2,0.8c0.5,0,1-0.1,1.6-0.2v-2.3h-1.9L210,168.3L210,168.3L210,168.3z"/>
	</g>
</g>
<g>
	<g>
		<path class="st0" d="M281.4,173.4h-1.9l-4.5-7.3H275v0.4c0.1,0.7,0.1,1.5,0.1,2.2v4.8h-1.4v-9.2h1.9l4.5,7.3l0,0
			c0-0.1,0-0.5-0.1-1c0-0.6,0-1.1,0-1.4v-4.9h1.4L281.4,173.4L281.4,173.4z"/>
		<path class="st0" d="M292,168.7c0,1.5-0.4,2.6-1.1,3.5c-0.7,0.8-1.8,1.2-3.2,1.2s-2.4-0.4-3.2-1.2c-0.7-0.8-1.1-2-1.1-3.6
			c0-1.5,0.4-2.7,1.1-3.5c0.7-0.8,1.8-1.2,3.2-1.2s2.4,0.4,3.2,1.2C291.6,166,292,167.2,292,168.7z M285,168.7c0,1.1,0.2,2,0.7,2.6
			c0.5,0.6,1.1,0.8,2.1,0.8c0.9,0,1.6-0.3,2.1-0.8c0.5-0.6,0.7-1.4,0.7-2.6c0-1.1-0.2-2-0.7-2.5c-0.5-0.6-1.1-0.8-2.1-0.8
			c-0.9,0-1.6,0.3-2.1,0.8C285.2,166.7,285,167.6,285,168.7z"/>
		<path class="st0" d="M299.2,164.1h1.6l-3.2,9.2H296l-3.2-9.2h1.6l2,5.7c0.1,0.3,0.2,0.7,0.3,1c0.1,0.5,0.2,0.7,0.2,0.9
			c0.1-0.3,0.1-0.7,0.3-1.1c0.1-0.4,0.2-0.7,0.3-0.9L299.2,164.1z"/>
	</g>
</g>
<line class="st3" x1="55.4" y1="146.8" x2="55.4" y2="156.5"/>
<line class="st3" x1="84" y1="146.8" x2="84" y2="156.5"/>
<line class="st3" x1="112.7" y1="146.8" x2="112.7" y2="156.5"/>
<line class="st3" x1="141.4" y1="146.8" x2="141.4" y2="156.5"/>
<line class="st3" x1="170.1" y1="146.8" x2="170.1" y2="156.5"/>
<line class="st3" x1="199.8" y1="146.8" x2="199.8" y2="156.5"/>
<line class="st3" x1="228.5" y1="146.8" x2="228.5" y2="156.5"/>
<line class="st3" x1="257.1" y1="146.8" x2="257.1" y2="156.5"/>
<line class="st3" x1="285.8" y1="146.8" x2="285.8" y2="156.5"/>
<line class="st3" x1="314.5" y1="146.8" x2="314.5" y2="156.5"/>
<line class="st3" x1="341.3" y1="146.8" x2="341.3" y2="156.5"/>
<line class="st3" x1="368.3" y1="146.8" x2="368.3" y2="156.5"/>
<g>
	<g>
		<path class="st0" d="M361.3,187.3H355v-1.1l2.3-2.4c0.7-0.7,1.1-1.2,1.4-1.5c0.2-0.3,0.4-0.6,0.5-0.8c0.1-0.3,0.2-0.6,0.2-0.8
			c0-0.4-0.1-0.7-0.4-1s-0.6-0.4-1-0.4c-0.4,0-0.7,0.1-1,0.2c-0.4,0.1-0.7,0.4-1.1,0.7l-0.8-0.9c0.5-0.5,1-0.7,1.5-0.9
			c0.5-0.2,1-0.3,1.6-0.3c0.8,0,1.6,0.2,2.1,0.7c0.6,0.5,0.7,1,0.7,1.8c0,0.4-0.1,0.8-0.2,1.2c-0.2,0.4-0.4,0.7-0.7,1.1
			c-0.3,0.4-0.8,0.9-1.5,1.6l-1.6,1.6v0.1h4.4L361.3,187.3L361.3,187.3z"/>
		<path class="st0" d="M368.6,182.7c0,1.6-0.3,2.8-0.7,3.6c-0.6,0.7-1.3,1.1-2.3,1.1c-1,0-1.8-0.4-2.3-1.2c-0.6-0.8-0.7-2-0.7-3.6
			c0-1.6,0.3-2.8,0.7-3.6c0.6-0.7,1.3-1.1,2.3-1.1c1,0,1.8,0.4,2.3,1.2C368.4,180,368.6,181.1,368.6,182.7z M363.9,182.7
			c0,1.2,0.1,2.2,0.4,2.7s0.7,0.8,1.2,0.8c0.6,0,1-0.3,1.2-0.8c0.2-0.6,0.4-1.4,0.4-2.7c0-1.2-0.1-2.2-0.4-2.7
			c-0.3-0.6-0.7-0.8-1.2-0.8c-0.6,0-0.9,0.3-1.2,0.8S363.9,181.4,363.9,182.7z"/>
		<path class="st0" d="M374.1,187.3h-1.5v-6c0-0.7,0-1.3,0.1-1.7c-0.1,0.1-0.2,0.2-0.4,0.4c-0.2,0.1-0.7,0.5-1.4,1.1l-0.7-0.9
			l2.7-2.2h1.2V187.3z"/>
		<path class="st0" d="M378.1,187.3l3.6-7.9H377v-1.3h6.4v1l-3.6,8.1H378.1L378.1,187.3z"/>
	</g>
</g>
<path class="st0" d="M359.8,173.4h-1.5v-9.2h5.2v1.3h-3.7v2.9h3.5v1.3h-3.5V173.4z"/>
<path class="st0" d="M370.4,173.4h-5.2v-9.2h5.2v1.3h-3.7v2.5h3.5v1.2h-3.5v2.9h3.7V173.4z"/>
<path class="st0" d="M372.5,164.1h2.7c1.3,0,2.2,0.2,2.7,0.6c0.6,0.4,0.8,0.9,0.8,1.8c0,0.6-0.1,1-0.4,1.3c-0.3,0.4-0.7,0.6-1.2,0.7
	v0.1c0.7,0.1,1.1,0.4,1.4,0.7c0.3,0.4,0.5,0.8,0.5,1.5c0,0.8-0.3,1.5-0.8,2c-0.6,0.5-1.4,0.7-2.4,0.7h-3.4L372.5,164.1L372.5,164.1z
	 M374,167.9h1.4c0.7,0,1.1-0.1,1.4-0.3c0.3-0.2,0.5-0.6,0.5-1s-0.2-0.7-0.5-0.9c-0.3-0.2-0.8-0.3-1.5-0.3H374V167.9z M374,169.1v2.9
	h1.6c0.7,0,1.1-0.1,1.4-0.4c0.3-0.3,0.5-0.7,0.5-1.1c0-0.5-0.2-0.8-0.5-1c-0.4-0.2-0.8-0.4-1.5-0.4L374,169.1L374,169.1z"/>
<g>
	<path class="st0" d="M46,173.3l-2.7-7.8h-0.1c0.1,1.1,0.1,2.2,0.1,3.3v4.6h-1.4V164h2.2l2.6,7.5l0,0l2.7-7.5h2.2v9.3h-1.4v-4.6
		c0-0.5,0-1,0-1.8s0-1.2,0.1-1.3h-0.1l-2.8,7.8H46V173.3z"/>
	<path class="st0" d="M59.9,173.3l-0.9-2.6h-3.6l-0.9,2.6h-1.6l3.5-9.3H58l3.5,9.3H59.9z M58.5,169.3l-0.8-2.5
		c-0.1-0.2-0.2-0.5-0.3-0.8c-0.1-0.4-0.2-0.7-0.2-0.8c-0.1,0.6-0.3,1.1-0.5,1.7l-0.8,2.4L58.5,169.3L58.5,169.3z"/>
	<path class="st0" d="M64.2,169.5v3.7h-1.5v-9.3h2.6c1.2,0,2.1,0.2,2.7,0.7c0.7,0.5,0.8,1.1,0.8,2.1c0,1.1-0.6,2-1.8,2.5l2.6,4.1H68
		l-2.2-3.7L64.2,169.5L64.2,169.5z M64.2,168.3h1c0.7,0,1.2-0.1,1.6-0.4c0.4-0.3,0.5-0.7,0.5-1.2s-0.2-0.9-0.6-1.1
		c-0.4-0.2-0.8-0.4-1.6-0.4h-1L64.2,168.3L64.2,168.3z"/>
</g>
</svg>
