<?xml version="1.0" encoding="utf-8"?>

<svg version="1.1" id="Layer_1" xmlns="http://www.w3.org/2000/svg" xmlns:xlink="http://www.w3.org/1999/xlink" x="0px" y="0px"
	 viewBox="0 0 1237 1118" style="enable-background:new 0 0 1237 1118;" width="1237px" height="1118px" xml:space="preserve">
<style type="text/css">
	.st0{fill:none;stroke:#E6E6E6;stroke-width:2.5;stroke-miterlimit:10;}
	.st1{fill:none;stroke:#4EA8C4;stroke-width:5.5;stroke-miterlimit:10;}
	.st2{fill:#4EA8C4;}
	.st3{fill:#80B247;}
	.st4{fill:#FFFFFF;}
</style>
<circle class="st0" cx="66.9" cy="171.8" r="44.6"/>
<circle class="st0" cx="1053.2" cy="281.9" r="44.6"/>
<circle class="st0" cx="66.9" cy="63.2" r="44.6"/>
<path class="st0" d="M176.5,127.1c24.6,0,44.6,20,44.6,44.6s-20,44.6-44.6,44.6s-44.6-20-44.6-44.6"/>
<circle class="st0" cx="176.6" cy="171.7" r="44.6"/>
<circle class="st0" cx="66.9" cy="831.5" r="44.6"/>
<circle class="st0" cx="66.9" cy="281.7" r="44.6"/>
<circle class="st0" cx="67.1" cy="391.7" r="44.6"/>
<circle class="st0" cx="67.1" cy="501.6" r="44.6"/>
<circle class="st0" cx="67.3" cy="612.4" r="44.6"/>
<circle class="st0" cx="66.9" cy="722" r="44.6"/>
<circle class="st0" cx="66.9" cy="831.5" r="44.6"/>
<circle class="st0" cx="67.3" cy="941.5" r="44.6"/>
<circle class="st0" cx="66.9" cy="1051.5" r="44.6"/>
<circle class="st0" cx="176.5" cy="63.2" r="44.6"/>
<circle class="st0" cx="176.5" cy="281.7" r="44.6"/>
<circle class="st0" cx="176.6" cy="391.7" r="44.6"/>
<circle class="st0" cx="176.6" cy="501.6" r="44.6"/>
<circle class="st0" cx="176.5" cy="611.6" r="44.6"/>
<circle class="st0" cx="176.5" cy="721.6" r="44.6"/>
<circle class="st0" cx="176.5" cy="831.5" r="44.6"/>
<circle class="st0" cx="176.6" cy="941.5" r="44.6"/>
<circle class="st0" cx="176.5" cy="1051.5" r="44.6"/>
<circle class="st0" cx="286.6" cy="63.8" r="44.6"/>
<circle class="st0" cx="286.3" cy="171.7" r="44.6"/>
<circle class="st0" cx="286.4" cy="281.7" r="44.6"/>
<circle class="st0" cx="286.2" cy="391.7" r="44.6"/>
<circle class="st0" cx="286.2" cy="501.6" r="44.6"/>
<circle class="st0" cx="286.2" cy="611.6" r="44.6"/>
<circle class="st0" cx="286.4" cy="722" r="44.6"/>
<circle class="st0" cx="286.2" cy="831.5" r="44.6"/>
<circle class="st0" cx="286" cy="941.5" r="44.6"/>
<circle class="st0" cx="286.2" cy="1051.9" r="44.6"/>
<circle class="st0" cx="396.1" cy="63.7" r="44.6"/>
<circle class="st0" cx="396.2" cy="172.1" r="44.6"/>
<circle class="st0" cx="395.9" cy="281.7" r="44.6"/>
<circle class="st0" cx="395.9" cy="391.5" r="44.6"/>
<circle class="st0" cx="396" cy="501.7" r="44.6"/>
<circle class="st0" cx="396.1" cy="612" r="44.6"/>
<circle class="st0" cx="396" cy="721.9" r="44.6"/>
<circle class="st0" cx="396" cy="831.6" r="44.6"/>
<circle class="st0" cx="395.9" cy="941.6" r="44.6"/>
<circle class="st0" cx="395.9" cy="1051.4" r="44.6"/>
<circle class="st0" cx="505.4" cy="63.4" r="44.6"/>
<circle class="st0" cx="505.3" cy="172" r="44.6"/>
<circle class="st0" cx="505.5" cy="281.7" r="44.6"/>
<circle class="st0" cx="505.2" cy="391.7" r="44.6"/>
<circle class="st0" cx="505.2" cy="501.7" r="44.6"/>
<circle class="st0" cx="505.3" cy="612.1" r="44.6"/>
<circle class="st0" cx="505.3" cy="721.9" r="44.6"/>
<circle class="st0" cx="505.3" cy="831.6" r="44.6"/>
<circle class="st0" cx="505.3" cy="941.4" r="44.6"/>
<circle class="st0" cx="505.3" cy="1051.5" r="44.6"/>
<circle class="st0" cx="614.7" cy="63.6" r="44.6"/>
<circle class="st0" cx="614.8" cy="171.9" r="44.6"/>
<circle class="st0" cx="614.8" cy="281.6" r="44.6"/>
<circle class="st0" cx="614.8" cy="391.6" r="44.6"/>
<circle class="st0" cx="614.8" cy="501.6" r="44.6"/>
<circle class="st0" cx="614.8" cy="612.1" r="44.6"/>
<circle class="st0" cx="614.9" cy="722" r="44.6"/>
<circle class="st0" cx="614.8" cy="831.5" r="44.6"/>
<circle class="st0" cx="614.8" cy="941.8" r="44.6"/>
<circle class="st0" cx="614.8" cy="1051.5" r="44.6"/>
<circle class="st0" cx="724.3" cy="63.5" r="44.6"/>
<circle class="st0" cx="724.3" cy="172.1" r="44.6"/>
<circle class="st0" cx="724.3" cy="281.8" r="44.6"/>
<circle class="st0" cx="724.3" cy="391.8" r="44.6"/>
<circle class="st0" cx="724.3" cy="501.6" r="44.6"/>
<circle class="st0" cx="724.3" cy="612.1" r="44.6"/>
<circle class="st0" cx="724.4" cy="722" r="44.6"/>
<circle class="st0" cx="724.3" cy="831.6" r="44.6"/>
<circle class="st0" cx="724.3" cy="941.5" r="44.6"/>
<circle class="st0" cx="724.4" cy="1051.5" r="44.6"/>
<circle class="st0" cx="834" cy="63.4" r="44.6"/>
<circle class="st0" cx="833.9" cy="171.9" r="44.6"/>
<circle class="st0" cx="833.8" cy="281.7" r="44.6"/>
<circle class="st0" cx="833.8" cy="391.8" r="44.6"/>
<circle class="st0" cx="833.8" cy="501.8" r="44.6"/>
<circle class="st0" cx="834" cy="612" r="44.6"/>
<circle class="st0" cx="833.8" cy="721.9" r="44.6"/>
<circle class="st0" cx="833.9" cy="831.7" r="44.6"/>
<circle class="st0" cx="833.9" cy="941.5" r="44.6"/>
<circle class="st0" cx="833.9" cy="1051.5" r="44.6"/>
<circle class="st0" cx="943.2" cy="63.4" r="44.6"/>
<circle class="st0" cx="943.9" cy="171.6" r="44.6"/>
<circle class="st0" cx="943.3" cy="281.6" r="44.6"/>
<circle class="st0" cx="943.3" cy="391.6" r="44.6"/>
<circle class="st0" cx="943.2" cy="501.8" r="44.6"/>
<circle class="st0" cx="943.3" cy="612.1" r="44.6"/>
<circle class="st0" cx="943.3" cy="721.9" r="44.6"/>
<circle class="st0" cx="943.3" cy="831.5" r="44.6"/>
<circle class="st0" cx="943.1" cy="941.6" r="44.6"/>
<circle class="st0" cx="943.2" cy="1051.5" r="44.6"/>
<circle class="st0" cx="1053.3" cy="63.3" r="44.6"/>
<circle class="st0" cx="1053" cy="172.3" r="44.6"/>
<circle class="st0" cx="1053.2" cy="391.8" r="44.6"/>
<circle class="st0" cx="1053" cy="501.7" r="44.6"/>
<circle class="st0" cx="1053.2" cy="612.2" r="44.6"/>
<circle class="st0" cx="1053.2" cy="721.9" r="44.6"/>
<circle class="st0" cx="1053.1" cy="831.7" r="44.6"/>
<circle class="st0" cx="1053.2" cy="941.7" r="44.6"/>
<circle class="st0" cx="1053.4" cy="1051.8" r="44.6"/>
<path class="st1" d="M66.9,237.1c0.1,0,0.1,0,0.2,0c1.9,0,3.7,0.1,5.5,0.3"/>
<path class="st1" d="M67.1,347.1c2.9,0,5.8,0.3,8.6,0.8"/>
<path class="st1" d="M67.1,457.1c3.9,0,7.7,0.5,11.4,1.5"/>
<path class="st1" d="M67.1,567.8c5,0,9.7,0.8,14.2,2.3"/>
<path class="st1" d="M67.1,677.5c5.8,0,11.4,1.1,16.4,3.1"/>
<path class="st1" d="M67.1,787c6.8,0,13.2,1.5,18.9,4.2"/>
<path class="st1" d="M67.1,896.9c7.9,0,15.3,2,21.7,5.6"/>
<path class="st1" d="M67.1,1006.9c8.8,0,17,2.6,23.9,6.9"/>
<path class="st1" d="M176.6,237.1c11.9,0,22.6,4.6,30.6,12.1"/>
<path class="st1" d="M176.6,127.1c10.9,0,20.9,3.9,28.7,10.4"/>
<path class="st1" d="M176.6,18.7c9.8,0,18.9,3.2,26.2,8.5"/>
<path class="st1" d="M176.6,347.1c12.9,0,24.5,5.5,32.6,14.2"/>
<path class="st1" d="M176.6,457.1c13.9,0,26.2,6.3,34.4,16.2"/>
<path class="st1" d="M177,567.3c14.7,0,27.7,7.1,35.8,18"/>
<path class="st1" d="M176.7,677.1c15.8,0,29.7,8.2,37.6,20.7"/>
<path class="st1" d="M176.3,787c0.1,0,0.2,0,0.3,0c16.9,0,31.6,9.4,39.1,23.2"/>
<path class="st1" d="M176.6,896.9c17.9,0,33.3,10.5,40.4,25.7"/>
<path class="st1" d="M176.5,1006.9h0.1c18.9,0,35,11.7,41.5,28.2"/>
<path class="st1" d="M286.5,237.1c21.8,0,39.9,15.6,43.8,36.3"/>
<path class="st1" d="M286.5,127c19.9,0,36.8,13,42.5,31"/>
<path class="st1" d="M286.9,19.3L286.9,19.3c19.9,0,36.7,12.9,42.5,30.8"/>
<path class="st1" d="M286.4,347.1c22.8,0,41.6,17.1,44.3,39.2"/>
<path class="st1" d="M286.3,457.1c23.7,0,43,18.5,44.5,41.8"/>
<path class="st1" d="M286.2,567.1c24.6,0,44.6,20,44.6,44.6"/>
<path class="st1" d="M286.2,677.5C286.3,677.5,286.3,677.5,286.2,677.5c24.7,0,44.7,20,44.7,44.6c0,0.9,0,1.8-0.1,2.8"/>
<path class="st1" d="M286.2,786.9c24.6,0,44.6,20,44.6,44.6c0,2-0.1,3.9-0.4,5.8"/>
<path class="st1" d="M286.2,896.9c24.6,0,44.6,20,44.6,44.6c0,1.9-0.1,3.8-0.4,5.7"/>
<path class="st1" d="M286.3,1007.4c24.6,0,44.6,20,44.6,44.6c0,3.8-0.5,7.6-1.4,11.1"/>
<path class="st1" d="M395.9,237.1c24.6,0,44.6,20,44.6,44.6c0,5.9-1.1,11.5-3.2,16.7"/>
<path class="st1" d="M396.2,127.5c24.6,0,44.6,20,44.6,44.6c0,5.8-1.1,11.4-3.2,16.5"/>
<path class="st1" d="M396.1,19.1c24.6,0,44.6,20,44.6,44.6c0,4.9-0.8,9.5-2.2,13.9"/>
<path class="st1" d="M395.9,346.9c24.6,0,44.6,20,44.6,44.6c0,6.8-1.5,13.2-4.2,19"/>
<path class="st1" d="M396,457.1c24.6,0,44.6,20,44.6,44.6c0,7.8-2,15.2-5.6,21.6"/>
<path class="st1" d="M396.1,567.4c24.6,0,44.6,19.9,44.6,44.6c0,8.8-2.5,17-6.9,23.9"/>
<path class="st1" d="M396,677.3c24.6,0,44.6,20,44.6,44.6c0,9.8-3.1,18.8-8.4,26.1"/>
<path class="st1" d="M396,787c24.6,0,44.6,20,44.6,44.6c0,10.9-3.9,20.8-10.4,28.6"/>
<path class="st1" d="M395.9,897c24.6,0,44.6,20,44.6,44.6c0,11.9-4.7,22.7-12.3,30.8"/>
<path class="st1" d="M395.9,1006.8c24.6,0,44.6,20,44.6,44.6c0,11.9-4.6,22.7-12.2,30.7"/>
<path class="st1" d="M505.5,237.1c24.6,0,44.6,20,44.6,44.6c0,14.9-7.3,28.1-18.5,36.2"/>
<path class="st1" d="M505.3,127.4c24.6,0,44.6,20,44.6,44.6c0,13.8-6.3,26.2-16.2,34.4"/>
<path class="st1" d="M505.4,18.8c24.6,0,44.6,20,44.6,44.6c0,12.8-5.4,24.4-14.1,32.5"/>
<path class="st1" d="M505.1,347.1h0.1c24.6,0,44.6,20,44.6,44.6c0,15.9-8.3,29.9-20.8,37.8"/>
<path class="st1" d="M505.2,457.1c24.6,0,44.6,20,44.6,44.6c0,16.9-9.5,31.7-23.3,39.2"/>
<path class="st1" d="M505.3,567.5c24.6,0,44.6,20,44.6,44.6c0,17.8-10.5,33.2-25.6,40.4"/>
<path class="st1" d="M505.3,677.3c24.6,0,44.6,20,44.6,44.6c0,18.9-11.7,35-28.3,41.5"/>
<path class="st1" d="M505.3,787c24.6,0,44.6,20,44.6,44.6c0,19.9-13,36.7-30.9,42.5"/>
<path class="st1" d="M505.3,896.8c24.6,0,44.6,20,44.6,44.6c0,20.9-14.4,38.5-33.9,43.3"/>
<path class="st1" d="M505.3,1006.9c24.6,0,44.6,20,44.6,44.6c0,21.8-15.6,40-36.3,43.8"/>
<path class="st1" d="M614.8,237c24.6,0,44.6,20,44.6,44.6s-20,44.6-44.6,44.6"/>
<path class="st1" d="M614.8,127.3c24.6,0,44.6,20,44.6,44.6c0,23.8-18.6,43.2-42,44.5"/>
<path class="st1" d="M614.8,19c0.1,0,0.1,0,0.2,0c24.6,0,44.6,20,44.6,44.6c0,22.8-17.1,41.6-39.2,44.3"/>
<path class="st1" d="M614.8,347c24.6,0,44.6,20,44.6,44.6s-20,44.6-44.6,44.6c-1,0-2,0-3.1-0.1"/>
<path class="st1" d="M614.8,457c24.6,0,44.6,20,44.6,44.6s-20,44.6-44.6,44.6c-2,0-4.1-0.1-6-0.4"/>
<path class="st1" d="M614.8,567.5c24.6,0,44.6,20,44.6,44.6s-20,44.6-44.6,44.6c-3,0-6-0.3-8.8-0.9"/>
<path class="st1" d="M614.9,677.4c24.6,0,44.6,20,44.6,44.6s-20,44.6-44.6,44.6c-3.8,0-7.6-0.5-11.1-1.4"/>
<path class="st1" d="M614.8,786.9c24.6,0,44.6,20,44.6,44.6s-20,44.6-44.6,44.6c-4.9,0-9.6-0.8-14-2.2"/>
<path class="st1" d="M614.8,897.2c24.6,0,44.6,20,44.6,44.6s-20,44.6-44.6,44.6c-5.8,0-11.4-1.1-16.5-3.1"/>
<path class="st1" d="M614.8,1006.9c24.6,0,44.6,20,44.6,44.6s-20,44.6-44.6,44.6c-6.9,0-13.3-1.5-19.2-4.3"/>
<path class="st1" d="M724.3,237.2c24.6,0,44.6,20,44.6,44.6s-20,44.6-44.6,44.6c-9.7,0-18.8-3.1-26.1-8.4"/>
<path class="st1" d="M724.3,127.5c24.6,0,44.6,20,44.6,44.6s-20,44.6-44.6,44.6c-8.8,0-17-2.6-23.9-6.9"/>
<path class="st1" d="M724.3,18.9c24.6,0,44.6,20,44.6,44.6s-20,44.6-44.6,44.6c-7.8,0-15.2-2-21.5-5.5"/>
<path class="st1" d="M724.3,347.2c24.6,0,44.6,20,44.6,44.6s-20,44.6-44.6,44.6c-10.9,0-20.9-3.9-28.6-10.4"/>
<path class="st1" d="M724.3,457c24.6,0,44.6,20,44.6,44.6s-20,44.6-44.6,44.6c-11.9,0-22.7-4.7-30.7-12.3"/>
<path class="st1" d="M724.3,567.5c24.6,0,44.6,20,44.6,44.6s-20,44.6-44.6,44.6c-12.9,0-24.6-5.5-32.7-14.3"/>
<path class="st1" d="M724.4,677.4c24.6,0,44.6,20,44.6,44.6s-20,44.6-44.6,44.6c-13.8,0-26.1-6.3-34.2-16"/>
<path class="st1" d="M724.3,787c24.6,0,44.6,20,44.6,44.6s-20,44.6-44.6,44.6c-14.9,0-28-7.3-36.2-18.5"/>
<path class="st1" d="M724.3,896.9c24.6,0,44.6,20,44.6,44.6s-20,44.6-44.6,44.6c-15.9,0-29.8-8.3-37.7-20.8"/>
<path class="st1" d="M724.4,1006.9c24.6,0,44.6,20,44.6,44.6s-20,44.6-44.6,44.6c-16.9,0-31.5-9.3-39.1-23.1"/>
<path class="st1" d="M834,127.3c1,0,1.9,0,2.9,0.1"/>
<path class="st1" d="M833.8,237.1c24.6,0,44.6,20,44.6,44.6s-20,44.6-44.6,44.6c-19.8,0-36.7-12.9-42.4-30.9"/>
<path class="st1" d="M833.9,127.3c24.6,0,44.6,20,44.6,44.6s-20,44.6-44.6,44.6c-19,0-35.2-11.9-41.6-28.6"/>
<path class="st1" d="M834,18.8c24.6,0,44.6,20,44.6,44.6S858.6,108,834,108c-17.9,0-33.4-10.6-40.5-25.9"/>
<path class="st1" d="M833.8,347.2c24.6,0,44.6,20,44.6,44.6s-20,44.6-44.6,44.6c-20.9,0-38.4-14.4-43.3-33.8"/>
<path class="st1" d="M833.8,457.2c24.6,0,44.6,20,44.6,44.6s-20,44.6-44.6,44.6c-21.8,0-40-15.7-43.8-36.4"/>
<path class="st1" d="M834,567.4c24.6,0,44.6,20,44.6,44.6s-20,44.6-44.6,44.6c-23.9,0-43.5-18.9-44.6-42.5"/>
<path class="st1" d="M833.8,677.3c24.6,0,44.6,20,44.6,44.6s-20,44.6-44.6,44.6s-44.6-20-44.6-44.6"/>
<path class="st1" d="M833.9,787.1c24.6,0,44.6,20,44.6,44.6s-20,44.6-44.6,44.6s-44.6-20-44.6-44.6c0-1,0-2,0.1-3.1"/>
<path class="st1" d="M833.9,896.9c24.6,0,44.6,20,44.6,44.6s-20,44.6-44.6,44.6s-44.6-20-44.6-44.6c0-2,0.1-4,0.4-5.9"/>
<path class="st1" d="M834,1006.9c24.6,0,44.6,20,44.6,44.6s-20,44.6-44.6,44.6s-44.6-20-44.6-44.6c0-3,0.3-5.9,0.8-8.7"/>
<path class="st1" d="M943.3,237c24.6,0,44.6,20,44.6,44.6s-20,44.6-44.6,44.6s-44.6-20-44.6-44.6c0-6,1.2-11.7,3.3-16.9"/>
<path class="st1" d="M943.9,127c24.6,0,44.6,20,44.6,44.6s-20,44.6-44.6,44.6s-44.6-20-44.6-44.6c0-5,0.8-9.7,2.3-14.2"/>
<path class="st1" d="M943.2,18.8c24.6,0,44.6,20,44.6,44.6s-20,44.6-44.6,44.6s-44.6-20-44.6-44.6c0-4,0.5-7.9,1.5-11.5"/>
<path class="st1" d="M943.3,347c24.6,0,44.6,20,44.6,44.6s-20,44.6-44.6,44.6s-44.6-20-44.6-44.6c0-7,1.6-13.7,4.5-19.5"/>
<path class="st1" d="M943.2,457.2c24.6,0,44.6,20,44.6,44.6s-20,44.6-44.6,44.6s-44.6-20-44.6-44.6c0-7.9,2-15.3,5.6-21.7"/>
<path class="st1" d="M943.3,567.5c24.6,0,44.6,20,44.6,44.6s-20,44.6-44.6,44.6s-44.6-20-44.6-44.6c0-9,2.7-17.4,7.3-24.4"/>
<path class="st1" d="M943.3,677.3c24.6,0,44.6,20,44.6,44.6s-20,44.6-44.6,44.6s-44.6-20-44.6-44.6c0-10,3.3-19.2,8.8-26.6"/>
<path class="st1" d="M943.3,786.9c24.6,0,44.6,20,44.6,44.6s-20,44.6-44.6,44.6s-44.6-20-44.6-44.6c0-11.1,4.1-21.3,10.8-29.1"/>
<path class="st1" d="M943.1,897c24.6,0,44.6,20,44.6,44.6s-20,44.6-44.6,44.6s-44.6-20-44.6-44.6c0-11.9,4.7-22.7,12.3-30.7"/>
<path class="st1" d="M943.2,1006.9c24.6,0,44.6,20,44.6,44.6s-20,44.6-44.6,44.6s-44.6-20-44.6-44.6c0-13,5.6-24.8,14.5-32.9"/>
<path class="st1" d="M1053,127.7c24.6,0,44.6,20,44.6,44.6s-20,44.6-44.6,44.6s-44.6-20-44.6-44.6c0-14.8,7.2-28,18.4-36.1"/>
<path class="st1" d="M1053.3,18.7c24.6,0,44.6,20,44.6,44.6s-20,44.6-44.6,44.6s-44.6-20-44.6-44.6c0-14.1,6.5-26.6,16.7-34.7"/>
<circle class="st1" cx="1163" cy="63.6" r="44.6"/>
<path class="st1" d="M1053.2,347.2c24.6,0,44.6,20,44.6,44.6s-20,44.6-44.6,44.6s-44.6-20-44.6-44.6c0-16.9,9.5-31.7,23.3-39.2"/>
<path class="st1" d="M1053,457.1c24.6,0,44.6,20,44.6,44.6c0,24.6-20,44.6-44.6,44.6s-44.6-20-44.6-44.6c0-17.9,10.5-33.2,25.6-40.4
	"/>
<path class="st1" d="M1053.2,567.6c24.6,0,44.6,20,44.6,44.6s-20,44.6-44.6,44.6s-44.6-20-44.6-44.6c0-19,11.8-35.1,28.5-41.6"/>
<path class="st1" d="M1053.2,677.3c24.6,0,44.6,20,44.6,44.6s-20,44.6-44.6,44.6s-44.6-20-44.6-44.6c0-19.9,13-36.8,31.1-42.5"/>
<path class="st1" d="M1053.1,787.1c24.6,0,44.6,20,44.6,44.6s-20,44.6-44.6,44.6s-44.6-20-44.6-44.6c0-20.9,14.4-38.4,33.8-43.3"/>
<path class="st1" d="M1053.2,897.1c24.6,0,44.6,20,44.6,44.6s-20,44.6-44.6,44.6s-44.6-20-44.6-44.6c0-21.9,15.8-40.1,36.6-43.9"/>
<path class="st1" d="M1053.4,1007.2c24.6,0,44.6,20,44.6,44.6c0,24.6-20,44.6-44.6,44.6s-44.6-20-44.6-44.6
	c0-23.9,18.7-43.3,42.3-44.5"/>
<circle class="st2" cx="205.6" cy="137.6" r="5.1"/>
<circle class="st2" cx="75.4" cy="237.7" r="5.1"/>
<circle class="st2" cx="76.5" cy="348.1" r="5.1"/>
<circle class="st2" cx="78.3" cy="458.6" r="5.1"/>
<circle class="st2" cx="81.3" cy="570" r="5.1"/>
<circle class="st2" cx="83.5" cy="680.4" r="5.1"/>
<circle class="st2" cx="85.7" cy="791" r="5.1"/>
<circle class="st2" cx="88.9" cy="902.4" r="5.1"/>
<circle class="st2" cx="91" cy="1013.8" r="5.1"/>
<circle class="st2" cx="202.7" cy="27" r="5.1"/>
<circle class="st2" cx="207" cy="249.1" r="5.1"/>
<circle class="st2" cx="209.7" cy="361.7" r="5.1"/>
<circle class="st2" cx="211.2" cy="473.3" r="5.1"/>
<circle class="st2" cx="212.8" cy="585.5" r="5.1"/>
<circle class="st2" cx="214.2" cy="697.6" r="5.1"/>
<circle class="st2" cx="215.7" cy="810.1" r="5.1"/>
<circle class="st2" cx="217.3" cy="922.6" r="5.1"/>
<circle class="st2" cx="218.3" cy="1035" r="5.1"/>
<circle class="st2" cx="329.4" cy="50.2" r="5.1"/>
<circle class="st2" cx="328.8" cy="157.8" r="5.1"/>
<circle class="st2" cx="330.3" cy="273.5" r="5.1"/>
<circle class="st2" cx="330.5" cy="386" r="5.1"/>
<circle class="st2" cx="330.8" cy="498.8" r="5.1"/>
<circle class="st2" cx="330.8" cy="611.7" r="5.1"/>
<circle class="st2" cx="331" cy="724.9" r="5.1"/>
<circle class="st2" cx="330.5" cy="837.4" r="5.1"/>
<circle class="st2" cx="330.1" cy="949.7" r="5.1"/>
<circle class="st2" cx="329.3" cy="1063.1" r="5.1"/>
<circle class="st2" cx="438.4" cy="77.6" r="5.1"/>
<circle class="st2" cx="437.8" cy="188.3" r="5.1"/>
<circle class="st2" cx="437.3" cy="298.4" r="5.1"/>
<circle class="st2" cx="436.2" cy="410.5" r="5.1"/>
<circle class="st2" cx="434.6" cy="523.3" r="5.1"/>
<circle class="st2" cx="433.6" cy="635.9" r="5.1"/>
<circle class="st2" cx="431.7" cy="747.9" r="5.1"/>
<circle class="st2" cx="430.2" cy="860.1" r="5.1"/>
<circle class="st2" cx="428.3" cy="972.2" r="5.1"/>
<circle class="st2" cx="428.4" cy="1081.9" r="5.1"/>
<circle class="st2" cx="535.9" cy="96" r="5.1"/>
<circle class="st2" cx="533.6" cy="206.4" r="5.1"/>
<circle class="st2" cx="532.1" cy="317.8" r="5.1"/>
<circle class="st2" cx="529.1" cy="429.5" r="5.1"/>
<circle class="st2" cx="526.5" cy="541" r="5.1"/>
<circle class="st2" cx="524.7" cy="652.1" r="5.1"/>
<circle class="st2" cx="521.8" cy="763.1" r="5.1"/>
<circle class="st2" cx="518.4" cy="874.3" r="5.1"/>
<circle class="st2" cx="515.9" cy="984.6" r="5.1"/>
<circle class="st2" cx="512.5" cy="1095.7" r="5.1"/>
<circle class="st2" cx="617.7" cy="108.5" r="5.1"/>
<circle class="st2" cx="617" cy="216.5" r="5.1"/>
<circle class="st2" cx="613.9" cy="326.1" r="5.1"/>
<circle class="st2" cx="611" cy="436.3" r="5.1"/>
<circle class="st2" cx="608.3" cy="545.8" r="5.1"/>
<circle class="st2" cx="606.3" cy="655.8" r="5.1"/>
<circle class="st2" cx="603.5" cy="765.3" r="5.1"/>
<circle class="st2" cx="600.9" cy="874" r="5.1"/>
<circle class="st2" cx="598.1" cy="983.1" r="5.1"/>
<circle class="st2" cx="595.7" cy="1091.8" r="5.1"/>
<circle class="st2" cx="702.7" cy="102.7" r="5.1"/>
<circle class="st2" cx="700.2" cy="209.7" r="5.1"/>
<circle class="st2" cx="698" cy="318" r="5.1"/>
<circle class="st2" cx="695.8" cy="426" r="5.1"/>
<circle class="st2" cx="693.6" cy="534" r="5.1"/>
<circle class="st2" cx="691.8" cy="642.4" r="5.1"/>
<circle class="st2" cx="689.9" cy="750.6" r="5.1"/>
<circle class="st2" cx="688.3" cy="857.6" r="5.1"/>
<circle class="st2" cx="686.5" cy="965" r="5.1"/>
<circle class="st2" cx="685.1" cy="1072.9" r="5.1"/>
<circle class="st2" cx="793.5" cy="81.9" r="5.1"/>
<circle class="st2" cx="792.3" cy="187.6" r="5.1"/>
<circle class="st2" cx="791.2" cy="294.5" r="5.1"/>
<circle class="st2" cx="790" cy="400.8" r="5.1"/>
<circle class="st2" cx="789.5" cy="506.9" r="5.1"/>
<circle class="st2" cx="789.5" cy="611.3" r="5.1"/>
<circle class="st2" cx="789.4" cy="717.7" r="5.1"/>
<circle class="st2" cx="789.9" cy="826.2" r="5.1"/>
<circle class="st2" cx="789.7" cy="935.1" r="5.1"/>
<circle class="st2" cx="790.5" cy="1042.2" r="5.1"/>
<circle class="st2" cx="900.1" cy="51.2" r="5.1"/>
<circle class="st2" cx="901.6" cy="157.7" r="5.1"/>
<circle class="st2" cx="902.2" cy="264.6" r="5.1"/>
<circle class="st2" cx="903.4" cy="372.1" r="5.1"/>
<circle class="st2" cx="904.1" cy="480.4" r="5.1"/>
<circle class="st2" cx="905.8" cy="587.8" r="5.1"/>
<circle class="st2" cx="907.7" cy="695.3" r="5.1"/>
<circle class="st2" cx="909.3" cy="802.4" r="5.1"/>
<circle class="st2" cx="910.8" cy="910.8" r="5.1"/>
<circle class="st2" cx="913.2" cy="1018.5" r="5.1"/>
<circle class="st2" cx="1025.3" cy="28.3" r="5.1"/>
<circle class="st2" cx="1026.8" cy="136.2" r="5.1"/>
<circle class="st2" cx="1028.9" cy="244.3" r="5.1"/>
<circle class="st2" cx="1032.4" cy="352.5" r="5.1"/>
<circle class="st2" cx="1034.4" cy="460.8" r="5.1"/>
<circle class="st2" cx="1037.6" cy="570" r="5.1"/>
<circle class="st2" cx="1040.1" cy="678.9" r="5.1"/>
<circle class="st2" cx="1042.5" cy="788.4" r="5.1"/>
<circle class="st2" cx="1046.2" cy="897.9" r="5.1"/>
<circle class="st2" cx="1048.3" cy="1007.7" r="5.1"/>
<path class="st1" d="M1053.2,237.3c24.6,0,44.6,20,44.6,44.6s-20,44.6-44.6,44.6s-44.6-20-44.6-44.6c0-15.8,8.3-29.8,20.7-37.7"/>
<path class="st1" d="M66.9,127.1c0.1,0,0.1,0,0.2,0c1.9,0,3.7,0.1,5.5,0.3"/>
<circle class="st2" cx="73.8" cy="127.4" r="5.1"/>
<circle class="st2" cx="1162.9" cy="18.9" r="5.1"/>
<circle class="st2" cx="1162.8" cy="19" r="8.3"/>
<circle class="st3" cx="1162.8" cy="19" r="7"/>
<path class="st4" d="M1166.9,16.6c0.1,0.1,0.1,0.2,0.1,0.4c0,0.1,0,0.3-0.1,0.4l-3.8,3.8l-0.7,0.7c-0.1,0.1-0.2,0.1-0.4,0.1
	c-0.1,0-0.3,0-0.4-0.1l-0.7-0.7l-1.9-1.9c-0.1-0.1-0.1-0.2-0.1-0.4c0-0.1,0-0.3,0.1-0.4l0.7-0.7c0.1-0.1,0.2-0.1,0.4-0.1
	c0.1,0,0.3,0.1,0.4,0.1l1.6,1.6l3.5-3.5c0.1-0.1,0.2-0.1,0.4-0.1c0.1,0,0.3,0.1,0.4,0.1L1166.9,16.6z"/>
</svg>
