<?xml version="1.0" encoding="utf-8"?>
<!-- Generator: Adobe Illustrator 21.1.0, SVG Export Plug-In . SVG Version: 6.00 Build 0)  -->
<svg version="1.1" id="Layer_1" xmlns="http://www.w3.org/2000/svg" xmlns:xlink="http://www.w3.org/1999/xlink" x="0px" y="0px"
	 viewBox="0 0 115 1245" style="enable-background:new 0 0 115 1245;" width="115px" height="1245px" xml:space="preserve">
<style type="text/css">
	.st0{fill:none;stroke:#E6E6E6;stroke-width:2.5;stroke-miterlimit:10;}
	.st1{fill:none;stroke:#4EA8C4;stroke-width:5.5;stroke-miterlimit:10;}
	.st2{fill:#4EA8C4;}
	.st3{fill:#80B247;}
	.st4{fill:#FFFFFF;}
</style>
<circle class="st0" cx="56.9" cy="165.9" r="43.7"/>
<path class="st1" d="M56.9,122.2c9.6,0,18.4,3.1,25.6,8.3"/>
<circle class="st2" cx="82.1" cy="130.1" r="5.3"/>
<circle class="st0" cx="56.9" cy="54.9" r="43.7"/>
<circle class="st0" cx="56.9" cy="276.9" r="43.7"/>
<path class="st1" d="M56.9,233.2c19.4,0,35.9,12.7,41.6,30.3"/>
<circle class="st2" cx="98.1" cy="263.1" r="5.3"/>
<circle class="st0" cx="57.2" cy="387.9" r="43.7"/>
<path class="st1" d="M57.2,344.2c24.1,0,43.7,19.6,43.7,43.7c0,4.9-0.8,9.5-2.2,13.9"/>
<circle class="st2" cx="98.4" cy="402.1" r="5.3"/>
<circle class="st0" cx="57.5" cy="498.9" r="43.7"/>
<path class="st1" d="M57.2,455.1c0.1,0,0.2,0,0.3,0c24.1,0,43.7,19.6,43.7,43.7c0,14.8-7.3,27.8-18.5,35.7"/>
<circle class="st2" cx="82.7" cy="535" r="5.3"/>
<circle class="st0" cx="57.6" cy="612.1" r="43.7"/>
<path class="st1" d="M57.6,568.4c24.1,0,43.7,19.6,43.7,43.7s-19.6,43.7-43.7,43.7c-0.2,0-0.5,0-0.7,0"/>
<circle class="st2" cx="57.6" cy="655.6" r="5.3"/>
<circle class="st0" cx="57.5" cy="727.5" r="43.7"/>
<path class="st1" d="M57.5,683.8c24.1,0,43.7,19.6,43.7,43.7s-19.6,43.7-43.7,43.7c-9.9,0-19.1-3.3-26.4-8.9"/>
<circle class="st2" cx="30.7" cy="761.7" r="5.3"/>
<circle class="st0" cx="57.2" cy="840.5" r="43.7"/>
<path class="st1" d="M57.2,796.8c24.1,0,43.7,19.6,43.7,43.7s-19.6,43.7-43.7,43.7c-19.7,0-36.3-13-41.8-30.9"/>
<circle class="st2" cx="15.4" cy="852.7" r="5.3"/>
<circle class="st0" cx="57.2" cy="953" r="43.7"/>
<path class="st1" d="M57.2,909.2c24.1,0,43.7,19.6,43.7,43.7s-19.6,43.7-43.7,43.7S13.5,977.1,13.5,953c0-4.9,0.8-9.7,2.3-14.1"/>
<circle class="st2" cx="15.4" cy="939.1" r="5.3"/>
<circle class="st0" cx="57.3" cy="1065.8" r="43.7"/>
<path class="st1" d="M57.3,1022c24.1,0,43.7,19.6,43.7,43.7s-19.6,43.7-43.7,43.7s-43.7-19.6-43.7-43.7c0-14.7,7.3-27.7,18.4-35.7"
	/>
<circle class="st2" cx="31.4" cy="1029.9" r="5.3"/>
<circle class="st0" cx="57.5" cy="1183.1" r="43.7"/>
<circle class="st1" cx="57.5" cy="1183.1" r="43.7"/>
<circle class="st2" cx="57.7" cy="1139.3" r="5.3"/>
<circle class="st2" cx="57.6" cy="1139.3" r="8.3"/>
<circle class="st3" cx="57.6" cy="1139.3" r="7"/>
<path class="st4" d="M61.7,1136.9c0.1,0.1,0.1,0.2,0.1,0.4c0,0.1,0,0.3-0.1,0.4l-3.8,3.8l-0.7,0.7c-0.1,0.1-0.2,0.1-0.4,0.1
	c-0.1,0-0.3,0-0.4-0.1l-0.7-0.7l-1.9-1.9c-0.1-0.1-0.1-0.2-0.1-0.4c0-0.1,0-0.3,0.1-0.4l0.7-0.7c0.1-0.1,0.2-0.1,0.4-0.1
	c0.1,0,0.3,0.1,0.4,0.1l1.6,1.6l3.5-3.5c0.1-0.1,0.2-0.1,0.4-0.1c0.1,0,0.3,0.1,0.4,0.1L61.7,1136.9z"/>
</svg>
