<?xml version="1.0" encoding="utf-8"?>

<svg version="1.1" id="Layer_1" xmlns="http://www.w3.org/2000/svg" xmlns:xlink="http://www.w3.org/1999/xlink" x="0px" y="0px"
	 viewBox="0 0 3396 3104" style="enable-background:new 0 0 3396 3104;" width="3396px" height="3104px" xml:space="preserve">
<style type="text/css">
	.st0{fill:none;stroke:#E6E6E6;stroke-width:6;stroke-miterlimit:10;}
	.st1{fill:none;stroke:#4EA8C4;stroke-width:11;stroke-miterlimit:10;}
	.st2{fill:#4EA8C4;}
	.st3{fill:#80B247;}
	.st4{fill:#FFFFFF;}
</style>
<circle class="st0" cx="177.3" cy="468" r="124.1"/>
<circle class="st0" cx="2922" cy="774.4" r="124.1"/>
<circle class="st0" cx="177.3" cy="165.9" r="124.1"/>
<path class="st0" d="M482.1,343.8c68.5,0,124.1,55.6,124.1,124.1S550.6,592,482.1,592S358,536.4,358,467.9"/>
<circle class="st0" cx="482.6" cy="467.9" r="124.1"/>
<circle class="st0" cx="177.3" cy="2304" r="124.1"/>
<circle class="st0" cx="177.3" cy="773.9" r="124.1"/>
<circle class="st0" cx="177.8" cy="1079.9" r="124.1"/>
<circle class="st0" cx="177.8" cy="1385.9" r="124.1"/>
<circle class="st0" cx="178.3" cy="1694.1" r="124.1"/>
<circle class="st0" cx="177.3" cy="1999.1" r="124.1"/>
<circle class="st0" cx="177.3" cy="2304" r="124.1"/>
<circle class="st0" cx="178.3" cy="2610" r="124.1"/>
<circle class="st0" cx="177.3" cy="2916.1" r="124.1"/>
<circle class="st0" cx="482.1" cy="165.9" r="124.1"/>
<circle class="st0" cx="482.1" cy="773.9" r="124.1"/>
<circle class="st0" cx="482.6" cy="1079.9" r="124.1"/>
<circle class="st0" cx="482.6" cy="1385.9" r="124.1"/>
<circle class="st0" cx="482.1" cy="1692" r="124.1"/>
<circle class="st0" cx="482.1" cy="1998" r="124.1"/>
<circle class="st0" cx="482.1" cy="2304" r="124.1"/>
<circle class="st0" cx="482.6" cy="2610" r="124.1"/>
<circle class="st0" cx="482.3" cy="2916.1" r="124.1"/>
<circle class="st0" cx="788.5" cy="167.6" r="124.1"/>
<circle class="st0" cx="787.9" cy="467.9" r="124.1"/>
<circle class="st0" cx="788" cy="773.9" r="124.1"/>
<circle class="st0" cx="787.6" cy="1079.9" r="124.1"/>
<circle class="st0" cx="787.4" cy="1385.9" r="124.1"/>
<circle class="st0" cx="787.4" cy="1692" r="124.1"/>
<circle class="st0" cx="788" cy="1999.1" r="124.1"/>
<circle class="st0" cx="787.5" cy="2304" r="124.1"/>
<circle class="st0" cx="786.8" cy="2610" r="124.1"/>
<circle class="st0" cx="787.4" cy="2917.2" r="124.1"/>
<circle class="st0" cx="1093.4" cy="167.3" r="124.1"/>
<circle class="st0" cx="1093.5" cy="468.8" r="124.1"/>
<circle class="st0" cx="1092.9" cy="774" r="124.1"/>
<circle class="st0" cx="1092.8" cy="1079.4" r="124.1"/>
<circle class="st0" cx="1093.1" cy="1386" r="124.1"/>
<circle class="st0" cx="1093.2" cy="1693.2" r="124.1"/>
<circle class="st0" cx="1093.1" cy="1998.8" r="124.1"/>
<circle class="st0" cx="1093" cy="2304.2" r="124.1"/>
<circle class="st0" cx="1092.8" cy="2610.2" r="124.1"/>
<circle class="st0" cx="1092.9" cy="2915.8" r="124.1"/>
<circle class="st0" cx="1397.4" cy="166.4" r="124.1"/>
<circle class="st0" cx="1397.3" cy="468.7" r="124.1"/>
<circle class="st0" cx="1397.7" cy="774" r="124.1"/>
<circle class="st0" cx="1397" cy="1080" r="124.1"/>
<circle class="st0" cx="1396.9" cy="1386.2" r="124.1"/>
<circle class="st0" cx="1397.3" cy="1693.3" r="124.1"/>
<circle class="st0" cx="1397.2" cy="1998.8" r="124.1"/>
<circle class="st0" cx="1397.2" cy="2304.3" r="124.1"/>
<circle class="st0" cx="1397.1" cy="2609.7" r="124.1"/>
<circle class="st0" cx="1397.3" cy="2916.2" r="124.1"/>
<circle class="st0" cx="1701.7" cy="167" r="124.1"/>
<circle class="st0" cx="1702" cy="468.3" r="124.1"/>
<circle class="st0" cx="1701.9" cy="773.5" r="124.1"/>
<circle class="st0" cx="1701.8" cy="1079.8" r="124.1"/>
<circle class="st0" cx="1701.8" cy="1385.9" r="124.1"/>
<circle class="st0" cx="1702" cy="1693.3" r="124.1"/>
<circle class="st0" cx="1702.3" cy="1999.3" r="124.1"/>
<circle class="st0" cx="1701.9" cy="2303.9" r="124.1"/>
<circle class="st0" cx="1701.9" cy="2610.8" r="124.1"/>
<circle class="st0" cx="1702" cy="2916.1" r="124.1"/>
<circle class="st0" cx="2006.7" cy="166.8" r="124.1"/>
<circle class="st0" cx="2006.7" cy="468.8" r="124.1"/>
<circle class="st0" cx="2006.6" cy="774.2" r="124.1"/>
<circle class="st0" cx="2006.6" cy="1080.2" r="124.1"/>
<circle class="st0" cx="2006.6" cy="1385.9" r="124.1"/>
<circle class="st0" cx="2006.7" cy="1693.3" r="124.1"/>
<circle class="st0" cx="2006.9" cy="1999.3" r="124.1"/>
<circle class="st0" cx="2006.6" cy="2304.3" r="124.1"/>
<circle class="st0" cx="2006.6" cy="2610.1" r="124.1"/>
<circle class="st0" cx="2006.8" cy="2916.2" r="124.1"/>
<circle class="st0" cx="2311.9" cy="166.4" r="124.1"/>
<circle class="st0" cx="2311.7" cy="468.3" r="124.1"/>
<circle class="st0" cx="2311.5" cy="774" r="124.1"/>
<circle class="st0" cx="2311.4" cy="1080.2" r="124.1"/>
<circle class="st0" cx="2311.4" cy="1386.3" r="124.1"/>
<circle class="st0" cx="2312" cy="1693.1" r="124.1"/>
<circle class="st0" cx="2311.4" cy="1999" r="124.1"/>
<circle class="st0" cx="2311.7" cy="2304.4" r="124.1"/>
<circle class="st0" cx="2311.7" cy="2610.1" r="124.1"/>
<circle class="st0" cx="2311.6" cy="2916.1" r="124.1"/>
<circle class="st0" cx="2615.7" cy="166.4" r="124.1"/>
<circle class="st0" cx="2617.8" cy="467.6" r="124.1"/>
<circle class="st0" cx="2616.1" cy="773.5" r="124.1"/>
<circle class="st0" cx="2616.2" cy="1079.8" r="124.1"/>
<circle class="st0" cx="2615.7" cy="1386.3" r="124.1"/>
<circle class="st0" cx="2616.1" cy="1693.3" r="124.1"/>
<circle class="st0" cx="2616.2" cy="1999" r="124.1"/>
<circle class="st0" cx="2616" cy="2303.8" r="124.1"/>
<circle class="st0" cx="2615.5" cy="2610.2" r="124.1"/>
<circle class="st0" cx="2615.8" cy="2916.1" r="124.1"/>
<circle class="st0" cx="2922.2" cy="166.2" r="124.1"/>
<circle class="st0" cx="2921.4" cy="469.4" r="124.1"/>
<circle class="st0" cx="2922" cy="1080.3" r="124.1"/>
<circle class="st0" cx="2921.4" cy="1386.1" r="124.1"/>
<circle class="st0" cx="2921.8" cy="1693.5" r="124.1"/>
<circle class="st0" cx="2921.8" cy="1998.8" r="124.1"/>
<circle class="st0" cx="2921.6" cy="2304.4" r="124.1"/>
<circle class="st0" cx="2921.8" cy="2610.7" r="124.1"/>
<circle class="st0" cx="2922.6" cy="2916.9" r="124.1"/>
<path class="st1" d="M177.2,649.7c0.2,0,0.3,0,0.5,0c5.2,0,10.3,0.3,15.3,0.9"/>
<path class="st1" d="M177.7,956c8.2,0,16.2,0.8,24,2.3"/>
<path class="st1" d="M177.7,1262c10.9,0,21.5,1.4,31.6,4.1"/>
<path class="st1" d="M177.7,1570c13.8,0,27,2.2,39.4,6.4"/>
<path class="st1" d="M177.7,1875.4c16.1,0,31.6,3.1,45.7,8.7"/>
<path class="st1" d="M177.7,2180c18.8,0,36.6,4.2,52.6,11.6"/>
<path class="st1" d="M177.7,2486c21.9,0,42.5,5.7,60.4,15.7"/>
<path class="st1" d="M177.7,2792c24.5,0,47.3,7.1,66.5,19.3"/>
<path class="st1" d="M482.4,649.7c33,0,62.9,12.9,85.2,33.8"/>
<path class="st1" d="M482.4,343.7c30.4,0,58.2,10.9,79.8,29"/>
<path class="st1" d="M482.4,41.9c27.3,0,52.5,8.8,72.9,23.7"/>
<path class="st1" d="M482.4,956c35.9,0,68.1,15.2,90.8,39.5"/>
<path class="st1" d="M482.4,1262c38.6,0,73,17.6,95.8,45.2"/>
<path class="st1" d="M483.7,1568.7c40.9,0,77.1,19.7,99.7,50.2"/>
<path class="st1" d="M482.8,1874.2c44,0,82.7,22.9,104.7,57.5"/>
<path class="st1" d="M481.7,2180c0.2,0,0.5,0,0.7,0c47,0,87.8,26.1,108.9,64.5"/>
<path class="st1" d="M482.4,2486c49.7,0,92.6,29.2,112.4,71.4"/>
<path class="st1" d="M482.1,2792c0.1,0,0.2,0,0.3,0c52.5,0,97.3,32.6,115.5,78.6"/>
<path class="st1" d="M788.3,649.7c60.6,0,111.1,43.5,121.9,101"/>
<path class="st1" d="M788.3,343.4c55.4,0,102.3,36.3,118.3,86.4"/>
<path class="st1" d="M789.4,43.7c0.1,0,0.1,0,0.2,0c55.1,0,101.8,35.9,118,85.6"/>
<path class="st1" d="M788.1,955.8c63.4,0,115.7,47.6,123.2,109"/>
<path class="st1" d="M787.9,1262c65.9,0,119.8,51.4,123.9,116.2"/>
<path class="st1" d="M787.6,1568c68.5,0,124.1,55.6,124.1,124.1"/>
<path class="st1" d="M787.6,1875.4c0.1,0,0.1,0,0.2,0c68.5,0,124.1,55.6,124.1,124.1c0,2.6-0.1,5.1-0.2,7.7"/>
<path class="st1" d="M787.5,2179.9c68.5,0,124.1,55.6,124.1,124.1c0,5.5-0.4,10.8-1,16.1"/>
<path class="st1" d="M787.6,2485.9c68.5,0,124.1,55.6,124.1,124.1c0,5.4-0.3,10.7-1,16"/>
<path class="st1" d="M787.8,2793.4c68.5,0,124.1,55.6,124.1,124.1c0,10.7-1.4,21.1-3.9,31"/>
<path class="st1" d="M1092.9,649.9c68.5,0,124.1,55.6,124.1,124.1c0,16.4-3.2,32.1-9,46.4"/>
<path class="st1" d="M1093.5,344.7c68.5,0,124.1,55.6,124.1,124.1c0,16.2-3.1,31.7-8.8,45.9"/>
<path class="st1" d="M1093.4,43.2c68.5,0,124.1,55.6,124.1,124.1c0,13.5-2.1,26.4-6.1,38.6"/>
<path class="st1" d="M1092.8,955.3c68.5,0,124.1,55.6,124.1,124.1c0,18.9-4.2,36.8-11.8,52.8"/>
<path class="st1" d="M1093.1,1261.9c68.5,0,124.1,55.6,124.1,124.1c0,21.8-5.6,42.3-15.5,60.1"/>
<path class="st1" d="M1093.2,1569.1c68.5,0,124.1,55.5,124.1,124.1c0,24.4-7,47.2-19.2,66.4"/>
<path class="st1" d="M1093.1,1874.7c68.5,0,124.1,55.6,124.1,124.1c0,27.2-8.7,52.3-23.5,72.7"/>
<path class="st1" d="M1093,2180.1c68.5,0,124.1,55.6,124.1,124.1c0,30.3-10.8,58-28.9,79.6"/>
<path class="st1" d="M1092.8,2486.1c68.5,0,124.1,55.6,124.1,124.1c0,33.2-13,63.3-34.2,85.6"/>
<path class="st1" d="M1092.9,2791.7c68.5,0,124.1,55.6,124.1,124.1c0,33.1-12.9,63.1-34,85.4"/>
<path class="st1" d="M1397.7,649.9c68.5,0,124.1,55.6,124.1,124.1c0,41.4-20.3,78.1-51.5,100.6"/>
<path class="st1" d="M1397.3,344.6c68.5,0,124.1,55.6,124.1,124.1c0,38.5-17.5,72.9-45.1,95.7"/>
<path class="st1" d="M1397.4,42.3c68.5,0,124.1,55.6,124.1,124.1c0,35.7-15,67.8-39.1,90.4"/>
<path class="st1" d="M1396.6,955.9c0.1,0,0.2,0,0.3,0c68.5,0,124.1,55.6,124.1,124.1c0,44.3-23.2,83.1-58,105.1"/>
<path class="st1" d="M1396.9,1262.1c68.5,0,124.1,55.6,124.1,124.1c0,47.1-26.3,88.1-64.9,109.1"/>
<path class="st1" d="M1397.3,1569.2c68.5,0,124.1,55.6,124.1,124.1c0,49.6-29.1,92.5-71.2,112.3"/>
<path class="st1" d="M1397.2,1874.7c68.5,0,124.1,55.6,124.1,124.1c0,52.5-32.6,97.4-78.7,115.5"/>
<path class="st1" d="M1397.2,2180.2c68.5,0,124.1,55.6,124.1,124.1c0,55.3-36.2,102.1-86.1,118.2"/>
<path class="st1" d="M1397.1,2485.6c68.5,0,124.1,55.6,124.1,124.1c0,58.2-40.1,107.1-94.2,120.5"/>
<path class="st1" d="M1397.3,2792.1c68.5,0,124.1,55.6,124.1,124.1c0,60.7-43.5,111.2-101.1,122"/>
<path class="st1" d="M1701.9,649.4c68.5,0,124.1,55.6,124.1,124.1s-55.6,124.1-124.1,124.1"/>
<path class="st1" d="M1702,344.2c68.5,0,124.1,55.6,124.1,124.1c0,66.1-51.7,120.2-116.9,123.9"/>
<path class="st1" d="M1701.9,42.8c0.2,0,0.3,0,0.5,0c68.5,0,124.1,55.6,124.1,124.1c0,63.4-47.6,115.7-109,123.2"/>
<path class="st1" d="M1701.8,955.7c68.5,0,124.1,55.6,124.1,124.1s-55.6,124.1-124.1,124.1c-2.9,0-5.7-0.1-8.5-0.3"/>
<path class="st1" d="M1701.8,1261.8c68.5,0,124.1,55.6,124.1,124.1s-55.6,124.1-124.1,124.1c-5.7,0-11.3-0.4-16.8-1.1"/>
<path class="st1" d="M1702,1569.2c68.5,0,124.1,55.6,124.1,124.1s-55.6,124.1-124.1,124.1c-8.4,0-16.6-0.8-24.6-2.4"/>
<path class="st1" d="M1702.3,1875.2c68.5,0,124.1,55.6,124.1,124.1c0,68.5-55.6,124.1-124.1,124.1c-10.7,0-21.1-1.4-31-3.9"/>
<path class="st1" d="M1701.9,2179.8c68.5,0,124.1,55.6,124.1,124.1s-55.6,124.1-124.1,124.1c-13.6,0-26.7-2.2-39-6.2"/>
<path class="st1" d="M1701.9,2486.7c68.5,0,124.1,55.6,124.1,124.1s-55.6,124.1-124.1,124.1c-16.2,0-31.6-3.1-45.8-8.7"/>
<path class="st1" d="M1702,2792c68.5,0,124.1,55.6,124.1,124.1s-55.6,124.1-124.1,124.1c-19.1,0-37.1-4.3-53.3-12"/>
<path class="st1" d="M2006.6,650.1c68.5,0,124.1,55.6,124.1,124.1s-55.6,124.1-124.1,124.1c-27.1,0-52.2-8.7-72.6-23.5"/>
<path class="st1" d="M2006.7,344.7c68.5,0,124.1,55.6,124.1,124.1s-55.6,124.1-124.1,124.1c-24.5,0-47.3-7.1-66.6-19.3"/>
<path class="st1" d="M2006.7,42.7c68.5,0,124.1,55.6,124.1,124.1s-55.6,124.1-124.1,124.1c-21.7,0-42.2-5.6-59.9-15.4"/>
<path class="st1" d="M2006.6,956.1c68.5,0,124.1,55.6,124.1,124.1s-55.6,124.1-124.1,124.1c-30.4,0-58.2-10.9-79.7-29"/>
<path class="st1" d="M2006.6,1261.8c68.5,0,124.1,55.6,124.1,124.1s-55.6,124.1-124.1,124.1c-33.1,0-63.2-13-85.4-34.1"/>
<path class="st1" d="M2006.7,1569.2c68.5,0,124.1,55.6,124.1,124.1s-55.6,124.1-124.1,124.1c-36,0-68.4-15.3-91-39.7"/>
<path class="st1" d="M2006.9,1875.2c68.5,0,124.1,55.6,124.1,124.1c0,68.5-55.6,124.1-124.1,124.1c-38.3,0-72.6-17.4-95.3-44.6"/>
<path class="st1" d="M2006.6,2180.2c68.5,0,124.1,55.6,124.1,124.1s-55.6,124.1-124.1,124.1c-41.4,0-78-20.3-100.6-51.4"/>
<path class="st1" d="M2006.6,2486c68.5,0,124.1,55.6,124.1,124.1s-55.6,124.1-124.1,124.1c-44.2,0-83-23.1-104.9-57.8"/>
<path class="st1" d="M2006.8,2792.1c68.5,0,124.1,55.6,124.1,124.1s-55.6,124.1-124.1,124.1c-46.9,0-87.7-26-108.8-64.4"/>
<path class="st1" d="M2311.8,344.2c2.7,0,5.3,0.1,8,0.3"/>
<path class="st1" d="M2311.5,649.9c68.5,0,124.1,55.6,124.1,124.1s-55.6,124.1-124.1,124.1c-55.2,0-102-36-118.1-85.9"/>
<path class="st1" d="M2311.7,344.2c68.5,0,124.1,55.6,124.1,124.1s-55.6,124.1-124.1,124.1c-52.8,0-98-33-115.9-79.6"/>
<path class="st1" d="M2311.9,42.3c68.5,0,124.1,55.6,124.1,124.1s-55.6,124.1-124.1,124.1c-49.9,0-93-29.5-112.7-72"/>
<path class="st1" d="M2311.4,956.1c68.5,0,124.1,55.6,124.1,124.1s-55.6,124.1-124.1,124.1c-58.2,0-107-40-120.4-94"/>
<path class="st1" d="M2311.4,1262.2c68.5,0,124.1,55.6,124.1,124.1s-55.6,124.1-124.1,124.1c-60.7,0-111.3-43.6-122-101.3"/>
<path class="st1" d="M2312,1569c68.5,0,124.1,55.6,124.1,124.1s-55.6,124.1-124.1,124.1c-66.6,0-121-52.5-124-118.4"/>
<path class="st1" d="M2311.4,1874.9c68.5,0,124.1,55.6,124.1,124.1s-55.6,124.1-124.1,124.1s-124.1-55.6-124.1-124.1"/>
<path class="st1" d="M2311.7,2180.3c68.5,0,124.1,55.6,124.1,124.1s-55.6,124.1-124.1,124.1s-124.1-55.6-124.1-124.1
	c0-2.9,0.1-5.7,0.3-8.6"/>
<path class="st1" d="M2311.7,2486c68.5,0,124.1,55.6,124.1,124.1s-55.6,124.1-124.1,124.1s-124.1-55.6-124.1-124.1
	c0-5.5,0.4-11,1.1-16.3"/>
<path class="st1" d="M2311.8,2792c68.5,0,124.1,55.6,124.1,124.1s-55.6,124.1-124.1,124.1s-124.1-55.6-124.1-124.1
	c0-8.3,0.8-16.3,2.3-24.2"/>
<path class="st1" d="M2616.1,649.4c68.5,0,124.1,55.6,124.1,124.1s-55.6,124.1-124.1,124.1S2492,842,2492,773.5
	c0-16.6,3.3-32.5,9.2-47"/>
<path class="st1" d="M2617.8,343.5c68.5,0,124.1,55.6,124.1,124.1s-55.6,124.1-124.1,124.1s-124.1-55.6-124.1-124.1
	c0-13.8,2.3-27.1,6.4-39.5"/>
<path class="st1" d="M2615.7,42.3c68.5,0,124.1,55.6,124.1,124.1s-55.6,124.1-124.1,124.1s-124.1-55.6-124.1-124.1
	c0-11.1,1.5-21.9,4.2-32.1"/>
<path class="st1" d="M2616.2,955.7c68.5,0,124.1,55.6,124.1,124.1s-55.6,124.1-124.1,124.1s-124.1-55.6-124.1-124.1
	c0-19.5,4.5-38,12.5-54.4"/>
<path class="st1" d="M2615.7,1262.2c68.5,0,124.1,55.6,124.1,124.1s-55.6,124.1-124.1,124.1s-124.1-55.6-124.1-124.1
	c0-22,5.7-42.6,15.7-60.5"/>
<path class="st1" d="M2616.1,1569.2c68.5,0,124.1,55.6,124.1,124.1s-55.6,124.1-124.1,124.1s-124.1-55.6-124.1-124.1
	c0-25.1,7.5-48.5,20.3-68"/>
<path class="st1" d="M2616.2,1874.9c68.5,0,124.1,55.6,124.1,124.1s-55.6,124.1-124.1,124.1s-124.1-55.6-124.1-124.1
	c0-27.8,9.1-53.4,24.5-74.1"/>
<path class="st1" d="M2616,2179.7c68.5,0,124.1,55.6,124.1,124.1s-55.6,124.1-124.1,124.1s-124.1-55.6-124.1-124.1
	c0-30.9,11.3-59.2,30-80.9"/>
<path class="st1" d="M2615.5,2486.1c68.5,0,124.1,55.6,124.1,124.1s-55.6,124.1-124.1,124.1s-124.1-55.6-124.1-124.1
	c0-33.1,13-63.2,34.1-85.5"/>
<path class="st1" d="M2615.8,2792c68.5,0,124.1,55.6,124.1,124.1s-55.6,124.1-124.1,124.1s-124.1-55.6-124.1-124.1
	c0-36.2,15.5-68.9,40.3-91.5"/>
<path class="st1" d="M2921.4,345.3c68.5,0,124.1,55.6,124.1,124.1s-55.6,124.1-124.1,124.1s-124.1-55.6-124.1-124.1
	c0-41.2,20.1-77.8,51.1-100.4"/>
<path class="st1" d="M2922.2,42.1c68.5,0,124.1,55.6,124.1,124.1s-55.6,124.1-124.1,124.1s-124.1-55.6-124.1-124.1
	c0-39.1,18.1-74,46.4-96.7"/>
<circle class="st1" cx="3227.6" cy="171.9" r="124.1"/>
<path class="st1" d="M2922,956.2c68.5,0,124.1,55.6,124.1,124.1s-55.6,124.1-124.1,124.1s-124.1-55.6-124.1-124.1
	c0-47.1,26.3-88.1,64.9-109.1"/>
<path class="st1" d="M2921.4,1262c68.5,0,124.1,55.6,124.1,124.1s-55.6,124.1-124.1,124.1s-124.1-55.6-124.1-124.1
	c0-49.7,29.2-92.5,71.3-112.4"/>
<path class="st1" d="M2921.8,1569.4c68.5,0,124.1,55.6,124.1,124.1s-55.6,124.1-124.1,124.1s-124.1-55.6-124.1-124.1
	c0-52.8,32.9-97.8,79.3-115.8"/>
<path class="st1" d="M2921.8,1874.7c68.5,0,124.1,55.6,124.1,124.1c0,68.5-55.6,124.1-124.1,124.1s-124.1-55.6-124.1-124.1
	c0-55.4,36.3-102.4,86.5-118.3"/>
<path class="st1" d="M2921.6,2180.3c68.5,0,124.1,55.6,124.1,124.1s-55.6,124.1-124.1,124.1s-124.1-55.6-124.1-124.1
	c0-58.1,40-107,94-120.4"/>
<path class="st1" d="M2921.8,2486.6c68.5,0,124.1,55.6,124.1,124.1s-55.6,124.1-124.1,124.1s-124.1-55.6-124.1-124.1
	c0-61,43.9-111.6,101.9-122.1"/>
<path class="st1" d="M2922.6,2792.8c68.5,0,124.1,55.6,124.1,124.1s-55.6,124.1-124.1,124.1s-124.1-55.6-124.1-124.1
	c0-66.4,52.1-120.6,117.7-123.9"/>
<circle class="st2" cx="562.7" cy="372.1" r="10.6"/>
<circle class="st2" cx="190.9" cy="343.8" r="10.6"/>
<circle class="st2" cx="196.4" cy="651.1" r="10.6"/>
<circle class="st2" cx="201.9" cy="958.2" r="10.6"/>
<circle class="st2" cx="208.9" cy="1266.2" r="10.6"/>
<circle class="st2" cx="217.4" cy="1576.3" r="10.6"/>
<circle class="st2" cx="223.4" cy="1883.4" r="10.6"/>
<circle class="st2" cx="229.4" cy="2191.3" r="10.6"/>
<circle class="st2" cx="238.4" cy="2501.3" r="10.6"/>
<circle class="st2" cx="244.4" cy="2811.3" r="10.6"/>
<circle class="st2" cx="555.2" cy="65.2" r="10.6"/>
<circle class="st2" cx="567.2" cy="683.1" r="10.6"/>
<circle class="st2" cx="574.7" cy="995.2" r="10.6"/>
<circle class="st2" cx="578.7" cy="1307.2" r="10.6"/>
<circle class="st2" cx="583.2" cy="1619.2" r="10.6"/>
<circle class="st2" cx="587.2" cy="1931.3" r="10.6"/>
<circle class="st2" cx="591.2" cy="2244.3" r="10.6"/>
<circle class="st2" cx="595.7" cy="2557.3" r="10.6"/>
<circle class="st2" cx="598.5" cy="2870.3" r="10.6"/>
<circle class="st2" cx="907.7" cy="129.8" r="10.6"/>
<circle class="st2" cx="906.1" cy="429.1" r="10.6"/>
<circle class="st2" cx="910.1" cy="751.1" r="10.6"/>
<circle class="st2" cx="910.7" cy="1064.2" r="10.6"/>
<circle class="st2" cx="911.6" cy="1378.2" r="10.6"/>
<circle class="st2" cx="911.6" cy="1692.2" r="10.6"/>
<circle class="st2" cx="912.1" cy="2007.4" r="10.6"/>
<circle class="st2" cx="910.7" cy="2320.3" r="10.6"/>
<circle class="st2" cx="908.9" cy="2633.3" r="10.6"/>
<circle class="st2" cx="907.5" cy="2948.5" r="10.6"/>
<circle class="st2" cx="1211" cy="205.8" r="10.6"/>
<circle class="st2" cx="1209.4" cy="513.9" r="10.6"/>
<circle class="st2" cx="1208.1" cy="820.5" r="10.6"/>
<circle class="st2" cx="1203.8" cy="1131.8" r="10.6"/>
<circle class="st2" cx="1200.4" cy="1446.2" r="10.6"/>
<circle class="st2" cx="1197.7" cy="1759.5" r="10.6"/>
<circle class="st2" cx="1192.4" cy="2071.4" r="10.6"/>
<circle class="st2" cx="1188.2" cy="2383.6" r="10.6"/>
<circle class="st2" cx="1183" cy="2695.6" r="10.6"/>
<circle class="st2" cx="1183.1" cy="3000.8" r="10.6"/>
<circle class="st2" cx="1482.3" cy="257.2" r="10.6"/>
<circle class="st2" cx="1476" cy="564.5" r="10.6"/>
<circle class="st2" cx="1471.9" cy="874.5" r="10.6"/>
<circle class="st2" cx="1463.5" cy="1185.2" r="10.6"/>
<circle class="st2" cx="1456.2" cy="1495.5" r="10.6"/>
<circle class="st2" cx="1451.1" cy="1804.8" r="10.6"/>
<circle class="st2" cx="1443" cy="2113.5" r="10.6"/>
<circle class="st2" cx="1434.9" cy="2422.6" r="10.6"/>
<circle class="st2" cx="1427.8" cy="2729.5" r="10.6"/>
<circle class="st2" cx="1420.1" cy="3038.4" r="10.6"/>
<circle class="st2" cx="1714.8" cy="290.3" r="10.6"/>
<circle class="st2" cx="1709.7" cy="590.8" r="10.6"/>
<circle class="st2" cx="1701.6" cy="897.5" r="10.6"/>
<circle class="st2" cx="1693.5" cy="1202.6" r="10.6"/>
<circle class="st2" cx="1685.4" cy="1508.9" r="10.6"/>
<circle class="st2" cx="1678.7" cy="1813.8" r="10.6"/>
<circle class="st2" cx="1671.4" cy="2118.4" r="10.6"/>
<circle class="st2" cx="1663.6" cy="2421" r="10.6"/>
<circle class="st2" cx="1655.6" cy="2725.7" r="10.6"/>
<circle class="st2" cx="1648.7" cy="3028.3" r="10.6"/>
<circle class="st2" cx="1946.5" cy="274.9" r="10.6"/>
<circle class="st2" cx="1940.5" cy="572.8" r="10.6"/>
<circle class="st2" cx="1933.4" cy="874.8" r="10.6"/>
<circle class="st2" cx="1927.3" cy="1175.5" r="10.6"/>
<circle class="st2" cx="1921.3" cy="1475.9" r="10.6"/>
<circle class="st2" cx="1916.5" cy="1776.8" r="10.6"/>
<circle class="st2" cx="1911.8" cy="2078.3" r="10.6"/>
<circle class="st2" cx="1906.4" cy="2376.6" r="10.6"/>
<circle class="st2" cx="1901.4" cy="2675.3" r="10.6"/>
<circle class="st2" cx="1897.6" cy="2975.6" r="10.6"/>
<circle class="st2" cx="2200" cy="218.2" r="10.6"/>
<circle class="st2" cx="2196.6" cy="513.8" r="10.6"/>
<circle class="st2" cx="2193.3" cy="811.5" r="10.6"/>
<circle class="st2" cx="2190" cy="1108.5" r="10.6"/>
<circle class="st2" cx="2188.9" cy="1404.4" r="10.6"/>
<circle class="st2" cx="2188.1" cy="1694.3" r="10.6"/>
<circle class="st2" cx="2187.1" cy="1990.8" r="10.6"/>
<circle class="st2" cx="2188.7" cy="2292.9" r="10.6"/>
<circle class="st2" cx="2188.7" cy="2594.3" r="10.6"/>
<circle class="st2" cx="2190.8" cy="2890.3" r="10.6"/>
<circle class="st2" cx="2497" cy="133.2" r="10.6"/>
<circle class="st2" cx="2500" cy="428.8" r="10.6"/>
<circle class="st2" cx="2501.8" cy="727.5" r="10.6"/>
<circle class="st2" cx="2505" cy="1025.6" r="10.6"/>
<circle class="st2" cx="2507" cy="1326.8" r="10.6"/>
<circle class="st2" cx="2511.8" cy="1625.8" r="10.6"/>
<circle class="st2" cx="2517" cy="1924.8" r="10.6"/>
<circle class="st2" cx="2521.5" cy="2222.8" r="10.6"/>
<circle class="st2" cx="2525.6" cy="2524.6" r="10.6"/>
<circle class="st2" cx="2532.3" cy="2824.3" r="10.6"/>
<circle class="st2" cx="2844.2" cy="68.8" r="10.6"/>
<circle class="st2" cx="2848.6" cy="369" r="10.6"/>
<circle class="st2" cx="2854.4" cy="669.8" r="10.6"/>
<circle class="st2" cx="2864" cy="970.8" r="10.6"/>
<circle class="st2" cx="2869.6" cy="1272.3" r="10.6"/>
<circle class="st2" cx="2878.5" cy="1576.1" r="10.6"/>
<circle class="st2" cx="2885.4" cy="1879.3" r="10.6"/>
<circle class="st2" cx="2892.2" cy="2183.9" r="10.6"/>
<circle class="st2" cx="2902.5" cy="2488.6" r="10.6"/>
<circle class="st2" cx="2910" cy="2793.8" r="10.6"/>
<circle class="st2" cx="3226.8" cy="47.4" r="12.7"/>
<path class="st1" d="M2922,650.3c68.5,0,124.1,55.6,124.1,124.1s-55.6,124.1-124.1,124.1s-124.1-55.6-124.1-124.1
	c0-44.1,23-82.9,57.7-104.9"/>
<path class="st1" d="M177.2,343.7c0.2,0,0.3,0,0.5,0c5.2,0,10.3,0.3,15.3,0.9"/>
<circle class="st2" cx="3226.8" cy="47.4" r="16.1"/>
<circle class="st3" cx="3226.8" cy="47.4" r="13.6"/>
<path class="st4" d="M3234.8,42.7c0.2,0.2,0.2,0.4,0.2,0.8c0,0.2,0,0.6-0.2,0.8l-7.4,7.4l-1.4,1.4c-0.2,0.2-0.4,0.2-0.8,0.2
	c-0.2,0-0.6,0-0.8-0.2l-1.4-1.4l-3.7-3.7c-0.2-0.2-0.2-0.4-0.2-0.8c0-0.2,0-0.6,0.2-0.8l1.4-1.4c0.2-0.2,0.4-0.2,0.8-0.2
	c0.2,0,0.6,0.2,0.8,0.2l3.1,3.1l6.8-6.8c0.2-0.2,0.4-0.2,0.8-0.2c0.2,0,0.6,0.2,0.8,0.2L3234.8,42.7z"/>
</svg>
