<?xml version="1.0" encoding="utf-8"?>
<!-- Generator: Adobe Illustrator 22.0.1, SVG Export Plug-In . SVG Version: 6.00 Build 0)  -->
<svg version="1.1" id="Layer_1" xmlns="http://www.w3.org/2000/svg" xmlns:xlink="http://www.w3.org/1999/xlink" x="0px" y="0px"
	 viewBox="0 0 175 350" style="enable-background:new 0 0 175 350;" width="175px" height="350px" xml:space="preserve">
<style type="text/css">
	.st0{fill:#FF18BE;}
	.st1{fill:none;stroke:#52B5CC;stroke-width:6;stroke-miterlimit:10;}
	.st2{fill:#FFFFFF;}
	.st3{fill:#6BB3C9;}
	.st4{fill:none;stroke:#52B5CC;stroke-width:3;stroke-miterlimit:10;}
</style>
<circle class="st0" cx="88.1" cy="87" r="71"/>
<circle class="st1" cx="88.1" cy="87" r="79.2"/>
<g>
	<g>
		
			<rect x="58.1" y="55.3" transform="matrix(0.9618 -0.2736 0.2736 0.9618 -12.3946 24.2794)" class="st2" width="45.5" height="2.6"/>
	</g>
	<g>
		<path class="st2" d="M97,35.6c0,0.1,0,0.1,0.1,0.2c1.5,5.1-1.5,10.4-6.6,11.9c-4.8,1.4-9.9-1.3-11.6-5.9c-0.5,0.5-1.2,0.8-1.9,1.1
			C76.3,43,75.7,43,75.1,43c0.9,4.8-2,9.7-6.8,11c-5.1,1.5-10.4-1.5-11.9-6.6c0-0.1-0.1-0.2-0.1-0.3c-0.5,1.1-1.6,2-2.9,2.4
			c-0.5,0.1-0.8,0.2-1.3,0.2l6.2,10.6l43.8-12.5l-0.3-12.2c-0.4,0.2-0.7,0.4-1.2,0.5C99.3,36.3,98.1,36.1,97,35.6z"/>
	</g>
	<path class="st2" d="M55.2,43c-0.1-0.1-0.1-0.2-0.2-0.3c-0.1-0.1-0.2-0.2-0.2-0.3c-0.3-0.3-0.5-0.5-0.8-0.6
		c-0.1-0.1-0.2-0.1-0.3-0.2c-0.1-0.1-0.2-0.1-0.4-0.2c-0.1,0-0.2-0.1-0.4-0.1c-0.6-0.2-1.3-0.2-2,0c-0.6,0.2-1.3,0.5-1.7,1
		c-0.1,0.1-0.2,0.2-0.3,0.3c-0.1,0.1-0.2,0.2-0.2,0.3c-0.1,0.1-0.1,0.2-0.2,0.3c-0.2,0.3-0.3,0.6-0.4,1c0,0.1,0,0.3,0,0.4
		c0,0.1,0,0.3,0,0.4c0,0.3,0.1,0.6,0.2,0.9c0.4,1.4,1.6,2.4,2.9,2.6c0.5,0.1,1.1,0.1,1.6-0.1c1-0.3,1.7-0.9,2.2-1.7
		c0.5-0.8,0.6-1.8,0.4-2.8C55.4,43.5,55.3,43.2,55.2,43z"/>
	<path class="st2" d="M78.5,36c-0.3-0.4-0.6-0.7-1-1c-0.1-0.1-0.2-0.1-0.3-0.2c-0.3-0.1-0.5-0.3-0.8-0.3c-0.5-0.1-1.2-0.1-1.8,0.1
		s-1.3,0.5-1.7,1c-0.1,0.1-0.2,0.2-0.3,0.3c-0.1,0.1-0.2,0.2-0.2,0.3c-0.1,0.1-0.1,0.2-0.2,0.3c-0.2,0.3-0.3,0.6-0.4,1
		c0,0.1,0,0.3,0,0.4c0,0.1,0,0.3,0,0.4c0,0.3,0.1,0.6,0.2,0.9c0.4,1.3,1.4,2.3,2.6,2.6c0.6,0.2,1.3,0.2,1.9,0
		c0.6-0.2,1.2-0.5,1.6-0.9c0.1-0.1,0.2-0.2,0.3-0.3c0,0,0,0,0-0.1c0.1-0.1,0.2-0.3,0.3-0.4c0.1-0.1,0.1-0.2,0.2-0.3
		c0.2-0.5,0.4-0.9,0.4-1.4s0-0.8-0.1-1.3C79,36.7,78.8,36.3,78.5,36z"/>
	<path class="st2" d="M102.4,29.5c-0.1-0.1-0.1-0.2-0.2-0.3c-0.1-0.1-0.2-0.2-0.2-0.3c-0.3-0.3-0.5-0.5-0.8-0.6
		c-0.1-0.1-0.2-0.1-0.3-0.2c-0.3-0.2-0.6-0.3-1-0.4c-0.1,0-0.3,0-0.4,0s-0.3,0-0.4,0c-0.3,0-0.6,0.1-0.9,0.2
		c-0.3,0.1-0.5,0.2-0.8,0.4c-0.1,0.1-0.2,0.1-0.3,0.2c-0.1,0.1-0.2,0.2-0.3,0.2c-0.3,0.3-0.5,0.5-0.6,0.8c-0.1,0.1-0.1,0.2-0.2,0.3
		c-0.2,0.3-0.3,0.6-0.4,1c0,0.1,0,0.3,0,0.4c0,0.1,0,0.3,0,0.4c0,0.3,0.1,0.6,0.2,0.9c0.2,0.6,0.5,1.3,1,1.7
		c0.1,0.1,0.2,0.2,0.3,0.3c0.1,0.1,0.2,0.2,0.3,0.2s0.1,0.1,0.2,0.1c0,0,0.1,0,0.1,0.1c0.3,0.2,0.6,0.3,1,0.4c0.1,0,0.3,0,0.4,0
		s0.3,0,0.4,0c0.3,0,0.6-0.1,0.9-0.2c0.3-0.1,0.5-0.2,0.8-0.4c0.1-0.1,0.2-0.1,0.3-0.2c0.1-0.1,0.2-0.2,0.3-0.2l0,0
		c0.3-0.3,0.5-0.5,0.6-0.8c0.1-0.1,0.1-0.2,0.2-0.3c0.1-0.1,0.1-0.2,0.2-0.4c0-0.1,0.1-0.2,0.1-0.4c0.2-0.6,0.2-1.3,0-2
		C102.7,30,102.6,29.7,102.4,29.5z"/>
</g>
<g>
	<path class="st2" d="M52.3,85.9c0.7,2.3,0.8,4.5,0.4,6.4c-0.3,2-1.2,3.5-2.4,5c-1.3,1.3-3,2.3-5.1,2.9l-5.6,1.5l-1.2-19.2l4.9-1.3
		c2.2-0.7,4.2-0.6,5.7,0.3C50.6,82.1,51.7,83.7,52.3,85.9z M44.5,96.8c1.2-0.3,2.2-1,3-1.9s1.2-2,1.4-3.4c0.2-1.3,0-2.9-0.4-4.4
		c-0.3-1.3-0.9-2.2-1.8-2.6c-0.8-0.5-1.8-0.5-2.9-0.3l-1.4,0.4l0.8,12.5L44.5,96.8z"/>
	<path class="st2" d="M70.8,80.4c0.7,2.3,0.8,4.6,0.6,6.6c-0.3,2.1-1.1,3.8-2.2,5.2c-1.2,1.3-2.6,2.3-4.5,2.8
		c-2.1,0.6-4,0.4-5.5-0.4c-1.5-0.9-2.6-2.4-3.2-4.6c-0.7-2.2-0.8-4.3-0.4-6.4c0.3-2.1,1.1-3.9,2.2-5.2c1.2-1.4,2.8-2.3,4.6-2.9
		c2.1-0.6,4-0.4,5.4,0.4C69.1,76.7,70.2,78.2,70.8,80.4z M62.9,78.7c-1,0.3-1.9,0.9-2.4,1.9c-0.7,1-1,2.2-1.1,3.6s0,3,0.4,4.5
		c0.3,1.2,0.9,2.1,1.5,2.5c0.8,0.4,1.5,0.5,2.6,0.3s1.9-0.9,2.4-1.9c0.7-1,1-2.2,1.1-3.6s-0.1-3-0.6-4.6c-0.3-1.2-0.9-2-1.5-2.5
		C64.6,78.5,63.9,78.4,62.9,78.7z"/>
	<path class="st2" d="M87.6,68.7l0.8,12.4c0.1,2.3-0.3,4.3-1.3,5.7c-1,1.5-2.6,2.5-4.7,3.1c-1.8,0.4-3.3,0.4-4.5-0.2
		c-1.3-0.7-2.1-1.8-2.5-3.4c-0.1-0.5-0.2-1.2-0.3-1.8l-0.8-12.1l3.8-1.1l0.8,12.1c0,0.7,0.1,1.2,0.2,1.6c0.4,1.4,1.4,2,3,1.5
		c1-0.3,1.8-0.8,2.2-1.7s0.6-1.9,0.6-3.2L84,69.7L87.6,68.7z"/>
	<path class="st2" d="M97.3,66.1c1.9-0.6,3.4-0.6,4.6-0.2s2,1.3,2.3,2.6c0.3,1.2,0.3,2.4-0.2,3.4c-0.4,1-1.3,1.8-2.5,2.4v0.1
		c0.9,0,1.7,0.2,2.3,0.7c0.7,0.4,1.1,1.1,1.3,2.1c0.6,1.9,0.3,3.5-0.7,4.9s-2.6,2.4-4.8,3l-6.5,1.7l-1.2-19.2L97.3,66.1z M96.2,74.1
		l1.9-0.5c1-0.3,1.7-0.7,2.1-1.2s0.4-1.2,0.2-2c-0.3-1.1-1.2-1.5-2.6-1.1l-1.9,0.5L96.2,74.1z M96.8,82.3l2.2-0.7
		c1-0.2,1.7-0.8,2.1-1.3c0.4-0.7,0.6-1.4,0.2-2.2c-0.3-1.3-1.3-1.8-2.9-1.4l-2.1,0.5L96.8,82.3z"/>
	<path class="st2" d="M109,82.4L107.8,63l3.9-1.1l1,16l6.4-1.8l0.2,3.4L109,82.4z"/>
	<path class="st2" d="M132.4,76l-10.2,2.9L121,59.5l10.2-2.9l0.2,3.3l-6.4,1.8l0.2,4.2l5.9-1.6l0.2,3.4l-5.9,1.7l0.3,4.9l6.4-1.8
		L132.4,76z"/>
	<path class="st2" d="M64.7,108.1c0.5,2,0.3,3.7-0.8,5.3c-1.1,1.5-2.9,2.6-5.4,3.3l-1.1,0.3l0.4,6.8l-3.9,1.1l-1.2-19.2l4.2-1.2
		c2-0.5,3.6-0.5,5,0.1C63.3,105.1,64.2,106.3,64.7,108.1z M57.3,113.6l0.7-0.2c1.2-0.3,2-0.9,2.5-1.7c0.6-0.8,0.7-1.7,0.3-2.6
		c-0.4-1.5-1.4-2-3.1-1.5l-0.9,0.2L57.3,113.6z"/>
	<path class="st2" d="M82.9,104.3c0.7,2.3,0.8,4.6,0.5,6.6c-0.3,2.1-1.1,3.8-2.2,5.2c-1.2,1.3-2.6,2.3-4.5,2.8
		c-2.1,0.6-4,0.4-5.5-0.4c-1.5-0.9-2.6-2.4-3.2-4.6c-0.7-2.2-0.8-4.3-0.4-6.4c0.3-2.1,1.1-3.9,2.2-5.2c1.2-1.4,2.8-2.3,4.6-2.9
		c2.1-0.6,4-0.4,5.4,0.4C81.2,100.7,82.2,102.2,82.9,104.3z M74.9,102.7c-1,0.3-1.9,0.9-2.4,1.9c-0.7,1-1,2.2-1.1,3.6s0,3,0.4,4.5
		c0.3,1.2,0.9,2.1,1.5,2.5c0.8,0.4,1.5,0.5,2.6,0.3s1.9-0.9,2.4-1.9c0.6-1,1-2.2,1.1-3.6s-0.1-3-0.5-4.6c-0.3-1.2-0.9-2-1.5-2.5
		C76.7,102.5,75.9,102.4,74.9,102.7z"/>
	<path class="st2" d="M87.5,115.7l-1.1-19.2l3.8-1.1l1.1,19.2L87.5,115.7z"/>
	<path class="st2" d="M110.6,109.3l-4.3,1.2L98.1,98H98l0.1,0.4c0.2,1.9,0.4,3.5,0.6,5.1l0.5,9l-3.4,1l-1.2-19.4l4.4-1.2l7.9,12.2
		l0,0c-0.1-0.7-0.1-1.6-0.2-2.9s-0.3-5.1-0.7-11.3l3.4-1L110.6,109.3z"/>
	<path class="st2" d="M121.5,106.3l-3.8,1.1l-1-15.8l-4.4,1.2l-0.2-3.4l12.5-3.5l0.2,3.4l-4.4,1.2L121.5,106.3z"/>
	<path class="st2" d="M138.2,95.9c0.4,1.8,0.2,3.3-0.7,4.6c-1,1.3-2.5,2.3-4.6,2.9c-1.9,0.6-3.4,0.6-4.7,0.1l-1-3.4
		c1.9,0.4,3.4,0.4,4.8,0.1c0.9-0.2,1.7-0.7,2-1.1c0.4-0.6,0.5-1.1,0.3-1.7c-0.1-0.3-0.2-0.7-0.4-0.9c-0.2-0.2-0.4-0.4-0.7-0.7
		c-0.2-0.2-0.9-0.4-1.9-0.9c-1.3-0.5-2.4-1.1-3.1-1.8c-0.7-0.7-1.2-1.4-1.4-2.4c-0.3-1.1-0.3-2.1,0-3.1s0.9-1.9,1.7-2.5
		c0.8-0.8,1.9-1.3,3.1-1.7c1.8-0.5,3.5-0.5,5.3-0.1l-0.6,3.3c-1.4-0.2-2.8-0.2-3.8,0.1c-0.7,0.2-1.2,0.5-1.5,1s-0.4,1.1-0.2,1.7
		c0.1,0.6,0.4,0.9,0.8,1.2c0.3,0.3,1.1,0.7,2.3,1c1.2,0.4,2.1,0.9,2.9,1.5S137.9,94.8,138.2,95.9z"/>
	<path class="st2" d="M96,140.6l-4.2,1.2l-4.6-6.6l-1.3,1.3l0.4,6.9l-3.8,1.1l-1.2-19.2l3.8-1.1l0.6,9.2l1.2-3.1l3.4-7.6l4.5-1.2
		l-4.9,10.8L96,140.6z"/>
	<path class="st2" d="M108.7,123.3c0.5,2,0.3,3.7-0.8,5.3s-2.9,2.6-5.4,3.3l-1.1,0.3l0.4,6.8l-3.8,1.1l-1.2-19.2l4.2-1.2
		c2-0.6,3.6-0.6,4.9,0.1C107.3,120.3,108.2,121.5,108.7,123.3z M101.3,128.8l0.7-0.2c1.2-0.3,2-0.9,2.5-1.6c0.5-0.8,0.7-1.7,0.3-2.6
		c-0.4-1.5-1.4-2-3.1-1.5l-0.9,0.2L101.3,128.8z"/>
	<path class="st2" d="M112.9,136l-1.1-19.2l3.8-1.1l1.1,19.2L112.9,136z"/>
</g>
<g>
	<path class="st3" d="M88.1,335.5c-29.9,0-56.6-19-66.5-47.2c-12.9-36.7,6.5-77,43.2-89.8c7.5-2.6,15.4-4,23.3-4
		c29.9,0,56.6,19,66.5,47.2c6.2,17.8,5.2,36.9-3,53.9s-22.4,29.7-40.2,36C103.8,334.2,96,335.5,88.1,335.5z"/>
	<path class="st2" d="M88.1,195.1c29.7,0,56.2,18.8,66,46.9c12.8,36.4-6.5,76.4-42.9,89.2c-7.5,2.6-15.3,4-23.1,4
		c-29.7,0-56.2-18.8-66-46.9c-6.2-17.6-5.1-36.6,3-53.5s22.3-29.5,39.9-35.7C72.4,196.4,80.2,195.1,88.1,195.1L88.1,195.1
		 M88.1,194.1c-7.8,0-15.7,1.3-23.5,4c-37,13-56.5,53.5-43.5,90.5c10.2,29.2,37.7,47.5,67,47.5c7.8,0,15.7-1.3,23.5-4
		c37-13,56.5-53.5,43.5-90.5C144.8,212.3,117.4,194.1,88.1,194.1L88.1,194.1z"/>
</g>
<circle class="st4" cx="88.1" cy="265" r="79.2"/>
<g>
	<path class="st2" d="M67.6,256.8l-3.9,1.1l-0.5-8.4l-5.8,1.7l0.6,8.4l-3.9,1.1l-1.2-19.2l3.9-1.1l0.4,7.6l5.8-1.7l-0.4-7.6l3.9-1.1
		L67.6,256.8z"/>
	<path class="st2" d="M80.6,248.6l-5.9,1.7l-1,4.9l-4,1.1l4.5-20.9l4.6-1.3l6.9,17.8l-3.7,1L80.6,248.6z M79.5,245.4l-1.5-4.3
		c-0.3-1.1-0.7-2.1-1-3.1l-0.1-0.4c-0.1,1.1-0.2,2.3-0.4,3.5l-1,5.5L79.5,245.4z"/>
	<path class="st2" d="M88,251.2l-1.2-19.4l3.8-1.1l1,15.9l6.4-1.8l0.2,3.4L88,251.2z"/>
	<path class="st2" d="M105.1,246.5l-3.8,1.1l-1.2-19.2l10.1-2.8l0.2,3.3l-6.4,1.8l0.3,5l5.9-1.7l0.2,3.3l-5.9,1.6L105.1,246.5z"/>
	<path class="st2" d="M58.1,272.9c0.6,2,0.3,3.7-0.8,5.3c-1.1,1.5-2.9,2.6-5.4,3.3l-1.1,0.3l0.4,6.8l-3.8,1.1l-1.2-19.2l4.2-1.2
		c2-0.6,3.6-0.6,4.9,0.1C56.7,269.9,57.5,271.1,58.1,272.9z M50.6,278.4l0.7-0.2c1.2-0.3,2-0.9,2.5-1.6c0.5-0.8,0.7-1.6,0.3-2.6
		c-0.4-1.5-1.4-2-3.1-1.5l-0.9,0.2L50.6,278.4z"/>
	<path class="st2" d="M76.2,269.1c0.7,2.3,0.8,4.6,0.5,6.6c-0.3,2.1-1.1,3.9-2.2,5.2c-1.2,1.3-2.6,2.3-4.5,2.8
		c-2.1,0.5-4,0.4-5.5-0.4c-1.5-0.9-2.6-2.4-3.2-4.6c-0.7-2.2-0.8-4.3-0.4-6.4s1.1-3.9,2.2-5.2c1.2-1.4,2.8-2.3,4.6-2.9
		c2.1-0.6,4-0.4,5.4,0.4C74.6,265.5,75.6,267.1,76.2,269.1z M68.2,267.5c-1,0.3-1.9,0.9-2.4,1.9c-0.7,1-1,2.2-1.1,3.6s0,3,0.4,4.5
		c0.3,1.2,0.9,2.1,1.5,2.5c0.8,0.4,1.5,0.6,2.6,0.3c1.1-0.2,1.9-0.9,2.4-1.9s1-2.2,1.1-3.6s-0.1-3-0.5-4.6c-0.3-1.2-0.9-2-1.5-2.5
		C70.1,267.3,69.2,267.2,68.2,267.5z"/>
	<path class="st2" d="M80.9,280.5l-1.1-19.2l3.8-1.1l1.1,19.2L80.9,280.5z"/>
	<path class="st2" d="M104,274.1l-4.3,1.2l-8.2-12.5h-0.1l0.1,0.4c0.2,1.9,0.4,3.5,0.5,5.1l0.6,9l-3.4,1L88,258.9l4.4-1.2l7.9,12.2
		l0,0c-0.1-0.7-0.1-1.6-0.2-2.9c-0.1-1.2-0.3-5.1-0.7-11.3l3.4-1L104,274.1z"/>
	<path class="st2" d="M114.8,271.1l-3.8,1.1l-1-15.8l-4.4,1.2l-0.2-3.4l12.5-3.5l0.2,3.4l-4.4,1.2L114.8,271.1z"/>
	<path class="st2" d="M131.6,260.7c0.4,1.8,0.2,3.3-0.7,4.6c-1,1.3-2.5,2.3-4.6,2.9c-1.9,0.6-3.4,0.6-4.7,0.1l-1-3.4
		c1.9,0.4,3.4,0.4,4.8,0.1c0.9-0.2,1.7-0.7,2-1.1c0.4-0.6,0.6-1.1,0.3-1.7c-0.1-0.3-0.2-0.7-0.4-0.9c-0.2-0.2-0.4-0.4-0.7-0.7
		c-0.2-0.2-0.9-0.4-1.9-0.9c-1.3-0.6-2.4-1.1-3.1-1.8c-0.7-0.7-1.2-1.4-1.4-2.4c-0.3-1.1-0.3-2.1,0-3.1s0.9-1.9,1.6-2.5
		c0.8-0.8,1.9-1.3,3.1-1.7c1.8-0.5,3.5-0.5,5.3-0.1l-0.6,3.3c-1.4-0.2-2.8-0.2-3.9,0.1c-0.7,0.2-1.2,0.6-1.5,1s-0.4,1.1-0.2,1.7
		c0.1,0.6,0.4,0.9,0.8,1.2c0.3,0.3,1.1,0.7,2.3,1c1.2,0.4,2.1,0.9,2.9,1.5C130.8,258.7,131.2,259.6,131.6,260.7z"/>
	<path class="st2" d="M89.3,305.5l-4.2,1.2l-4.6-6.6l-1.3,1.3l0.4,6.9l-3.8,1.1l-1.2-19.2l3.8-1.1l0.6,9.2l1.2-3.1l3.4-7.6l4.5-1.2
		l-4.9,10.8L89.3,305.5z"/>
	<path class="st2" d="M102.1,288.1c0.5,2,0.3,3.7-0.8,5.3c-1.1,1.5-2.9,2.6-5.4,3.3l-1.1,0.3l0.4,6.8l-3.8,1.1l-1.2-19.2l4.2-1.2
		c2-0.6,3.6-0.6,5,0.1C100.7,285.1,101.5,286.3,102.1,288.1z M94.6,293.6l0.7-0.2c1.2-0.3,2-0.9,2.5-1.6c0.5-0.8,0.7-1.7,0.3-2.6
		c-0.4-1.5-1.4-2-3.1-1.5l-0.9,0.2L94.6,293.6z"/>
	<path class="st2" d="M106.3,300.8l-1.1-19.2l3.8-1.1l1.1,19.2L106.3,300.8z"/>
</g>
</svg>
