<?xml version="1.0" encoding="utf-8"?>
<!-- Generator: Adobe Illustrator 22.0.1, SVG Export Plug-In . SVG Version: 6.00 Build 0)  -->
<svg version="1.1" id="Layer_1" xmlns="http://www.w3.org/2000/svg" xmlns:xlink="http://www.w3.org/1999/xlink" x="0px" y="0px"
	 viewBox="0 0 182 6763" style="enable-background:new 0 0 182 6763;" width="182px" height="6763px" xml:space="preserve">
<style type="text/css">
	.st0{fill:#DE355D;}
	.st1{fill:#FFA600;}
	.st2{fill:#72B530;}
	.st3{fill:#52B5CC;stroke:#FFFFFF;stroke-width:3;stroke-miterlimit:10;}
	.st4{fill:#8BC53F;stroke:#FFFFFF;stroke-width:2;stroke-linejoin:bevel;stroke-miterlimit:10;}
	.st5{fill:#FFFFFF;}
	.st6{fill:#4D4D4D;}
	.st7{fill:#66A305;}
	.st8{fill:#EF9506;}
	.st9{fill:#AEAEAE;}
</style>
<g>
	<g>
		<rect x="103.5" y="18.1" class="st0" width="8.7" height="262.8"/>
		<rect x="103.5" y="287.7" class="st1" width="8.7" height="208.9"/>
		<rect x="103.5" y="503.6" class="st2" width="8.7" height="50.2"/>
	</g>
</g>
<g>
	<g>
		<rect x="103.5" y="636.8" class="st0" width="8.7" height="262.8"/>
		<rect x="103.5" y="906.4" class="st1" width="8.7" height="208.9"/>
		<rect x="103.5" y="1122.3" class="st2" width="8.7" height="50.2"/>
	</g>
</g>
<g>
	<g>
		<circle class="st3" cx="107.6" cy="1117.1" r="14.7"/>
	</g>
</g>
<g>
	<g>
		<rect x="103.5" y="1255.5" class="st0" width="8.7" height="262.8"/>
		<rect x="103.5" y="1525.1" class="st1" width="8.7" height="208.9"/>
		<rect x="103.5" y="1741" class="st2" width="8.7" height="50.2"/>
	</g>
</g>
<g>
	<g>
		<circle class="st3" cx="107.6" cy="1681.6" r="14.7"/>
	</g>
</g>
<g>
	<g>
		<rect x="103.5" y="1874.2" class="st0" width="8.7" height="262.8"/>
		<rect x="103.5" y="2143.8" class="st1" width="8.7" height="208.9"/>
		<rect x="103.5" y="2359.7" class="st2" width="8.7" height="50.2"/>
	</g>
</g>
<g>
	<g>
		<circle class="st3" cx="107.6" cy="2246.9" r="14.7"/>
	</g>
</g>
<g>
	<g>
		<rect x="103.5" y="2492.9" class="st0" width="8.7" height="262.8"/>
		<rect x="103.5" y="2762.5" class="st1" width="8.7" height="208.9"/>
		<rect x="103.5" y="2978.4" class="st2" width="8.7" height="50.2"/>
	</g>
</g>
<g>
	<g>
		<circle class="st3" cx="107.6" cy="2812.3" r="14.7"/>
	</g>
</g>
<g>
	<g>
		<rect x="103.5" y="3111.6" class="st0" width="8.7" height="262.8"/>
		<rect x="103.5" y="3381.2" class="st1" width="8.7" height="208.9"/>
		<rect x="103.5" y="3597.1" class="st2" width="8.7" height="50.2"/>
	</g>
</g>
<g>
	<g>
		<circle class="st3" cx="107.6" cy="3377.9" r="14.7"/>
	</g>
</g>
<g>
	<g>
		<rect x="103.5" y="3730.2" class="st0" width="8.7" height="262.8"/>
		<rect x="103.5" y="3999.8" class="st1" width="8.7" height="208.9"/>
		<rect x="103.5" y="4215.7" class="st2" width="8.7" height="50.2"/>
	</g>
</g>
<g>
	<g>
		<circle class="st3" cx="107.6" cy="3942.9" r="14.7"/>
	</g>
</g>
<g>
	<g>
		<rect x="103.5" y="4348.9" class="st0" width="8.7" height="262.8"/>
		<rect x="103.5" y="4618.5" class="st1" width="8.7" height="208.9"/>
		<rect x="103.5" y="4834.4" class="st2" width="8.7" height="50.2"/>
	</g>
</g>
<g>
	<g>
		<circle class="st3" cx="107.6" cy="4508.2" r="14.7"/>
	</g>
</g>
<g>
	<g>
		<rect x="103.5" y="4967.6" class="st0" width="8.7" height="262.8"/>
		<rect x="103.5" y="5237.2" class="st1" width="8.7" height="208.9"/>
		<rect x="103.5" y="5453.1" class="st2" width="8.7" height="50.2"/>
	</g>
</g>
<g>
	<g>
		<circle class="st3" cx="107.6" cy="5073.6" r="14.7"/>
	</g>
</g>
<g>
	<g>
		<rect x="103.5" y="5586.3" class="st0" width="8.7" height="262.8"/>
		<rect x="103.5" y="5855.9" class="st1" width="8.7" height="208.9"/>
		<rect x="103.5" y="6071.8" class="st2" width="8.7" height="50.2"/>
	</g>
</g>
<g>
	<g>
		<circle class="st3" cx="107.6" cy="5638.9" r="14.7"/>
	</g>
</g>
<g>
	<g>
		<rect x="103.5" y="6205" class="st0" width="8.7" height="262.8"/>
		<rect x="103.5" y="6474.6" class="st1" width="8.7" height="208.9"/>
		<rect x="103.5" y="6690.5" class="st2" width="8.7" height="50.2"/>
	</g>
</g>
<g>
	<g>
		<circle class="st3" cx="107.8" cy="6204.1" r="14.7"/>
	</g>
</g>
<g>
	<g>
		<g>
			<circle class="st3" cx="107.6" cy="550.4" r="19.4"/>
		</g>
	</g>
	<circle class="st4" cx="107.6" cy="550.4" r="13.3"/>
	<path class="st5" d="M115.3,546.4c0.1,0.1,0.1,0.4,0.1,0.8c0,0.1,0,0.5-0.1,0.8l-7.5,7.5l-1.4,1.4c-0.1,0.1-0.4,0.1-0.8,0.1
		c-0.1,0-0.5,0-0.8-0.1l-1.4-1.4l-3.7-3.7c-0.1-0.1-0.1-0.4-0.1-0.8c0-0.1,0-0.5,0.1-0.8l1.4-1.4c0.1-0.1,0.4-0.1,0.8-0.1
		c0.1,0,0.5,0.1,0.8,0.1l3.1,3.1l6.9-6.9c0.1-0.1,0.4-0.1,0.8-0.1c0.1,0,0.5,0.1,0.8,0.1L115.3,546.4z"/>
</g>
<g>
	<g>
		<g>
			<path class="st6" d="M161.6,558.9H158V549v-1.7v-1.8c-0.6,0.6-1,1-1.2,1.2l-1.9,1.6l-1.7-2l5.5-4.4h2.9V558.9z"/>
			<path class="st6" d="M178.3,550.4c0,3-0.5,5.2-1.4,6.6c-1,1.4-2.5,2.2-4.6,2.2c-1.9,0-3.5-0.7-4.4-2.3c-1-1.4-1.6-3.7-1.6-6.6
				c0-3,0.5-5.3,1.4-6.7c1.1-1.3,2.5-2,4.6-2c1.9,0,3.5,0.7,4.4,2.3C177.8,545.3,178.3,547.5,178.3,550.4z M169.9,550.4
				c0,2.2,0.2,3.6,0.6,4.6s1,1.3,1.8,1.3s1.4-0.5,1.8-1.4c0.4-1,0.6-2.4,0.6-4.6s-0.2-3.6-0.6-4.6c-0.4-1-1-1.3-1.8-1.3
				s-1.4,0.5-1.8,1.3C170.2,546.8,169.9,548.3,169.9,550.4z"/>
		</g>
	</g>
	<g>
		<path class="st7" d="M166,497.1c0,3.4-0.7,5.9-2.2,7.6c-1.4,1.7-3.6,2.5-6.5,2.5c-1,0-1.8,0-2.3-0.1v-2.9c0.6,0.1,1.3,0.2,2,0.2
			c1.2,0,2.2-0.1,3-0.5s1.3-1,1.8-1.7s0.6-1.8,0.7-3.1h-0.1c-0.5,0.7-1,1.2-1.6,1.6s-1.3,0.5-2.3,0.5c-1.4,0-2.6-0.5-3.5-1.4
			c-0.8-1-1.3-2.3-1.3-4c0-1.8,0.5-3.2,1.6-4.3c1.1-1.1,2.5-1.6,4.2-1.6c1.3,0,2.4,0.2,3.4,0.8s1.7,1.4,2.2,2.6
			C165.7,494.5,166,495.5,166,497.1z M159.8,492.5c-0.7,0-1.3,0.2-1.8,0.7s-0.6,1.2-0.6,2.3c0,0.8,0.2,1.4,0.6,1.9
			c0.4,0.5,1,0.7,1.8,0.7c0.7,0,1.3-0.2,1.9-0.7c0.6-0.5,0.8-1.1,0.8-1.7c0-1-0.2-1.7-0.7-2.4C161.4,492.6,160.6,492.5,159.8,492.5z
			"/>
	</g>
	<g>
		<path class="st8" d="M160.4,282.2c1.7,0,3,0.5,4,1.4s1.4,2.2,1.4,3.8c0,1.9-0.6,3.4-1.8,4.4s-2.9,1.6-5,1.6c-1.9,0-3.5-0.4-4.6-1
			v-3c0.6,0.4,1.3,0.6,2.2,0.8c0.9,0.2,1.6,0.4,2.3,0.4c2.2,0,3.4-1,3.4-2.8c0-1.7-1.2-2.6-3.5-2.6c-0.4,0-0.8,0-1.3,0.1
			s-1,0.1-1.2,0.2l-1.4-0.7l0.6-8.8h9.2v3.1h-6.1l-0.4,3.4l0.4-0.1C159.1,282.3,159.7,282.2,160.4,282.2z"/>
	</g>
	<g>
		<g>
			<path class="st6" d="M165.7,18.5c0,3-0.5,5.2-1.4,6.6c-1,1.4-2.5,2.2-4.6,2.2c-1.9,0-3.5-0.7-4.4-2.3c-1-1.4-1.6-3.7-1.6-6.6
				c0-3,0.5-5.3,1.4-6.7c1-1.4,2.5-2.2,4.6-2.2c1.9,0,3.5,0.7,4.4,2.3C165.1,13.5,165.7,15.6,165.7,18.5z M157.3,18.5
				c0,2.2,0.2,3.6,0.6,4.6c0.4,1,1,1.3,1.8,1.3s1.4-0.5,1.8-1.4c0.4-1,0.6-2.4,0.6-4.6s-0.2-3.6-0.6-4.6s-1-1.3-1.8-1.3
				s-1.4,0.5-1.8,1.3C157.4,14.9,157.3,16.4,157.3,18.5z"/>
		</g>
	</g>
	<rect x="129.4" y="17.2" class="st9" width="10.1" height="2.3"/>
	<rect x="129.4" y="70.5" class="st9" width="10.1" height="2.3"/>
	<rect x="129.4" y="123.9" class="st9" width="10.1" height="2.3"/>
	<rect x="129.4" y="177.3" class="st9" width="10.1" height="2.3"/>
	<rect x="129.4" y="230.7" class="st9" width="10.1" height="2.3"/>
	<rect x="129.4" y="284.1" class="st9" width="10.1" height="2.3"/>
	<rect x="129.4" y="337.5" class="st9" width="10.1" height="2.3"/>
	<rect x="129.4" y="390.9" class="st9" width="10.1" height="2.3"/>
	<rect x="129.4" y="444.3" class="st9" width="10.1" height="2.3"/>
	<rect x="129.4" y="497.7" class="st9" width="10.1" height="2.3"/>
	<rect x="129.4" y="551.1" class="st9" width="10.1" height="2.3"/>
</g>
<g>
	<g>
		<g>
			<path class="st6" d="M161.6,1178H158v-9.9v-1.7v-1.8c-0.6,0.6-1,1-1.2,1.2l-1.9,1.6l-1.7-2l5.5-4.4h2.9V1178z"/>
			<path class="st6" d="M178.3,1169.5c0,3-0.5,5.2-1.4,6.6c-1,1.4-2.5,2.2-4.6,2.2c-1.9,0-3.5-0.7-4.4-2.3c-1-1.4-1.6-3.7-1.6-6.6
				c0-3,0.5-5.3,1.4-6.7c1.1-1.3,2.5-2,4.6-2c1.9,0,3.5,0.7,4.4,2.3C177.8,1164.4,178.3,1166.6,178.3,1169.5z M169.9,1169.5
				c0,2.2,0.2,3.6,0.6,4.6s1,1.3,1.8,1.3s1.4-0.5,1.8-1.4c0.4-1,0.6-2.4,0.6-4.6s-0.2-3.6-0.6-4.6c-0.4-1-1-1.3-1.8-1.3
				s-1.4,0.5-1.8,1.3C170.2,1165.9,169.9,1167.4,169.9,1169.5z"/>
		</g>
	</g>
	<g>
		<path class="st7" d="M166,1116.2c0,3.4-0.7,5.9-2.2,7.6c-1.4,1.7-3.6,2.5-6.5,2.5c-1,0-1.8,0-2.3-0.1v-2.9c0.6,0.1,1.3,0.2,2,0.2
			c1.2,0,2.2-0.1,3-0.5s1.3-1,1.8-1.7s0.6-1.8,0.7-3.1h-0.1c-0.5,0.7-1,1.2-1.6,1.6s-1.3,0.5-2.3,0.5c-1.4,0-2.6-0.5-3.5-1.4
			c-0.8-1-1.3-2.3-1.3-4c0-1.8,0.5-3.2,1.6-4.3c1.1-1.1,2.5-1.6,4.2-1.6c1.3,0,2.4,0.2,3.4,0.8s1.7,1.4,2.2,2.6
			C165.7,1113.6,166,1114.6,166,1116.2z M159.8,1111.6c-0.7,0-1.3,0.2-1.8,0.7s-0.6,1.2-0.6,2.3c0,0.8,0.2,1.4,0.6,1.9
			c0.4,0.5,1,0.7,1.8,0.7c0.7,0,1.3-0.2,1.9-0.7c0.6-0.5,0.8-1.1,0.8-1.7c0-1-0.2-1.7-0.7-2.4
			C161.4,1111.7,160.6,1111.6,159.8,1111.6z"/>
	</g>
	<g>
		<path class="st8" d="M160.4,901.3c1.7,0,3,0.5,4,1.4s1.4,2.2,1.4,3.8c0,1.9-0.6,3.4-1.8,4.4s-2.9,1.6-5,1.6c-1.9,0-3.5-0.4-4.6-1
			v-3c0.6,0.4,1.3,0.6,2.2,0.8s1.6,0.4,2.3,0.4c2.2,0,3.4-1,3.4-2.8c0-1.7-1.2-2.6-3.5-2.6c-0.4,0-0.8,0-1.3,0.1s-1,0.1-1.2,0.2
			l-1.4-0.7l0.6-8.8h9.2v3.1h-6.1l-0.4,3.4l0.4-0.1C159.1,901.4,159.7,901.3,160.4,901.3z"/>
	</g>
	<g>
		<g>
			<path class="st6" d="M165.7,637.6c0,3-0.5,5.2-1.4,6.6c-1,1.4-2.5,2.2-4.6,2.2c-1.9,0-3.5-0.7-4.4-2.3c-1-1.4-1.6-3.7-1.6-6.6
				c0-3,0.5-5.3,1.4-6.7c1-1.4,2.5-2.2,4.6-2.2c1.9,0,3.5,0.7,4.4,2.3C165.1,632.6,165.7,634.7,165.7,637.6z M157.3,637.6
				c0,2.2,0.2,3.6,0.6,4.6c0.4,1,1,1.3,1.8,1.3s1.4-0.5,1.8-1.4c0.4-1,0.6-2.4,0.6-4.6s-0.2-3.6-0.6-4.6s-1-1.3-1.8-1.3
				s-1.4,0.5-1.8,1.3C157.4,634,157.3,635.5,157.3,637.6z"/>
		</g>
	</g>
	<rect x="129.4" y="636.3" class="st9" width="10.1" height="2.3"/>
	<rect x="129.4" y="689.6" class="st9" width="10.1" height="2.3"/>
	<rect x="129.4" y="743" class="st9" width="10.1" height="2.3"/>
	<rect x="129.4" y="796.4" class="st9" width="10.1" height="2.3"/>
	<rect x="129.4" y="849.8" class="st9" width="10.1" height="2.3"/>
	<rect x="129.4" y="903.2" class="st9" width="10.1" height="2.3"/>
	<rect x="129.4" y="956.6" class="st9" width="10.1" height="2.3"/>
	<rect x="129.4" y="1010" class="st9" width="10.1" height="2.3"/>
	<rect x="129.4" y="1063.4" class="st9" width="10.1" height="2.3"/>
	<rect x="129.4" y="1116.8" class="st9" width="10.1" height="2.3"/>
	<rect x="129.4" y="1170.2" class="st9" width="10.1" height="2.3"/>
</g>
<g>
	<g>
		<g>
			<path class="st6" d="M161.6,1795.5H158v-9.9v-1.7v-1.8c-0.6,0.6-1,1-1.2,1.2l-1.9,1.6l-1.7-2l5.5-4.4h2.9V1795.5z"/>
			<path class="st6" d="M178.3,1787c0,3-0.5,5.2-1.4,6.6c-1,1.4-2.5,2.2-4.6,2.2c-1.9,0-3.5-0.7-4.4-2.3c-1-1.4-1.6-3.7-1.6-6.6
				c0-3,0.5-5.3,1.4-6.7c1.1-1.3,2.5-2,4.6-2c1.9,0,3.5,0.7,4.4,2.3C177.8,1781.9,178.3,1784.1,178.3,1787z M169.9,1787
				c0,2.2,0.2,3.6,0.6,4.6s1,1.3,1.8,1.3s1.4-0.5,1.8-1.4c0.4-1,0.6-2.4,0.6-4.6s-0.2-3.6-0.6-4.6c-0.4-1-1-1.3-1.8-1.3
				s-1.4,0.5-1.8,1.3C170.2,1783.4,169.9,1784.9,169.9,1787z"/>
		</g>
	</g>
	<g>
		<path class="st7" d="M166,1733.7c0,3.4-0.7,5.9-2.2,7.6c-1.4,1.7-3.6,2.5-6.5,2.5c-1,0-1.8,0-2.3-0.1v-2.9c0.6,0.1,1.3,0.2,2,0.2
			c1.2,0,2.2-0.1,3-0.5s1.3-1,1.8-1.7s0.6-1.8,0.7-3.1h-0.1c-0.5,0.7-1,1.2-1.6,1.6s-1.3,0.5-2.3,0.5c-1.4,0-2.6-0.5-3.5-1.4
			c-0.8-1-1.3-2.3-1.3-4c0-1.8,0.5-3.2,1.6-4.3s2.5-1.6,4.2-1.6c1.3,0,2.4,0.2,3.4,0.8s1.7,1.4,2.2,2.6
			C165.7,1731.1,166,1732.1,166,1733.7z M159.8,1729.1c-0.7,0-1.3,0.2-1.8,0.7s-0.6,1.2-0.6,2.3c0,0.8,0.2,1.4,0.6,1.9
			c0.4,0.5,1,0.7,1.8,0.7c0.7,0,1.3-0.2,1.9-0.7c0.6-0.5,0.8-1.1,0.8-1.7c0-1-0.2-1.7-0.7-2.4
			C161.4,1729.2,160.6,1729.1,159.8,1729.1z"/>
	</g>
	<g>
		<path class="st8" d="M160.4,1518.8c1.7,0,3,0.5,4,1.4s1.4,2.2,1.4,3.8c0,1.9-0.6,3.4-1.8,4.4s-2.9,1.6-5,1.6c-1.9,0-3.5-0.4-4.6-1
			v-3c0.6,0.4,1.3,0.6,2.2,0.8s1.6,0.4,2.3,0.4c2.2,0,3.4-1,3.4-2.8c0-1.7-1.2-2.6-3.5-2.6c-0.4,0-0.8,0-1.3,0.1s-1,0.1-1.2,0.2
			l-1.4-0.7l0.6-8.8h9.2v3.1h-6.1l-0.4,3.4l0.4-0.1C159.1,1518.9,159.7,1518.8,160.4,1518.8z"/>
	</g>
	<g>
		<g>
			<path class="st6" d="M165.7,1255.1c0,3-0.5,5.2-1.4,6.6c-1,1.4-2.5,2.2-4.6,2.2c-1.9,0-3.5-0.7-4.4-2.3c-1-1.4-1.6-3.7-1.6-6.6
				c0-3,0.5-5.3,1.4-6.7c1-1.4,2.5-2.2,4.6-2.2c1.9,0,3.5,0.7,4.4,2.3C165.1,1250.1,165.7,1252.2,165.7,1255.1z M157.3,1255.1
				c0,2.2,0.2,3.6,0.6,4.6c0.4,1,1,1.3,1.8,1.3s1.4-0.5,1.8-1.4c0.4-1,0.6-2.4,0.6-4.6s-0.2-3.6-0.6-4.6s-1-1.3-1.8-1.3
				s-1.4,0.5-1.8,1.3C157.4,1251.5,157.3,1253,157.3,1255.1z"/>
		</g>
	</g>
	<rect x="129.4" y="1253.8" class="st9" width="10.1" height="2.3"/>
	<rect x="129.4" y="1307.1" class="st9" width="10.1" height="2.3"/>
	<rect x="129.4" y="1360.5" class="st9" width="10.1" height="2.3"/>
	<rect x="129.4" y="1413.9" class="st9" width="10.1" height="2.3"/>
	<rect x="129.4" y="1467.3" class="st9" width="10.1" height="2.3"/>
	<rect x="129.4" y="1520.7" class="st9" width="10.1" height="2.3"/>
	<rect x="129.4" y="1574.1" class="st9" width="10.1" height="2.3"/>
	<rect x="129.4" y="1627.5" class="st9" width="10.1" height="2.3"/>
	<rect x="129.4" y="1680.9" class="st9" width="10.1" height="2.3"/>
	<rect x="129.4" y="1734.3" class="st9" width="10.1" height="2.3"/>
	<rect x="129.4" y="1787.7" class="st9" width="10.1" height="2.3"/>
</g>
<g>
	<g>
		<g>
			<path class="st6" d="M161.6,2414.4H158v-9.9v-1.7v-1.8c-0.6,0.6-1,1-1.2,1.2l-1.9,1.6l-1.7-2l5.5-4.4h2.9V2414.4z"/>
			<path class="st6" d="M178.3,2405.9c0,3-0.5,5.2-1.4,6.6c-1,1.4-2.5,2.2-4.6,2.2c-1.9,0-3.5-0.7-4.4-2.3c-1-1.4-1.6-3.7-1.6-6.6
				c0-3,0.5-5.3,1.4-6.7c1.1-1.3,2.5-2,4.6-2c1.9,0,3.5,0.7,4.4,2.3C177.8,2400.7,178.3,2402.9,178.3,2405.9z M169.9,2405.9
				c0,2.2,0.2,3.6,0.6,4.6s1,1.3,1.8,1.3s1.4-0.5,1.8-1.4c0.4-1,0.6-2.4,0.6-4.6s-0.2-3.6-0.6-4.6c-0.4-1-1-1.3-1.8-1.3
				s-1.4,0.5-1.8,1.3C170.2,2402.2,169.9,2403.7,169.9,2405.9z"/>
		</g>
	</g>
	<g>
		<path class="st7" d="M166,2352.5c0,3.4-0.7,5.9-2.2,7.6c-1.4,1.7-3.6,2.5-6.5,2.5c-1,0-1.8,0-2.3-0.1v-2.9c0.6,0.1,1.3,0.2,2,0.2
			c1.2,0,2.2-0.1,3-0.5s1.3-1,1.8-1.7s0.6-1.8,0.7-3.1h-0.1c-0.5,0.7-1,1.2-1.6,1.6c-0.6,0.4-1.3,0.5-2.3,0.5
			c-1.4,0-2.6-0.5-3.5-1.4c-0.8-1-1.3-2.3-1.3-4c0-1.8,0.5-3.2,1.6-4.3s2.5-1.6,4.2-1.6c1.3,0,2.4,0.2,3.4,0.8s1.7,1.4,2.2,2.6
			C165.7,2349.9,166,2350.9,166,2352.5z M159.8,2347.9c-0.7,0-1.3,0.2-1.8,0.7s-0.6,1.2-0.6,2.3c0,0.8,0.2,1.4,0.6,1.9
			c0.4,0.5,1,0.7,1.8,0.7c0.7,0,1.3-0.2,1.9-0.7c0.6-0.5,0.8-1.1,0.8-1.7c0-1-0.2-1.7-0.7-2.4C161.4,2348,160.6,2347.9,159.8,2347.9
			z"/>
	</g>
	<g>
		<path class="st8" d="M160.4,2137.6c1.7,0,3,0.5,4,1.4s1.4,2.2,1.4,3.8c0,1.9-0.6,3.4-1.8,4.4s-2.9,1.6-5,1.6c-1.9,0-3.5-0.4-4.6-1
			v-3c0.6,0.4,1.3,0.6,2.2,0.8s1.6,0.4,2.3,0.4c2.2,0,3.4-1,3.4-2.8c0-1.7-1.2-2.6-3.5-2.6c-0.4,0-0.8,0-1.3,0.1s-1,0.1-1.2,0.2
			l-1.4-0.7l0.6-8.8h9.2v3.1h-6.1l-0.4,3.4l0.4-0.1C159.1,2137.7,159.7,2137.6,160.4,2137.6z"/>
	</g>
	<g>
		<g>
			<path class="st6" d="M165.7,1873.9c0,3-0.5,5.2-1.4,6.6c-1,1.4-2.5,2.2-4.6,2.2c-1.9,0-3.5-0.7-4.4-2.3c-1-1.4-1.6-3.7-1.6-6.6
				c0-3,0.5-5.3,1.4-6.7c1-1.4,2.5-2.2,4.6-2.2c1.9,0,3.5,0.7,4.4,2.3C165.1,1868.9,165.7,1871,165.7,1873.9z M157.3,1873.9
				c0,2.2,0.2,3.6,0.6,4.6c0.4,1,1,1.3,1.8,1.3s1.4-0.5,1.8-1.4c0.4-1,0.6-2.4,0.6-4.6s-0.2-3.6-0.6-4.6s-1-1.3-1.8-1.3
				s-1.4,0.5-1.8,1.3C157.4,1870.3,157.3,1871.8,157.3,1873.9z"/>
		</g>
	</g>
	<rect x="129.4" y="1872.6" class="st9" width="10.1" height="2.3"/>
	<rect x="129.4" y="1925.9" class="st9" width="10.1" height="2.3"/>
	<rect x="129.4" y="1979.3" class="st9" width="10.1" height="2.3"/>
	<rect x="129.4" y="2032.7" class="st9" width="10.1" height="2.3"/>
	<rect x="129.4" y="2086.1" class="st9" width="10.1" height="2.3"/>
	<rect x="129.4" y="2139.5" class="st9" width="10.1" height="2.3"/>
	<rect x="129.4" y="2192.9" class="st9" width="10.1" height="2.3"/>
	<rect x="129.4" y="2246.3" class="st9" width="10.1" height="2.3"/>
	<rect x="129.4" y="2299.7" class="st9" width="10.1" height="2.3"/>
	<rect x="129.4" y="2353.1" class="st9" width="10.1" height="2.3"/>
	<rect x="129.4" y="2406.5" class="st9" width="10.1" height="2.3"/>
</g>
<g>
	<g>
		<g>
			<path class="st6" d="M161.6,3033H158v-9.9v-1.7v-1.8c-0.6,0.6-1,1-1.2,1.2l-1.9,1.6l-1.7-2l5.5-4.4h2.9V3033z"/>
			<path class="st6" d="M178.3,3024.5c0,3-0.5,5.2-1.4,6.6c-1,1.4-2.5,2.2-4.6,2.2c-1.9,0-3.5-0.7-4.4-2.3c-1-1.4-1.6-3.7-1.6-6.6
				c0-3,0.5-5.3,1.4-6.7c1.1-1.3,2.5-2,4.6-2c1.9,0,3.5,0.7,4.4,2.3C177.8,3019.4,178.3,3021.6,178.3,3024.5z M169.9,3024.5
				c0,2.2,0.2,3.6,0.6,4.6s1,1.3,1.8,1.3s1.4-0.5,1.8-1.4c0.4-1,0.6-2.4,0.6-4.6s-0.2-3.6-0.6-4.6c-0.4-1-1-1.3-1.8-1.3
				s-1.4,0.5-1.8,1.3C170.2,3020.9,169.9,3022.4,169.9,3024.5z"/>
		</g>
	</g>
	<g>
		<path class="st7" d="M166,2971.2c0,3.4-0.7,5.9-2.2,7.6c-1.4,1.7-3.6,2.5-6.5,2.5c-1,0-1.8,0-2.3-0.1v-2.9c0.6,0.1,1.3,0.2,2,0.2
			c1.2,0,2.2-0.1,3-0.5s1.3-1,1.8-1.7s0.6-1.8,0.7-3.1h-0.1c-0.5,0.7-1,1.2-1.6,1.6s-1.3,0.5-2.3,0.5c-1.4,0-2.6-0.5-3.5-1.4
			c-0.8-1-1.3-2.3-1.3-4c0-1.8,0.5-3.2,1.6-4.3s2.5-1.6,4.2-1.6c1.3,0,2.4,0.2,3.4,0.8s1.7,1.4,2.2,2.6
			C165.7,2968.6,166,2969.6,166,2971.2z M159.8,2966.6c-0.7,0-1.3,0.2-1.8,0.7s-0.6,1.2-0.6,2.3c0,0.8,0.2,1.4,0.6,1.9
			c0.4,0.5,1,0.7,1.8,0.7c0.7,0,1.3-0.2,1.9-0.7c0.6-0.5,0.8-1.1,0.8-1.7c0-1-0.2-1.7-0.7-2.4
			C161.4,2966.7,160.6,2966.6,159.8,2966.6z"/>
	</g>
	<g>
		<path class="st8" d="M160.4,2756.3c1.7,0,3,0.5,4,1.4s1.4,2.2,1.4,3.8c0,1.9-0.6,3.4-1.8,4.4s-2.9,1.6-5,1.6c-1.9,0-3.5-0.4-4.6-1
			v-3c0.6,0.4,1.3,0.6,2.2,0.8s1.6,0.4,2.3,0.4c2.2,0,3.4-1,3.4-2.8c0-1.7-1.2-2.6-3.5-2.6c-0.4,0-0.8,0-1.3,0.1s-1,0.1-1.2,0.2
			l-1.4-0.7l0.6-8.8h9.2v3.1h-6.1l-0.4,3.4l0.4-0.1C159.1,2756.4,159.7,2756.3,160.4,2756.3z"/>
	</g>
	<g>
		<g>
			<path class="st6" d="M165.7,2492.6c0,3-0.5,5.2-1.4,6.6c-1,1.4-2.5,2.2-4.6,2.2c-1.9,0-3.5-0.7-4.4-2.3c-1-1.4-1.6-3.7-1.6-6.6
				c0-3,0.5-5.3,1.4-6.7c1-1.4,2.5-2.2,4.6-2.2c1.9,0,3.5,0.7,4.4,2.3C165.1,2487.6,165.7,2489.7,165.7,2492.6z M157.3,2492.6
				c0,2.2,0.2,3.6,0.6,4.6c0.4,1,1,1.3,1.8,1.3s1.4-0.5,1.8-1.4c0.4-1,0.6-2.4,0.6-4.6c0-2.2-0.2-3.6-0.6-4.6s-1-1.3-1.8-1.3
				s-1.4,0.5-1.8,1.3C157.4,2489,157.3,2490.5,157.3,2492.6z"/>
		</g>
	</g>
	<rect x="129.4" y="2491.3" class="st9" width="10.1" height="2.3"/>
	<rect x="129.4" y="2544.6" class="st9" width="10.1" height="2.3"/>
	<rect x="129.4" y="2598" class="st9" width="10.1" height="2.3"/>
	<rect x="129.4" y="2651.4" class="st9" width="10.1" height="2.3"/>
	<rect x="129.4" y="2704.8" class="st9" width="10.1" height="2.3"/>
	<rect x="129.4" y="2758.2" class="st9" width="10.1" height="2.3"/>
	<rect x="129.4" y="2811.6" class="st9" width="10.1" height="2.3"/>
	<rect x="129.4" y="2865" class="st9" width="10.1" height="2.3"/>
	<rect x="129.4" y="2918.4" class="st9" width="10.1" height="2.3"/>
	<rect x="129.4" y="2971.8" class="st9" width="10.1" height="2.3"/>
	<rect x="129.4" y="3025.2" class="st9" width="10.1" height="2.3"/>
</g>
<g>
	<g>
		<g>
			<path class="st6" d="M161.6,3652.2H158v-9.9v-1.7v-1.8c-0.6,0.6-1,1-1.2,1.2l-1.9,1.6l-1.7-2l5.5-4.4h2.9V3652.2z"/>
			<path class="st6" d="M178.3,3643.7c0,3-0.5,5.2-1.4,6.6c-1,1.4-2.5,2.2-4.6,2.2c-1.9,0-3.5-0.7-4.4-2.3c-1-1.4-1.6-3.7-1.6-6.6
				c0-3,0.5-5.3,1.4-6.7c1.1-1.3,2.5-2,4.6-2c1.9,0,3.5,0.7,4.4,2.3C177.8,3638.6,178.3,3640.8,178.3,3643.7z M169.9,3643.7
				c0,2.2,0.2,3.6,0.6,4.6s1,1.3,1.8,1.3s1.4-0.5,1.8-1.4c0.4-1,0.6-2.4,0.6-4.6s-0.2-3.6-0.6-4.6c-0.4-1-1-1.3-1.8-1.3
				s-1.4,0.5-1.8,1.3C170.2,3640.1,169.9,3641.6,169.9,3643.7z"/>
		</g>
	</g>
	<g>
		<path class="st7" d="M166,3590.4c0,3.4-0.7,5.9-2.2,7.6c-1.4,1.7-3.6,2.5-6.5,2.5c-1,0-1.8,0-2.3-0.1v-2.9c0.6,0.1,1.3,0.2,2,0.2
			c1.2,0,2.2-0.1,3-0.5s1.3-1,1.8-1.7s0.6-1.8,0.7-3.1h-0.1c-0.5,0.7-1,1.2-1.6,1.6c-0.6,0.4-1.3,0.5-2.3,0.5
			c-1.4,0-2.6-0.5-3.5-1.4c-0.8-1-1.3-2.3-1.3-4c0-1.8,0.5-3.2,1.6-4.3s2.5-1.6,4.2-1.6c1.3,0,2.4,0.2,3.4,0.8s1.7,1.4,2.2,2.6
			C165.7,3587.7,166,3588.7,166,3590.4z M159.8,3585.7c-0.7,0-1.3,0.2-1.8,0.7s-0.6,1.2-0.6,2.3c0,0.8,0.2,1.4,0.6,1.9
			c0.4,0.5,1,0.7,1.8,0.7c0.7,0,1.3-0.2,1.9-0.7c0.6-0.5,0.8-1.1,0.8-1.7c0-1-0.2-1.7-0.7-2.4
			C161.4,3585.9,160.6,3585.7,159.8,3585.7z"/>
	</g>
	<g>
		<path class="st8" d="M160.4,3375.5c1.7,0,3,0.5,4,1.4s1.4,2.2,1.4,3.8c0,1.9-0.6,3.4-1.8,4.4s-2.9,1.6-5,1.6c-1.9,0-3.5-0.4-4.6-1
			v-3c0.6,0.4,1.3,0.6,2.2,0.8s1.6,0.4,2.3,0.4c2.2,0,3.4-1,3.4-2.8c0-1.7-1.2-2.6-3.5-2.6c-0.4,0-0.8,0-1.3,0.1s-1,0.1-1.2,0.2
			l-1.4-0.7l0.6-8.8h9.2v3.1h-6.1l-0.4,3.4l0.4-0.1C159.1,3375.5,159.7,3375.5,160.4,3375.5z"/>
	</g>
	<g>
		<g>
			<path class="st6" d="M165.7,3111.7c0,3-0.5,5.2-1.4,6.6c-1,1.4-2.5,2.2-4.6,2.2c-1.9,0-3.5-0.7-4.4-2.3c-1-1.4-1.6-3.7-1.6-6.6
				c0-3,0.5-5.3,1.4-6.7c1-1.4,2.5-2.2,4.6-2.2c1.9,0,3.5,0.7,4.4,2.3C165.1,3106.7,165.7,3108.9,165.7,3111.7z M157.3,3111.7
				c0,2.2,0.2,3.6,0.6,4.6c0.4,1,1,1.3,1.8,1.3s1.4-0.5,1.8-1.4c0.4-1,0.6-2.4,0.6-4.6s-0.2-3.6-0.6-4.6s-1-1.3-1.8-1.3
				s-1.4,0.5-1.8,1.3C157.4,3108.2,157.3,3109.7,157.3,3111.7z"/>
		</g>
	</g>
	<rect x="129.4" y="3110.4" class="st9" width="10.1" height="2.3"/>
	<rect x="129.4" y="3163.7" class="st9" width="10.1" height="2.3"/>
	<rect x="129.4" y="3217.1" class="st9" width="10.1" height="2.3"/>
	<rect x="129.4" y="3270.5" class="st9" width="10.1" height="2.3"/>
	<rect x="129.4" y="3323.9" class="st9" width="10.1" height="2.3"/>
	<rect x="129.4" y="3377.3" class="st9" width="10.1" height="2.3"/>
	<rect x="129.4" y="3430.7" class="st9" width="10.1" height="2.3"/>
	<rect x="129.4" y="3484.1" class="st9" width="10.1" height="2.3"/>
	<rect x="129.4" y="3537.5" class="st9" width="10.1" height="2.3"/>
	<rect x="129.4" y="3590.9" class="st9" width="10.1" height="2.3"/>
	<rect x="129.4" y="3644.3" class="st9" width="10.1" height="2.3"/>
</g>
<g>
	<g>
		<g>
			<path class="st6" d="M161.6,4270.8H158v-9.9v-1.7v-1.8c-0.6,0.6-1,1-1.2,1.2l-1.9,1.6l-1.7-2l5.5-4.4h2.9V4270.8z"/>
			<path class="st6" d="M178.3,4262.3c0,3-0.5,5.2-1.4,6.6c-1,1.4-2.5,2.2-4.6,2.2c-1.9,0-3.5-0.7-4.4-2.3c-1-1.4-1.6-3.7-1.6-6.6
				c0-3,0.5-5.3,1.4-6.7c1.1-1.3,2.5-2,4.6-2c1.9,0,3.5,0.7,4.4,2.3C177.8,4257.2,178.3,4259.3,178.3,4262.3z M169.9,4262.3
				c0,2.2,0.2,3.6,0.6,4.6s1,1.3,1.8,1.3s1.4-0.5,1.8-1.4c0.4-1,0.6-2.4,0.6-4.6s-0.2-3.6-0.6-4.6c-0.4-1-1-1.3-1.8-1.3
				s-1.4,0.5-1.8,1.3C170.2,4258.7,169.9,4260.2,169.9,4262.3z"/>
		</g>
	</g>
	<g>
		<path class="st7" d="M166,4208.9c0,3.4-0.7,5.9-2.2,7.6c-1.4,1.7-3.6,2.5-6.5,2.5c-1,0-1.8,0-2.3-0.1v-2.9c0.6,0.1,1.3,0.2,2,0.2
			c1.2,0,2.2-0.1,3-0.5c0.8-0.4,1.3-1,1.8-1.7s0.6-1.8,0.7-3.1h-0.1c-0.5,0.7-1,1.2-1.6,1.6c-0.6,0.4-1.3,0.5-2.3,0.5
			c-1.4,0-2.6-0.5-3.5-1.4c-0.8-1-1.3-2.3-1.3-4c0-1.8,0.5-3.2,1.6-4.3s2.5-1.6,4.2-1.6c1.3,0,2.4,0.2,3.4,0.8s1.7,1.4,2.2,2.6
			C165.7,4206.3,166,4207.3,166,4208.9z M159.8,4204.3c-0.7,0-1.3,0.2-1.8,0.7s-0.6,1.2-0.6,2.3c0,0.8,0.2,1.4,0.6,1.9
			c0.4,0.5,1,0.7,1.8,0.7c0.7,0,1.3-0.2,1.9-0.7c0.6-0.5,0.8-1.1,0.8-1.7c0-1-0.2-1.7-0.7-2.4
			C161.4,4204.4,160.6,4204.3,159.8,4204.3z"/>
	</g>
	<g>
		<path class="st8" d="M160.4,3994.1c1.7,0,3,0.5,4,1.4s1.4,2.2,1.4,3.8c0,1.9-0.6,3.4-1.8,4.4s-2.9,1.6-5,1.6c-1.9,0-3.5-0.4-4.6-1
			v-3c0.6,0.4,1.3,0.6,2.2,0.8s1.6,0.4,2.3,0.4c2.2,0,3.4-1,3.4-2.8c0-1.7-1.2-2.6-3.5-2.6c-0.4,0-0.8,0-1.3,0.1s-1,0.1-1.2,0.2
			l-1.4-0.7l0.6-8.8h9.2v3.1h-6.1l-0.4,3.4l0.4-0.1C159.1,3994.1,159.7,3994.1,160.4,3994.1z"/>
	</g>
	<g>
		<g>
			<path class="st6" d="M165.7,3730.3c0,3-0.5,5.2-1.4,6.6c-1,1.4-2.5,2.2-4.6,2.2c-1.9,0-3.5-0.7-4.4-2.3c-1-1.4-1.6-3.7-1.6-6.6
				c0-3,0.5-5.3,1.4-6.7c1-1.4,2.5-2.2,4.6-2.2c1.9,0,3.5,0.7,4.4,2.3C165.1,3725.3,165.7,3727.4,165.7,3730.3z M157.3,3730.3
				c0,2.2,0.2,3.6,0.6,4.6c0.4,1,1,1.3,1.8,1.3s1.4-0.5,1.8-1.4c0.4-1,0.6-2.4,0.6-4.6s-0.2-3.6-0.6-4.6s-1-1.3-1.8-1.3
				s-1.4,0.5-1.8,1.3C157.4,3726.7,157.3,3728.2,157.3,3730.3z"/>
		</g>
	</g>
	<rect x="129.4" y="3729" class="st9" width="10.1" height="2.3"/>
	<rect x="129.4" y="3782.3" class="st9" width="10.1" height="2.3"/>
	<rect x="129.4" y="3835.7" class="st9" width="10.1" height="2.3"/>
	<rect x="129.4" y="3889.1" class="st9" width="10.1" height="2.3"/>
	<rect x="129.4" y="3942.5" class="st9" width="10.1" height="2.3"/>
	<rect x="129.4" y="3995.9" class="st9" width="10.1" height="2.3"/>
	<rect x="129.4" y="4049.3" class="st9" width="10.1" height="2.3"/>
	<rect x="129.4" y="4102.7" class="st9" width="10.1" height="2.3"/>
	<rect x="129.4" y="4156.1" class="st9" width="10.1" height="2.3"/>
	<rect x="129.4" y="4209.5" class="st9" width="10.1" height="2.3"/>
	<rect x="129.4" y="4262.9" class="st9" width="10.1" height="2.3"/>
</g>
<g>
	<g>
		<g>
			<path class="st6" d="M161.6,4889.6H158v-9.9v-1.7v-1.8c-0.6,0.6-1,1-1.2,1.2l-1.9,1.6l-1.7-2l5.5-4.4h2.9V4889.6z"/>
			<path class="st6" d="M178.3,4881.1c0,3-0.5,5.2-1.4,6.6c-1,1.4-2.5,2.2-4.6,2.2c-1.9,0-3.5-0.7-4.4-2.3c-1-1.4-1.6-3.7-1.6-6.6
				c0-3,0.5-5.3,1.4-6.7c1.1-1.3,2.5-2,4.6-2c1.9,0,3.5,0.7,4.4,2.3C177.8,4876,178.3,4878.2,178.3,4881.1z M169.9,4881.1
				c0,2.2,0.2,3.6,0.6,4.6s1,1.3,1.8,1.3s1.4-0.5,1.8-1.4c0.4-1,0.6-2.4,0.6-4.6s-0.2-3.6-0.6-4.6c-0.4-1-1-1.3-1.8-1.3
				s-1.4,0.5-1.8,1.3C170.2,4877.5,169.9,4879,169.9,4881.1z"/>
		</g>
	</g>
	<g>
		<path class="st7" d="M166,4827.8c0,3.4-0.7,5.9-2.2,7.6c-1.4,1.7-3.6,2.5-6.5,2.5c-1,0-1.8,0-2.3-0.1v-2.9c0.6,0.1,1.3,0.2,2,0.2
			c1.2,0,2.2-0.1,3-0.5c0.8-0.4,1.3-1,1.8-1.7s0.6-1.8,0.7-3.1h-0.1c-0.5,0.7-1,1.2-1.6,1.6c-0.6,0.4-1.3,0.5-2.3,0.5
			c-1.4,0-2.6-0.5-3.5-1.4c-0.8-1-1.3-2.3-1.3-4c0-1.8,0.5-3.2,1.6-4.3s2.5-1.6,4.2-1.6c1.3,0,2.4,0.2,3.4,0.8s1.7,1.4,2.2,2.6
			C165.7,4825.2,166,4826.2,166,4827.8z M159.8,4823.2c-0.7,0-1.3,0.2-1.8,0.7s-0.6,1.2-0.6,2.3c0,0.8,0.2,1.4,0.6,1.9
			c0.4,0.5,1,0.7,1.8,0.7c0.7,0,1.3-0.2,1.9-0.7c0.6-0.5,0.8-1.1,0.8-1.7c0-1-0.2-1.7-0.7-2.4
			C161.4,4823.3,160.6,4823.2,159.8,4823.2z"/>
	</g>
	<g>
		<path class="st8" d="M160.4,4612.9c1.7,0,3,0.5,4,1.4c1,0.9,1.4,2.2,1.4,3.8c0,1.9-0.6,3.4-1.8,4.4s-2.9,1.6-5,1.6
			c-1.9,0-3.5-0.4-4.6-1v-3c0.6,0.4,1.3,0.6,2.2,0.8c0.9,0.2,1.6,0.4,2.3,0.4c2.2,0,3.4-1,3.4-2.8c0-1.7-1.2-2.6-3.5-2.6
			c-0.4,0-0.8,0-1.3,0.1c-0.5,0.1-1,0.1-1.2,0.2l-1.4-0.7l0.6-8.8h9.2v3.1h-6.1l-0.4,3.4l0.4-0.1
			C159.1,4613,159.7,4612.9,160.4,4612.9z"/>
	</g>
	<g>
		<g>
			<path class="st6" d="M165.7,4349.2c0,3-0.5,5.2-1.4,6.6c-1,1.4-2.5,2.2-4.6,2.2c-1.9,0-3.5-0.7-4.4-2.3c-1-1.4-1.6-3.7-1.6-6.6
				c0-3,0.5-5.3,1.4-6.7c1-1.4,2.5-2.2,4.6-2.2c1.9,0,3.5,0.7,4.4,2.3C165.1,4344.2,165.7,4346.3,165.7,4349.2z M157.3,4349.2
				c0,2.2,0.2,3.6,0.6,4.6c0.4,1,1,1.3,1.8,1.3s1.4-0.5,1.8-1.4c0.4-1,0.6-2.4,0.6-4.6s-0.2-3.6-0.6-4.6s-1-1.3-1.8-1.3
				s-1.4,0.5-1.8,1.3C157.4,4345.6,157.3,4347.1,157.3,4349.2z"/>
		</g>
	</g>
	<rect x="129.4" y="4347.9" class="st9" width="10.1" height="2.3"/>
	<rect x="129.4" y="4401.2" class="st9" width="10.1" height="2.3"/>
	<rect x="129.4" y="4454.6" class="st9" width="10.1" height="2.3"/>
	<rect x="129.4" y="4508" class="st9" width="10.1" height="2.3"/>
	<rect x="129.4" y="4561.4" class="st9" width="10.1" height="2.3"/>
	<rect x="129.4" y="4614.8" class="st9" width="10.1" height="2.3"/>
	<rect x="129.4" y="4668.2" class="st9" width="10.1" height="2.3"/>
	<rect x="129.4" y="4721.6" class="st9" width="10.1" height="2.3"/>
	<rect x="129.4" y="4775" class="st9" width="10.1" height="2.3"/>
	<rect x="129.4" y="4828.4" class="st9" width="10.1" height="2.3"/>
	<rect x="129.4" y="4881.8" class="st9" width="10.1" height="2.3"/>
</g>
<g>
	<g>
		<g>
			<path class="st6" d="M161.6,5508.3H158v-9.9v-1.7v-1.8c-0.6,0.6-1,1-1.2,1.2l-1.9,1.6l-1.7-2l5.5-4.4h2.9V5508.3z"/>
			<path class="st6" d="M178.3,5499.8c0,3-0.5,5.2-1.4,6.6c-1,1.4-2.5,2.2-4.6,2.2c-1.9,0-3.5-0.7-4.4-2.3c-1-1.4-1.6-3.7-1.6-6.6
				c0-3,0.5-5.3,1.4-6.7c1.1-1.3,2.5-2,4.6-2c1.9,0,3.5,0.7,4.4,2.3C177.8,5494.7,178.3,5496.9,178.3,5499.8z M169.9,5499.8
				c0,2.2,0.2,3.6,0.6,4.6s1,1.3,1.8,1.3s1.4-0.5,1.8-1.4c0.4-1,0.6-2.4,0.6-4.6s-0.2-3.6-0.6-4.6c-0.4-1-1-1.3-1.8-1.3
				s-1.4,0.5-1.8,1.3C170.2,5496.2,169.9,5497.7,169.9,5499.8z"/>
		</g>
	</g>
	<g>
		<path class="st7" d="M166,5446.5c0,3.4-0.7,5.9-2.2,7.6c-1.4,1.7-3.6,2.5-6.5,2.5c-1,0-1.8,0-2.3-0.1v-2.9c0.6,0.1,1.3,0.2,2,0.2
			c1.2,0,2.2-0.1,3-0.5c0.8-0.4,1.3-1,1.8-1.7s0.6-1.8,0.7-3.1h-0.1c-0.5,0.7-1,1.2-1.6,1.6c-0.6,0.4-1.3,0.5-2.3,0.5
			c-1.4,0-2.6-0.5-3.5-1.4c-0.8-1-1.3-2.3-1.3-4c0-1.8,0.5-3.2,1.6-4.3s2.5-1.6,4.2-1.6c1.3,0,2.4,0.2,3.4,0.8s1.7,1.4,2.2,2.6
			C165.7,5443.9,166,5444.9,166,5446.5z M159.8,5441.9c-0.7,0-1.3,0.2-1.8,0.7s-0.6,1.2-0.6,2.3c0,0.8,0.2,1.4,0.6,1.9
			c0.4,0.5,1,0.7,1.8,0.7c0.7,0,1.3-0.2,1.9-0.7c0.6-0.5,0.8-1.1,0.8-1.7c0-1-0.2-1.7-0.7-2.4C161.4,5442,160.6,5441.9,159.8,5441.9
			z"/>
	</g>
	<g>
		<path class="st8" d="M160.4,5231.6c1.7,0,3,0.5,4,1.4c1,0.9,1.4,2.2,1.4,3.8c0,1.9-0.6,3.4-1.8,4.4s-2.9,1.6-5,1.6
			c-1.9,0-3.5-0.4-4.6-1v-3c0.6,0.4,1.3,0.6,2.2,0.8c0.9,0.2,1.6,0.4,2.3,0.4c2.2,0,3.4-1,3.4-2.8c0-1.7-1.2-2.6-3.5-2.6
			c-0.4,0-0.8,0-1.3,0.1c-0.5,0.1-1,0.1-1.2,0.2l-1.4-0.7l0.6-8.8h9.2v3.1h-6.1l-0.4,3.4l0.4-0.1
			C159.1,5231.7,159.7,5231.6,160.4,5231.6z"/>
	</g>
	<g>
		<g>
			<path class="st6" d="M165.7,4967.9c0,3-0.5,5.2-1.4,6.6c-1,1.4-2.5,2.2-4.6,2.2c-1.9,0-3.5-0.7-4.4-2.3c-1-1.4-1.6-3.7-1.6-6.6
				c0-3,0.5-5.3,1.4-6.7c1-1.4,2.5-2.2,4.6-2.2c1.9,0,3.5,0.7,4.4,2.3C165.1,4962.9,165.7,4965,165.7,4967.9z M157.3,4967.9
				c0,2.2,0.2,3.6,0.6,4.6c0.4,1,1,1.3,1.8,1.3s1.4-0.5,1.8-1.4c0.4-1,0.6-2.4,0.6-4.6s-0.2-3.6-0.6-4.6s-1-1.3-1.8-1.3
				s-1.4,0.5-1.8,1.3C157.4,4964.3,157.3,4965.8,157.3,4967.9z"/>
		</g>
	</g>
	<rect x="129.4" y="4966.6" class="st9" width="10.1" height="2.3"/>
	<rect x="129.4" y="5019.9" class="st9" width="10.1" height="2.3"/>
	<rect x="129.4" y="5073.3" class="st9" width="10.1" height="2.3"/>
	<rect x="129.4" y="5126.7" class="st9" width="10.1" height="2.3"/>
	<rect x="129.4" y="5180.1" class="st9" width="10.1" height="2.3"/>
	<rect x="129.4" y="5233.5" class="st9" width="10.1" height="2.3"/>
	<rect x="129.4" y="5286.9" class="st9" width="10.1" height="2.3"/>
	<rect x="129.4" y="5340.3" class="st9" width="10.1" height="2.3"/>
	<rect x="129.4" y="5393.7" class="st9" width="10.1" height="2.3"/>
	<rect x="129.4" y="5447.1" class="st9" width="10.1" height="2.3"/>
	<rect x="129.4" y="5500.5" class="st9" width="10.1" height="2.3"/>
</g>
<g>
	<g>
		<g>
			<path class="st6" d="M161.6,6126.5H158v-9.9v-1.7v-1.8c-0.6,0.6-1,1-1.2,1.2l-1.9,1.6l-1.7-2l5.5-4.4h2.9V6126.5z"/>
			<path class="st6" d="M178.3,6118c0,3-0.5,5.2-1.4,6.6c-1,1.4-2.5,2.2-4.6,2.2c-1.9,0-3.5-0.7-4.4-2.3c-1-1.4-1.6-3.7-1.6-6.6
				c0-3,0.5-5.3,1.4-6.7c1.1-1.3,2.5-2,4.6-2c1.9,0,3.5,0.7,4.4,2.3C177.8,6112.9,178.3,6115.1,178.3,6118z M169.9,6118
				c0,2.2,0.2,3.6,0.6,4.6s1,1.3,1.8,1.3s1.4-0.5,1.8-1.4c0.4-1,0.6-2.4,0.6-4.6s-0.2-3.6-0.6-4.6c-0.4-1-1-1.3-1.8-1.3
				s-1.4,0.5-1.8,1.3C170.2,6114.4,169.9,6115.9,169.9,6118z"/>
		</g>
	</g>
	<g>
		<path class="st7" d="M166,6064.7c0,3.4-0.7,5.9-2.2,7.6c-1.4,1.7-3.6,2.5-6.5,2.5c-1,0-1.8,0-2.3-0.1v-2.9c0.6,0.1,1.3,0.2,2,0.2
			c1.2,0,2.2-0.1,3-0.5c0.8-0.4,1.3-1,1.8-1.7s0.6-1.8,0.7-3.1h-0.1c-0.5,0.7-1,1.2-1.6,1.6c-0.6,0.4-1.3,0.5-2.3,0.5
			c-1.4,0-2.6-0.5-3.5-1.4c-0.8-1-1.3-2.3-1.3-4c0-1.8,0.5-3.2,1.6-4.3s2.5-1.6,4.2-1.6c1.3,0,2.4,0.2,3.4,0.8s1.7,1.4,2.2,2.6
			C165.7,6062.1,166,6063.1,166,6064.7z M159.8,6060.1c-0.7,0-1.3,0.2-1.8,0.7s-0.6,1.2-0.6,2.3c0,0.8,0.2,1.4,0.6,1.9
			c0.4,0.5,1,0.7,1.8,0.7c0.7,0,1.3-0.2,1.9-0.7c0.6-0.5,0.8-1.1,0.8-1.7c0-1-0.2-1.7-0.7-2.4
			C161.4,6060.2,160.6,6060.1,159.8,6060.1z"/>
	</g>
	<g>
		<path class="st8" d="M160.4,5849.8c1.7,0,3,0.5,4,1.4c1,0.9,1.4,2.2,1.4,3.8c0,1.9-0.6,3.4-1.8,4.4s-2.9,1.6-5,1.6
			c-1.9,0-3.5-0.4-4.6-1v-3c0.6,0.4,1.3,0.6,2.2,0.8s1.6,0.4,2.3,0.4c2.2,0,3.4-1,3.4-2.8c0-1.7-1.2-2.6-3.5-2.6
			c-0.4,0-0.8,0-1.3,0.1c-0.5,0.1-1,0.1-1.2,0.2l-1.4-0.7l0.6-8.8h9.2v3.1h-6.1l-0.4,3.4l0.4-0.1
			C159.1,5849.9,159.7,5849.8,160.4,5849.8z"/>
	</g>
	<g>
		<g>
			<path class="st6" d="M165.7,5586.1c0,3-0.5,5.2-1.4,6.6c-1,1.4-2.5,2.2-4.6,2.2c-1.9,0-3.5-0.7-4.4-2.3c-1-1.4-1.6-3.7-1.6-6.6
				c0-3,0.5-5.3,1.4-6.7c1-1.4,2.5-2.2,4.6-2.2c1.9,0,3.5,0.7,4.4,2.3C165.1,5581.1,165.7,5583.2,165.7,5586.1z M157.3,5586.1
				c0,2.2,0.2,3.6,0.6,4.6c0.4,1,1,1.3,1.8,1.3s1.4-0.5,1.8-1.4c0.4-1,0.6-2.4,0.6-4.6s-0.2-3.6-0.6-4.6s-1-1.3-1.8-1.3
				s-1.4,0.5-1.8,1.3C157.4,5582.5,157.3,5584,157.3,5586.1z"/>
		</g>
	</g>
	<rect x="129.4" y="5584.8" class="st9" width="10.1" height="2.3"/>
	<rect x="129.4" y="5638.1" class="st9" width="10.1" height="2.3"/>
	<rect x="129.4" y="5691.5" class="st9" width="10.1" height="2.3"/>
	<rect x="129.4" y="5744.9" class="st9" width="10.1" height="2.3"/>
	<rect x="129.4" y="5798.3" class="st9" width="10.1" height="2.3"/>
	<rect x="129.4" y="5851.7" class="st9" width="10.1" height="2.3"/>
	<rect x="129.4" y="5905.1" class="st9" width="10.1" height="2.3"/>
	<rect x="129.4" y="5958.5" class="st9" width="10.1" height="2.3"/>
	<rect x="129.4" y="6011.9" class="st9" width="10.1" height="2.3"/>
	<rect x="129.4" y="6065.3" class="st9" width="10.1" height="2.3"/>
	<rect x="129.4" y="6118.7" class="st9" width="10.1" height="2.3"/>
</g>
<g>
	<g>
		<g>
			<path class="st6" d="M161.6,6745.4H158v-9.9v-1.7v-1.8c-0.6,0.6-1,1-1.2,1.2l-1.9,1.6l-1.7-2l5.5-4.4h2.9V6745.4z"/>
			<path class="st6" d="M178.3,6736.9c0,3-0.5,5.2-1.4,6.6c-1,1.4-2.5,2.2-4.6,2.2c-1.9,0-3.5-0.7-4.4-2.3c-1-1.4-1.6-3.7-1.6-6.6
				c0-3,0.5-5.3,1.4-6.7c1.1-1.3,2.5-2,4.6-2c1.9,0,3.5,0.7,4.4,2.3C177.8,6731.8,178.3,6733.9,178.3,6736.9z M169.9,6736.9
				c0,2.2,0.2,3.6,0.6,4.6s1,1.3,1.8,1.3s1.4-0.5,1.8-1.4c0.4-1,0.6-2.4,0.6-4.6s-0.2-3.6-0.6-4.6c-0.4-1-1-1.3-1.8-1.3
				s-1.4,0.5-1.8,1.3C170.2,6733.3,169.9,6734.8,169.9,6736.9z"/>
		</g>
	</g>
	<g>
		<path class="st7" d="M166,6683.5c0,3.4-0.7,5.9-2.2,7.6c-1.4,1.7-3.6,2.5-6.5,2.5c-1,0-1.8,0-2.3-0.1v-2.9c0.6,0.1,1.3,0.2,2,0.2
			c1.2,0,2.2-0.1,3-0.5c0.8-0.4,1.3-1,1.8-1.7s0.6-1.8,0.7-3.1h-0.1c-0.5,0.7-1,1.2-1.6,1.6c-0.6,0.4-1.3,0.5-2.3,0.5
			c-1.4,0-2.6-0.5-3.5-1.4c-0.8-1-1.3-2.3-1.3-4c0-1.8,0.5-3.2,1.6-4.3s2.5-1.6,4.2-1.6c1.3,0,2.4,0.2,3.4,0.8s1.7,1.4,2.2,2.6
			C165.7,6680.9,166,6681.9,166,6683.5z M159.8,6678.9c-0.7,0-1.3,0.2-1.8,0.7s-0.6,1.2-0.6,2.3c0,0.8,0.2,1.4,0.6,1.9
			c0.4,0.5,1,0.7,1.8,0.7c0.7,0,1.3-0.2,1.9-0.7c0.6-0.5,0.8-1.1,0.8-1.7c0-1-0.2-1.7-0.7-2.4
			C161.4,6679.1,160.6,6678.9,159.8,6678.9z"/>
	</g>
	<g>
		<path class="st8" d="M160.4,6468.7c1.7,0,3,0.5,4,1.4c1,0.9,1.4,2.2,1.4,3.8c0,1.9-0.6,3.4-1.8,4.4s-2.9,1.6-5,1.6
			c-1.9,0-3.5-0.4-4.6-1v-3c0.6,0.4,1.3,0.6,2.2,0.8c0.9,0.2,1.6,0.4,2.3,0.4c2.2,0,3.4-1,3.4-2.8c0-1.7-1.2-2.6-3.5-2.6
			c-0.4,0-0.8,0-1.3,0.1c-0.5,0.1-1,0.1-1.2,0.2l-1.4-0.7l0.6-8.8h9.2v3.1h-6.1l-0.4,3.4l0.4-0.1
			C159.1,6468.8,159.7,6468.7,160.4,6468.7z"/>
	</g>
	<g>
		<g>
			<path class="st6" d="M165.7,6204.9c0,3-0.5,5.2-1.4,6.6c-1,1.4-2.5,2.2-4.6,2.2c-1.9,0-3.5-0.7-4.4-2.3c-1-1.4-1.6-3.7-1.6-6.6
				c0-3,0.5-5.3,1.4-6.7c1-1.4,2.5-2.2,4.6-2.2c1.9,0,3.5,0.7,4.4,2.3C165.1,6199.9,165.7,6202.1,165.7,6204.9z M157.3,6204.9
				c0,2.2,0.2,3.6,0.6,4.6c0.4,1,1,1.3,1.8,1.3s1.4-0.5,1.8-1.4c0.4-1,0.6-2.4,0.6-4.6s-0.2-3.6-0.6-4.6s-1-1.3-1.8-1.3
				s-1.4,0.5-1.8,1.3C157.4,6201.3,157.3,6202.8,157.3,6204.9z"/>
		</g>
	</g>
	<rect x="129.4" y="6203.6" class="st9" width="10.1" height="2.3"/>
	<rect x="129.4" y="6256.9" class="st9" width="10.1" height="2.3"/>
	<rect x="129.4" y="6310.3" class="st9" width="10.1" height="2.3"/>
	<rect x="129.4" y="6363.7" class="st9" width="10.1" height="2.3"/>
	<rect x="129.4" y="6417.1" class="st9" width="10.1" height="2.3"/>
	<rect x="129.4" y="6470.5" class="st9" width="10.1" height="2.3"/>
	<rect x="129.4" y="6523.9" class="st9" width="10.1" height="2.3"/>
	<rect x="129.4" y="6577.3" class="st9" width="10.1" height="2.3"/>
	<rect x="129.4" y="6630.7" class="st9" width="10.1" height="2.3"/>
	<rect x="129.4" y="6684.1" class="st9" width="10.1" height="2.3"/>
	<rect x="129.4" y="6737.5" class="st9" width="10.1" height="2.3"/>
</g>
</svg>
