<?xml version="1.0" encoding="utf-8"?>
<!-- Generator: Adobe Illustrator 22.0.1, SVG Export Plug-In . SVG Version: 6.00 Build 0)  -->
<svg version="1.1" id="Layer_1" xmlns="http://www.w3.org/2000/svg" xmlns:xlink="http://www.w3.org/1999/xlink" x="0px" y="0px"
	 viewBox="0 0 182 6763" style="enable-background:new 0 0 182 6763;" width="182px" height="6763px" xml:space="preserve">
<style type="text/css">
	.st0{fill:#DE355D;}
	.st1{fill:#FFA600;}
	.st2{fill:#72B530;}
	.st3{fill:#52B5CC;stroke:#FFFFFF;stroke-width:3;stroke-miterlimit:10;}
	.st4{fill:#8BC53F;stroke:#FFFFFF;stroke-width:2;stroke-linejoin:bevel;stroke-miterlimit:10;}
	.st5{fill:#FFFFFF;}
	.st6{fill:#4D4D4D;}
	.st7{fill:#66A305;}
	.st8{fill:#EF9506;}
	.st9{fill:#AEAEAE;}
</style>
<g>
	<g>
		<rect x="103.2" y="290.3" class="st0" width="8.7" height="258.8"/>
		<rect x="103.2" y="74.6" class="st1" width="8.7" height="208.9"/>
		<rect x="103.2" y="17.4" class="st2" width="8.7" height="50.2"/>
	</g>
</g>
<g>
	<g>
		<circle class="st3" cx="107.6" cy="20.4" r="19.4"/>
	</g>
</g>
<g>
	<g>
		<rect x="103.2" y="909" class="st0" width="8.7" height="258.8"/>
		<rect x="103.2" y="693.3" class="st1" width="8.7" height="208.9"/>
		<rect x="103.2" y="636.1" class="st2" width="8.7" height="50.2"/>
	</g>
</g>
<g>
	<g>
		<circle class="st3" cx="107.6" cy="691.1" r="14.7"/>
	</g>
</g>
<g>
	<g>
		<rect x="103.2" y="1527.7" class="st0" width="8.7" height="258.8"/>
		<rect x="103.2" y="1312" class="st1" width="8.7" height="208.9"/>
		<rect x="103.2" y="1254.8" class="st2" width="8.7" height="50.2"/>
	</g>
</g>
<g>
	<g>
		<circle class="st3" cx="107.6" cy="1364.8" r="14.7"/>
	</g>
</g>
<g>
	<g>
		<rect x="103.2" y="2146.4" class="st0" width="8.7" height="258.8"/>
		<rect x="103.2" y="1930.7" class="st1" width="8.7" height="208.9"/>
		<rect x="103.2" y="1873.5" class="st2" width="8.7" height="50.2"/>
	</g>
</g>
<g>
	<g>
		<circle class="st3" cx="107.6" cy="2036.5" r="14.7"/>
	</g>
</g>
<g>
	<g>
		<rect x="103.2" y="2765.1" class="st0" width="8.7" height="258.8"/>
		<rect x="103.2" y="2549.4" class="st1" width="8.7" height="208.9"/>
		<rect x="103.2" y="2492.2" class="st2" width="8.7" height="50.2"/>
	</g>
</g>
<g>
	<g>
		<circle class="st3" cx="107.6" cy="2708.2" r="14.7"/>
	</g>
</g>
<g>
	<g>
		<rect x="103.2" y="3383.8" class="st0" width="8.7" height="258.8"/>
		<rect x="103.2" y="3168.1" class="st1" width="8.7" height="208.9"/>
		<rect x="103.2" y="3110.9" class="st2" width="8.7" height="50.2"/>
	</g>
</g>
<g>
	<g>
		<circle class="st3" cx="107.6" cy="3379.9" r="14.7"/>
	</g>
</g>
<g>
	<g>
		<rect x="103.2" y="4002.4" class="st0" width="8.7" height="258.8"/>
		<rect x="103.2" y="3786.7" class="st1" width="8.7" height="208.9"/>
		<rect x="103.2" y="3729.5" class="st2" width="8.7" height="50.2"/>
	</g>
</g>
<g>
	<g>
		<circle class="st3" cx="107.6" cy="4052.5" r="14.7"/>
	</g>
</g>
<g>
	<g>
		<rect x="103.2" y="4621.1" class="st0" width="8.7" height="258.8"/>
		<rect x="103.2" y="4405.4" class="st1" width="8.7" height="208.9"/>
		<rect x="103.2" y="4348.2" class="st2" width="8.7" height="50.2"/>
	</g>
</g>
<g>
	<g>
		<circle class="st3" cx="107.6" cy="4724.2" r="14.7"/>
	</g>
</g>
<g>
	<g>
		<rect x="103.2" y="5239.8" class="st0" width="8.7" height="258.8"/>
		<rect x="103.2" y="5024.1" class="st1" width="8.7" height="208.9"/>
		<rect x="103.2" y="4966.9" class="st2" width="8.7" height="50.2"/>
	</g>
</g>
<g>
	<g>
		<circle class="st3" cx="107.6" cy="5395.9" r="14.7"/>
	</g>
</g>
<g>
	<g>
		<rect x="103.2" y="5858.5" class="st0" width="8.7" height="258.8"/>
		<rect x="103.2" y="5642.8" class="st1" width="8.7" height="208.9"/>
		<rect x="103.2" y="5585.6" class="st2" width="8.7" height="50.2"/>
	</g>
</g>
<g>
	<g>
		<circle class="st3" cx="107.6" cy="6068.6" r="14.7"/>
	</g>
</g>
<g>
	<g>
		<rect x="103.2" y="6477.2" class="st0" width="8.7" height="258.8"/>
		<rect x="103.2" y="6261.5" class="st1" width="8.7" height="208.9"/>
		<rect x="103.2" y="6204.3" class="st2" width="8.7" height="50.2"/>
	</g>
</g>
<g>
	<g>
		<circle class="st3" cx="107.6" cy="6740.3" r="14.7"/>
	</g>
</g>
<circle class="st4" cx="107.6" cy="20.4" r="13.3"/>
<path class="st5" d="M115.3,16.4c0.1,0.1,0.1,0.4,0.1,0.8c0,0.1,0,0.5-0.1,0.8l-7.5,7.5l-1.4,1.4c-0.1,0.1-0.4,0.1-0.8,0.1
	c-0.1,0-0.5,0-0.8-0.1l-1.4-1.4l-3.7-3.7c-0.1-0.1-0.1-0.4-0.1-0.8c0-0.1,0-0.5,0.1-0.8l1.4-1.4c0.1-0.1,0.4-0.1,0.8-0.1
	c0.1,0,0.5,0.1,0.8,0.1l3.1,3.1l6.9-6.9c0.1-0.1,0.4-0.1,0.8-0.1c0.1,0,0.5,0.1,0.8,0.1L115.3,16.4z"/>
<g>
	<g>
		<g>
			<path class="st6" d="M161.6,1265.7H158v-9.9v-1.7v-1.8c-0.6,0.6-1,1-1.2,1.2l-1.9,1.6l-1.7-2l5.5-4.4h2.9V1265.7z"/>
			<path class="st6" d="M178.3,1257.2c0,3-0.5,5.2-1.4,6.6c-1,1.4-2.5,2.2-4.6,2.2c-1.9,0-3.5-0.7-4.4-2.3c-1-1.4-1.6-3.7-1.6-6.6
				c0-3,0.5-5.3,1.4-6.7c1.1-1.3,2.5-2,4.6-2c1.9,0,3.5,0.7,4.4,2.3C177.8,1252.1,178.3,1254.3,178.3,1257.2z M169.9,1257.2
				c0,2.2,0.2,3.6,0.6,4.6s1,1.3,1.8,1.3s1.4-0.5,1.8-1.4c0.4-1,0.6-2.4,0.6-4.6s-0.2-3.6-0.6-4.6c-0.4-1-1-1.3-1.8-1.3
				s-1.4,0.5-1.8,1.3C170.2,1253.6,169.9,1255.1,169.9,1257.2z"/>
		</g>
	</g>
	<g>
		<path class="st7" d="M166,1308.5c0,3.4-0.7,5.9-2.2,7.6c-1.4,1.7-3.6,2.5-6.5,2.5c-1,0-1.8,0-2.3-0.1v-2.9c0.6,0.1,1.3,0.2,2,0.2
			c1.2,0,2.2-0.1,3-0.5s1.3-1,1.8-1.7s0.6-1.8,0.7-3.1h-0.1c-0.5,0.7-1,1.2-1.6,1.6s-1.3,0.5-2.3,0.5c-1.4,0-2.6-0.5-3.5-1.4
			c-0.8-1-1.3-2.3-1.3-4c0-1.8,0.5-3.2,1.6-4.3c1.1-1.1,2.5-1.6,4.2-1.6c1.3,0,2.4,0.2,3.4,0.8s1.7,1.4,2.2,2.6
			C165.7,1305.9,166,1306.9,166,1308.5z M159.8,1303.9c-0.7,0-1.3,0.2-1.8,0.7s-0.6,1.2-0.6,2.3c0,0.8,0.2,1.4,0.6,1.9
			c0.4,0.5,1,0.7,1.8,0.7c0.7,0,1.3-0.2,1.9-0.7c0.6-0.5,0.8-1.1,0.8-1.7c0-1-0.2-1.7-0.7-2.4C161.4,1304,160.6,1303.9,159.8,1303.9
			z"/>
	</g>
	<g>
		<path class="st8" d="M160.4,1521.6c1.7,0,3,0.5,4,1.4s1.4,2.2,1.4,3.8c0,1.9-0.6,3.4-1.8,4.4s-2.9,1.6-5,1.6c-1.9,0-3.5-0.4-4.6-1
			v-3c0.6,0.4,1.3,0.6,2.2,0.8c0.9,0.2,1.6,0.4,2.3,0.4c2.2,0,3.4-1,3.4-2.8c0-1.7-1.2-2.6-3.5-2.6c-0.4,0-0.8,0-1.3,0.1
			s-1,0.1-1.2,0.2l-1.4-0.7l0.6-8.8h9.2v3.1h-6.1l-0.4,3.4l0.4-0.1C159.1,1521.7,159.7,1521.6,160.4,1521.6z"/>
	</g>
	<g>
		<g>
			<path class="st6" d="M165.7,1789.9c0,3-0.5,5.2-1.4,6.6c-1,1.4-2.5,2.2-4.6,2.2c-1.9,0-3.5-0.7-4.4-2.3c-1-1.4-1.6-3.7-1.6-6.6
				c0-3,0.5-5.3,1.4-6.7c1-1.4,2.5-2.2,4.6-2.2c1.9,0,3.5,0.7,4.4,2.3C165.1,1784.9,165.7,1787,165.7,1789.9z M157.3,1789.9
				c0,2.2,0.2,3.6,0.6,4.6c0.4,1,1,1.3,1.8,1.3s1.4-0.5,1.8-1.4c0.4-1,0.6-2.4,0.6-4.6s-0.2-3.6-0.6-4.6s-1-1.3-1.8-1.3
				s-1.4,0.5-1.8,1.3C157.4,1786.3,157.3,1787.8,157.3,1789.9z"/>
		</g>
	</g>
	<rect x="129.4" y="1256.6" class="st9" width="10.1" height="2.3"/>
	<rect x="129.4" y="1309.9" class="st9" width="10.1" height="2.3"/>
	<rect x="129.4" y="1363.3" class="st9" width="10.1" height="2.3"/>
	<rect x="129.4" y="1416.7" class="st9" width="10.1" height="2.3"/>
	<rect x="129.4" y="1470.1" class="st9" width="10.1" height="2.3"/>
	<rect x="129.4" y="1523.5" class="st9" width="10.1" height="2.3"/>
	<rect x="129.4" y="1576.9" class="st9" width="10.1" height="2.3"/>
	<rect x="129.4" y="1630.3" class="st9" width="10.1" height="2.3"/>
	<rect x="129.4" y="1683.7" class="st9" width="10.1" height="2.3"/>
	<rect x="129.4" y="1737.1" class="st9" width="10.1" height="2.3"/>
	<rect x="129.4" y="1790.5" class="st9" width="10.1" height="2.3"/>
</g>
<g>
	<g>
		<g>
			<path class="st6" d="M161.6,1883.4H158v-9.9v-1.7v-1.8c-0.6,0.6-1,1-1.2,1.2l-1.9,1.6l-1.7-2l5.5-4.4h2.9V1883.4z"/>
			<path class="st6" d="M178.3,1874.9c0,3-0.5,5.2-1.4,6.6c-1,1.4-2.5,2.2-4.6,2.2c-1.9,0-3.5-0.7-4.4-2.3c-1-1.4-1.6-3.7-1.6-6.6
				c0-3,0.5-5.3,1.4-6.7c1.1-1.3,2.5-2,4.6-2c1.9,0,3.5,0.7,4.4,2.3C177.8,1869.8,178.3,1872,178.3,1874.9z M169.9,1874.9
				c0,2.2,0.2,3.6,0.6,4.6s1,1.3,1.8,1.3s1.4-0.5,1.8-1.4c0.4-1,0.6-2.4,0.6-4.6s-0.2-3.6-0.6-4.6c-0.4-1-1-1.3-1.8-1.3
				s-1.4,0.5-1.8,1.3C170.2,1871.3,169.9,1872.8,169.9,1874.9z"/>
		</g>
	</g>
	<g>
		<path class="st7" d="M166,1926.2c0,3.4-0.7,5.9-2.2,7.6c-1.4,1.7-3.6,2.5-6.5,2.5c-1,0-1.8,0-2.3-0.1v-2.9c0.6,0.1,1.3,0.2,2,0.2
			c1.2,0,2.2-0.1,3-0.5s1.3-1,1.8-1.7s0.6-1.8,0.7-3.1h-0.1c-0.5,0.7-1,1.2-1.6,1.6s-1.3,0.5-2.3,0.5c-1.4,0-2.6-0.5-3.5-1.4
			c-0.8-1-1.3-2.3-1.3-4c0-1.8,0.5-3.2,1.6-4.3c1.1-1.1,2.5-1.6,4.2-1.6c1.3,0,2.4,0.2,3.4,0.8s1.7,1.4,2.2,2.6
			C165.7,1923.6,166,1924.6,166,1926.2z M159.8,1921.6c-0.7,0-1.3,0.2-1.8,0.7s-0.6,1.2-0.6,2.3c0,0.8,0.2,1.4,0.6,1.9
			c0.4,0.5,1,0.7,1.8,0.7c0.7,0,1.3-0.2,1.9-0.7c0.6-0.5,0.8-1.1,0.8-1.7c0-1-0.2-1.7-0.7-2.4
			C161.4,1921.7,160.6,1921.6,159.8,1921.6z"/>
	</g>
	<g>
		<path class="st8" d="M160.4,2139.3c1.7,0,3,0.5,4,1.4s1.4,2.2,1.4,3.8c0,1.9-0.6,3.4-1.8,4.4s-2.9,1.6-5,1.6c-1.9,0-3.5-0.4-4.6-1
			v-3c0.6,0.4,1.3,0.6,2.2,0.8s1.6,0.4,2.3,0.4c2.2,0,3.4-1,3.4-2.8c0-1.7-1.2-2.6-3.5-2.6c-0.4,0-0.8,0-1.3,0.1s-1,0.1-1.2,0.2
			l-1.4-0.7l0.6-8.8h9.2v3.1h-6.1l-0.4,3.4l0.4-0.1C159.1,2139.4,159.7,2139.3,160.4,2139.3z"/>
	</g>
	<g>
		<g>
			<path class="st6" d="M165.7,2407.6c0,3-0.5,5.2-1.4,6.6c-1,1.4-2.5,2.2-4.6,2.2c-1.9,0-3.5-0.7-4.4-2.3c-1-1.4-1.6-3.7-1.6-6.6
				c0-3,0.5-5.3,1.4-6.7c1-1.4,2.5-2.2,4.6-2.2c1.9,0,3.5,0.7,4.4,2.3C165.1,2402.6,165.7,2404.7,165.7,2407.6z M157.3,2407.6
				c0,2.2,0.2,3.6,0.6,4.6c0.4,1,1,1.3,1.8,1.3s1.4-0.5,1.8-1.4c0.4-1,0.6-2.4,0.6-4.6c0-2.2-0.2-3.6-0.6-4.6s-1-1.3-1.8-1.3
				s-1.4,0.5-1.8,1.3C157.4,2404,157.3,2405.5,157.3,2407.6z"/>
		</g>
	</g>
	<rect x="129.4" y="1874.3" class="st9" width="10.1" height="2.3"/>
	<rect x="129.4" y="1927.6" class="st9" width="10.1" height="2.3"/>
	<rect x="129.4" y="1981" class="st9" width="10.1" height="2.3"/>
	<rect x="129.4" y="2034.4" class="st9" width="10.1" height="2.3"/>
	<rect x="129.4" y="2087.8" class="st9" width="10.1" height="2.3"/>
	<rect x="129.4" y="2141.2" class="st9" width="10.1" height="2.3"/>
	<rect x="129.4" y="2194.6" class="st9" width="10.1" height="2.3"/>
	<rect x="129.4" y="2248" class="st9" width="10.1" height="2.3"/>
	<rect x="129.4" y="2301.4" class="st9" width="10.1" height="2.3"/>
	<rect x="129.4" y="2354.8" class="st9" width="10.1" height="2.3"/>
	<rect x="129.4" y="2408.2" class="st9" width="10.1" height="2.3"/>
</g>
<g>
	<g>
		<g>
			<path class="st6" d="M161.6,647.2H158v-9.9v-1.7v-1.8c-0.6,0.6-1,1-1.2,1.2l-1.9,1.6l-1.7-2l5.5-4.4h2.9V647.2z"/>
			<path class="st6" d="M178.3,638.7c0,3-0.5,5.2-1.4,6.6c-1,1.4-2.5,2.2-4.6,2.2c-1.9,0-3.5-0.7-4.4-2.3c-1-1.4-1.6-3.7-1.6-6.6
				c0-3,0.5-5.3,1.4-6.7c1.1-1.3,2.5-2,4.6-2c1.9,0,3.5,0.7,4.4,2.3C177.8,633.6,178.3,635.8,178.3,638.7z M169.9,638.7
				c0,2.2,0.2,3.6,0.6,4.6s1,1.3,1.8,1.3s1.4-0.5,1.8-1.4c0.4-1,0.6-2.4,0.6-4.6s-0.2-3.6-0.6-4.6c-0.4-1-1-1.3-1.8-1.3
				s-1.4,0.5-1.8,1.3C170.2,635.1,169.9,636.6,169.9,638.7z"/>
		</g>
	</g>
	<g>
		<path class="st7" d="M166,690c0,3.4-0.7,5.9-2.2,7.6c-1.4,1.7-3.6,2.5-6.5,2.5c-1,0-1.8,0-2.3-0.1v-2.9c0.6,0.1,1.3,0.2,2,0.2
			c1.2,0,2.2-0.1,3-0.5s1.3-1,1.8-1.7s0.6-1.8,0.7-3.1h-0.1c-0.5,0.7-1,1.2-1.6,1.6s-1.3,0.5-2.3,0.5c-1.4,0-2.6-0.5-3.5-1.4
			c-0.8-1-1.3-2.3-1.3-4c0-1.8,0.5-3.2,1.6-4.3s2.5-1.6,4.2-1.6c1.3,0,2.4,0.2,3.4,0.8s1.7,1.4,2.2,2.6
			C165.7,687.4,166,688.4,166,690z M159.8,685.4c-0.7,0-1.3,0.2-1.8,0.7s-0.6,1.2-0.6,2.3c0,0.8,0.2,1.4,0.6,1.9
			c0.4,0.5,1,0.7,1.8,0.7c0.7,0,1.3-0.2,1.9-0.7c0.6-0.5,0.8-1.1,0.8-1.7c0-1-0.2-1.7-0.7-2.4C161.4,685.5,160.6,685.4,159.8,685.4z
			"/>
	</g>
	<g>
		<path class="st8" d="M160.4,903.1c1.7,0,3,0.5,4,1.4s1.4,2.2,1.4,3.8c0,1.9-0.6,3.4-1.8,4.4s-2.9,1.6-5,1.6c-1.9,0-3.5-0.4-4.6-1
			v-3c0.6,0.4,1.3,0.6,2.2,0.8s1.6,0.4,2.3,0.4c2.2,0,3.4-1,3.4-2.8c0-1.7-1.2-2.6-3.5-2.6c-0.4,0-0.8,0-1.3,0.1s-1,0.1-1.2,0.2
			l-1.4-0.7l0.6-8.8h9.2v3.1h-6.1l-0.4,3.4l0.4-0.1C159.1,903.2,159.7,903.1,160.4,903.1z"/>
	</g>
	<g>
		<g>
			<path class="st6" d="M165.7,1171.4c0,3-0.5,5.2-1.4,6.6c-1,1.4-2.5,2.2-4.6,2.2c-1.9,0-3.5-0.7-4.4-2.3c-1-1.4-1.6-3.7-1.6-6.6
				c0-3,0.5-5.3,1.4-6.7c1-1.4,2.5-2.2,4.6-2.2c1.9,0,3.5,0.7,4.4,2.3C165.1,1166.4,165.7,1168.5,165.7,1171.4z M157.3,1171.4
				c0,2.2,0.2,3.6,0.6,4.6c0.4,1,1,1.3,1.8,1.3s1.4-0.5,1.8-1.4c0.4-1,0.6-2.4,0.6-4.6s-0.2-3.6-0.6-4.6s-1-1.3-1.8-1.3
				s-1.4,0.5-1.8,1.3C157.4,1167.8,157.3,1169.3,157.3,1171.4z"/>
		</g>
	</g>
	<rect x="129.4" y="638" class="st9" width="10.1" height="2.3"/>
	<rect x="129.4" y="691.3" class="st9" width="10.1" height="2.3"/>
	<rect x="129.4" y="744.7" class="st9" width="10.1" height="2.3"/>
	<rect x="129.4" y="798.1" class="st9" width="10.1" height="2.3"/>
	<rect x="129.4" y="851.5" class="st9" width="10.1" height="2.3"/>
	<rect x="129.4" y="904.9" class="st9" width="10.1" height="2.3"/>
	<rect x="129.4" y="958.3" class="st9" width="10.1" height="2.3"/>
	<rect x="129.4" y="1011.7" class="st9" width="10.1" height="2.3"/>
	<rect x="129.4" y="1065.1" class="st9" width="10.1" height="2.3"/>
	<rect x="129.4" y="1118.5" class="st9" width="10.1" height="2.3"/>
	<rect x="129.4" y="1171.9" class="st9" width="10.1" height="2.3"/>
</g>
<g>
	<g>
		<g>
			<path class="st6" d="M161.6,28.3H158v-9.9v-1.7v-1.8c-0.6,0.6-1,1-1.2,1.2l-1.9,1.6l-1.7-2l5.5-4.4h2.9V28.3z"/>
			<path class="st6" d="M178.3,19.8c0,3-0.5,5.2-1.4,6.6c-1,1.4-2.5,2.2-4.6,2.2c-1.9,0-3.5-0.7-4.4-2.3c-1-1.4-1.6-3.7-1.6-6.6
				c0-3,0.5-5.3,1.4-6.7c1.1-1.3,2.5-2,4.6-2c1.9,0,3.5,0.7,4.4,2.3C177.8,14.7,178.3,16.9,178.3,19.8z M169.9,19.8
				c0,2.2,0.2,3.6,0.6,4.6s1,1.3,1.8,1.3s1.4-0.5,1.8-1.4c0.4-1,0.6-2.4,0.6-4.6s-0.2-3.6-0.6-4.6c-0.4-1-1-1.3-1.8-1.3
				s-1.4,0.5-1.8,1.3C170.2,16.2,169.9,17.7,169.9,19.8z"/>
		</g>
	</g>
	<g>
		<path class="st7" d="M166,71.1c0,3.4-0.7,5.9-2.2,7.6c-1.4,1.7-3.6,2.5-6.5,2.5c-1,0-1.8,0-2.3-0.1v-2.9c0.6,0.1,1.3,0.2,2,0.2
			c1.2,0,2.2-0.1,3-0.5s1.3-1,1.8-1.7s0.6-1.8,0.7-3.1h-0.1c-0.5,0.7-1,1.2-1.6,1.6s-1.3,0.5-2.3,0.5c-1.4,0-2.6-0.5-3.5-1.4
			c-0.8-1-1.3-2.3-1.3-4c0-1.8,0.5-3.2,1.6-4.3c1.1-1.1,2.5-1.6,4.2-1.6c1.3,0,2.4,0.2,3.4,0.8s1.7,1.4,2.2,2.6
			C165.7,68.5,166,69.5,166,71.1z M159.8,66.5c-0.7,0-1.3,0.2-1.8,0.7s-0.6,1.2-0.6,2.3c0,0.8,0.2,1.4,0.6,1.9
			c0.4,0.5,1,0.7,1.8,0.7c0.7,0,1.3-0.2,1.9-0.7c0.6-0.5,0.8-1.1,0.8-1.7c0-1-0.2-1.7-0.7-2.4C161.4,66.6,160.6,66.5,159.8,66.5z"/>
	</g>
	<g>
		<path class="st8" d="M160.4,284.2c1.7,0,3,0.5,4,1.4s1.4,2.2,1.4,3.8c0,1.9-0.6,3.4-1.8,4.4s-2.9,1.6-5,1.6c-1.9,0-3.5-0.4-4.6-1
			v-3c0.6,0.4,1.3,0.6,2.2,0.8c0.9,0.2,1.6,0.4,2.3,0.4c2.2,0,3.4-1,3.4-2.8c0-1.7-1.2-2.6-3.5-2.6c-0.4,0-0.8,0-1.3,0.1
			s-1,0.1-1.2,0.2l-1.4-0.7l0.6-8.8h9.2v3.1h-6.1l-0.4,3.4l0.4-0.1C159.1,284.3,159.7,284.2,160.4,284.2z"/>
	</g>
	<g>
		<g>
			<path class="st6" d="M165.7,552.5c0,3-0.5,5.2-1.4,6.6c-1,1.4-2.5,2.2-4.6,2.2c-1.9,0-3.5-0.7-4.4-2.3c-1-1.4-1.6-3.7-1.6-6.6
				c0-3,0.5-5.3,1.4-6.7c1-1.4,2.5-2.2,4.6-2.2c1.9,0,3.5,0.7,4.4,2.3C165.1,547.5,165.7,549.6,165.7,552.5z M157.3,552.5
				c0,2.2,0.2,3.6,0.6,4.6c0.4,1,1,1.3,1.8,1.3s1.4-0.5,1.8-1.4c0.4-1,0.6-2.4,0.6-4.6s-0.2-3.6-0.6-4.6s-1-1.3-1.8-1.3
				s-1.4,0.5-1.8,1.3C157.4,548.9,157.3,550.4,157.3,552.5z"/>
		</g>
	</g>
	<rect x="129.4" y="19.2" class="st9" width="10.1" height="2.3"/>
	<rect x="129.4" y="72.5" class="st9" width="10.1" height="2.3"/>
	<rect x="129.4" y="125.9" class="st9" width="10.1" height="2.3"/>
	<rect x="129.4" y="179.3" class="st9" width="10.1" height="2.3"/>
	<rect x="129.4" y="232.7" class="st9" width="10.1" height="2.3"/>
	<rect x="129.4" y="286.1" class="st9" width="10.1" height="2.3"/>
	<rect x="129.4" y="339.5" class="st9" width="10.1" height="2.3"/>
	<rect x="129.4" y="392.9" class="st9" width="10.1" height="2.3"/>
	<rect x="129.4" y="446.3" class="st9" width="10.1" height="2.3"/>
	<rect x="129.4" y="499.7" class="st9" width="10.1" height="2.3"/>
	<rect x="129.4" y="553.1" class="st9" width="10.1" height="2.3"/>
</g>
<g>
	<g>
		<g>
			<path class="st6" d="M161.6,2502.8H158v-9.9v-1.7v-1.8c-0.6,0.6-1,1-1.2,1.2l-1.9,1.6l-1.7-2l5.5-4.4h2.9V2502.8z"/>
			<path class="st6" d="M178.3,2494.3c0,3-0.5,5.2-1.4,6.6c-1,1.4-2.5,2.2-4.6,2.2c-1.9,0-3.5-0.7-4.4-2.3c-1-1.4-1.6-3.7-1.6-6.6
				c0-3,0.5-5.3,1.4-6.7c1.1-1.3,2.5-2,4.6-2c1.9,0,3.5,0.7,4.4,2.3C177.8,2489.2,178.3,2491.4,178.3,2494.3z M169.9,2494.3
				c0,2.2,0.2,3.6,0.6,4.6s1,1.3,1.8,1.3s1.4-0.5,1.8-1.4c0.4-1,0.6-2.4,0.6-4.6c0-2.2-0.2-3.6-0.6-4.6c-0.4-1-1-1.3-1.8-1.3
				s-1.4,0.5-1.8,1.3C170.2,2490.7,169.9,2492.2,169.9,2494.3z"/>
		</g>
	</g>
	<g>
		<path class="st7" d="M166,2545.6c0,3.4-0.7,5.9-2.2,7.6c-1.4,1.7-3.6,2.5-6.5,2.5c-1,0-1.8,0-2.3-0.1v-2.9c0.6,0.1,1.3,0.2,2,0.2
			c1.2,0,2.2-0.1,3-0.5s1.3-1,1.8-1.7s0.6-1.8,0.7-3.1h-0.1c-0.5,0.7-1,1.2-1.6,1.6s-1.3,0.5-2.3,0.5c-1.4,0-2.6-0.5-3.5-1.4
			c-0.8-1-1.3-2.3-1.3-4c0-1.8,0.5-3.2,1.6-4.3s2.5-1.6,4.2-1.6c1.3,0,2.4,0.2,3.4,0.8s1.7,1.4,2.2,2.6
			C165.7,2543,166,2544,166,2545.6z M159.8,2541c-0.7,0-1.3,0.2-1.8,0.7s-0.6,1.2-0.6,2.3c0,0.8,0.2,1.4,0.6,1.9
			c0.4,0.5,1,0.7,1.8,0.7c0.7,0,1.3-0.2,1.9-0.7c0.6-0.5,0.8-1.1,0.8-1.7c0-1-0.2-1.7-0.7-2.4C161.4,2541.1,160.6,2541,159.8,2541z"
			/>
	</g>
	<g>
		<path class="st8" d="M160.4,2758.7c1.7,0,3,0.5,4,1.4s1.4,2.2,1.4,3.8c0,1.9-0.6,3.4-1.8,4.4s-2.9,1.6-5,1.6c-1.9,0-3.5-0.4-4.6-1
			v-3c0.6,0.4,1.3,0.6,2.2,0.8s1.6,0.4,2.3,0.4c2.2,0,3.4-1,3.4-2.8c0-1.7-1.2-2.6-3.5-2.6c-0.4,0-0.8,0-1.3,0.1s-1,0.1-1.2,0.2
			l-1.4-0.7l0.6-8.8h9.2v3.1h-6.1l-0.4,3.4l0.4-0.1C159.1,2758.8,159.7,2758.7,160.4,2758.7z"/>
	</g>
	<g>
		<g>
			<path class="st6" d="M165.7,3027c0,3-0.5,5.2-1.4,6.6c-1,1.4-2.5,2.2-4.6,2.2c-1.9,0-3.5-0.7-4.4-2.3c-1-1.4-1.6-3.7-1.6-6.6
				c0-3,0.5-5.3,1.4-6.7c1-1.4,2.5-2.2,4.6-2.2c1.9,0,3.5,0.7,4.4,2.3C165.1,3022,165.7,3024.1,165.7,3027z M157.3,3027
				c0,2.2,0.2,3.6,0.6,4.6c0.4,1,1,1.3,1.8,1.3s1.4-0.5,1.8-1.4c0.4-1,0.6-2.4,0.6-4.6c0-2.2-0.2-3.6-0.6-4.6s-1-1.3-1.8-1.3
				s-1.4,0.5-1.8,1.3C157.4,3023.4,157.3,3024.9,157.3,3027z"/>
		</g>
	</g>
	<rect x="129.4" y="2493.7" class="st9" width="10.1" height="2.3"/>
	<rect x="129.4" y="2547" class="st9" width="10.1" height="2.3"/>
	<rect x="129.4" y="2600.4" class="st9" width="10.1" height="2.3"/>
	<rect x="129.4" y="2653.8" class="st9" width="10.1" height="2.3"/>
	<rect x="129.4" y="2707.2" class="st9" width="10.1" height="2.3"/>
	<rect x="129.4" y="2760.6" class="st9" width="10.1" height="2.3"/>
	<rect x="129.4" y="2814" class="st9" width="10.1" height="2.3"/>
	<rect x="129.4" y="2867.4" class="st9" width="10.1" height="2.3"/>
	<rect x="129.4" y="2920.8" class="st9" width="10.1" height="2.3"/>
	<rect x="129.4" y="2974.2" class="st9" width="10.1" height="2.3"/>
	<rect x="129.4" y="3027.6" class="st9" width="10.1" height="2.3"/>
</g>
<g>
	<g>
		<g>
			<path class="st6" d="M161.6,3122H158v-9.9v-1.7v-1.8c-0.6,0.6-1,1-1.2,1.2l-1.9,1.6l-1.7-2l5.5-4.4h2.9V3122z"/>
			<path class="st6" d="M178.3,3113.5c0,3-0.5,5.2-1.4,6.6c-1,1.4-2.5,2.2-4.6,2.2c-1.9,0-3.5-0.7-4.4-2.3c-1-1.4-1.6-3.7-1.6-6.6
				c0-3,0.5-5.3,1.4-6.7c1.1-1.3,2.5-2,4.6-2c1.9,0,3.5,0.7,4.4,2.3C177.8,3108.4,178.3,3110.6,178.3,3113.5z M169.9,3113.5
				c0,2.2,0.2,3.6,0.6,4.6s1,1.3,1.8,1.3s1.4-0.5,1.8-1.4c0.4-1,0.6-2.4,0.6-4.6c0-2.2-0.2-3.6-0.6-4.6c-0.4-1-1-1.3-1.8-1.3
				s-1.4,0.5-1.8,1.3C170.2,3109.9,169.9,3111.4,169.9,3113.5z"/>
		</g>
	</g>
	<g>
		<path class="st7" d="M166,3164.8c0,3.4-0.7,5.9-2.2,7.6c-1.4,1.7-3.6,2.5-6.5,2.5c-1,0-1.8,0-2.3-0.1v-2.9c0.6,0.1,1.3,0.2,2,0.2
			c1.2,0,2.2-0.1,3-0.5s1.3-1,1.8-1.7s0.6-1.8,0.7-3.1h-0.1c-0.5,0.7-1,1.2-1.6,1.6s-1.3,0.5-2.3,0.5c-1.4,0-2.6-0.5-3.5-1.4
			c-0.8-1-1.3-2.3-1.3-4c0-1.8,0.5-3.2,1.6-4.3s2.5-1.6,4.2-1.6c1.3,0,2.4,0.2,3.4,0.8s1.7,1.4,2.2,2.6
			C165.7,3162.2,166,3163.2,166,3164.8z M159.8,3160.2c-0.7,0-1.3,0.2-1.8,0.7s-0.6,1.2-0.6,2.3c0,0.8,0.2,1.4,0.6,1.9
			c0.4,0.5,1,0.7,1.8,0.7c0.7,0,1.3-0.2,1.9-0.7c0.6-0.5,0.8-1.1,0.8-1.7c0-1-0.2-1.7-0.7-2.4
			C161.4,3160.3,160.6,3160.2,159.8,3160.2z"/>
	</g>
	<g>
		<path class="st8" d="M160.4,3377.9c1.7,0,3,0.5,4,1.4s1.4,2.2,1.4,3.8c0,1.9-0.6,3.4-1.8,4.4s-2.9,1.6-5,1.6c-1.9,0-3.5-0.4-4.6-1
			v-3c0.6,0.4,1.3,0.6,2.2,0.8s1.6,0.4,2.3,0.4c2.2,0,3.4-1,3.4-2.8c0-1.7-1.2-2.6-3.5-2.6c-0.4,0-0.8,0-1.3,0.1s-1,0.1-1.2,0.2
			l-1.4-0.7l0.6-8.8h9.2v3.1h-6.1l-0.4,3.4l0.4-0.1C159.1,3378,159.7,3377.9,160.4,3377.9z"/>
	</g>
	<g>
		<g>
			<path class="st6" d="M165.7,3646.2c0,3-0.5,5.2-1.4,6.6c-1,1.4-2.5,2.2-4.6,2.2c-1.9,0-3.5-0.7-4.4-2.3c-1-1.4-1.6-3.7-1.6-6.6
				c0-3,0.5-5.3,1.4-6.7c1-1.4,2.5-2.2,4.6-2.2c1.9,0,3.5,0.7,4.4,2.3C165.1,3641.2,165.7,3643.3,165.7,3646.2z M157.3,3646.2
				c0,2.2,0.2,3.6,0.6,4.6c0.4,1,1,1.3,1.8,1.3s1.4-0.5,1.8-1.4c0.4-1,0.6-2.4,0.6-4.6c0-2.2-0.2-3.6-0.6-4.6s-1-1.3-1.8-1.3
				s-1.4,0.5-1.8,1.3C157.4,3642.6,157.3,3644.1,157.3,3646.2z"/>
		</g>
	</g>
	<rect x="129.4" y="3112.9" class="st9" width="10.1" height="2.3"/>
	<rect x="129.4" y="3166.2" class="st9" width="10.1" height="2.3"/>
	<rect x="129.4" y="3219.6" class="st9" width="10.1" height="2.3"/>
	<rect x="129.4" y="3273" class="st9" width="10.1" height="2.3"/>
	<rect x="129.4" y="3326.4" class="st9" width="10.1" height="2.3"/>
	<rect x="129.4" y="3379.8" class="st9" width="10.1" height="2.3"/>
	<rect x="129.4" y="3433.2" class="st9" width="10.1" height="2.3"/>
	<rect x="129.4" y="3486.6" class="st9" width="10.1" height="2.3"/>
	<rect x="129.4" y="3540" class="st9" width="10.1" height="2.3"/>
	<rect x="129.4" y="3593.4" class="st9" width="10.1" height="2.3"/>
	<rect x="129.4" y="3646.8" class="st9" width="10.1" height="2.3"/>
</g>
<g>
	<g>
		<g>
			<path class="st6" d="M161.6,3740.8H158v-9.9v-1.7v-1.8c-0.6,0.6-1,1-1.2,1.2l-1.9,1.6l-1.7-2l5.5-4.4h2.9V3740.8z"/>
			<path class="st6" d="M178.3,3732.3c0,3-0.5,5.2-1.4,6.6c-1,1.4-2.5,2.2-4.6,2.2c-1.9,0-3.5-0.7-4.4-2.3c-1-1.4-1.6-3.7-1.6-6.6
				c0-3,0.5-5.3,1.4-6.7c1.1-1.3,2.5-2,4.6-2c1.9,0,3.5,0.7,4.4,2.3C177.8,3727.2,178.3,3729.4,178.3,3732.3z M169.9,3732.3
				c0,2.2,0.2,3.6,0.6,4.6s1,1.3,1.8,1.3s1.4-0.5,1.8-1.4c0.4-1,0.6-2.4,0.6-4.6s-0.2-3.6-0.6-4.6c-0.4-1-1-1.3-1.8-1.3
				s-1.4,0.5-1.8,1.3C170.2,3728.7,169.9,3730.2,169.9,3732.3z"/>
		</g>
	</g>
	<g>
		<path class="st7" d="M166,3783.6c0,3.4-0.7,5.9-2.2,7.6c-1.4,1.7-3.6,2.5-6.5,2.5c-1,0-1.8,0-2.3-0.1v-2.9c0.6,0.1,1.3,0.2,2,0.2
			c1.2,0,2.2-0.1,3-0.5s1.3-1,1.8-1.7s0.6-1.8,0.7-3.1h-0.1c-0.5,0.7-1,1.2-1.6,1.6c-0.6,0.4-1.3,0.5-2.3,0.5
			c-1.4,0-2.6-0.5-3.5-1.4c-0.8-1-1.3-2.3-1.3-4c0-1.8,0.5-3.2,1.6-4.3s2.5-1.6,4.2-1.6c1.3,0,2.4,0.2,3.4,0.8s1.7,1.4,2.2,2.6
			C165.7,3781,166,3782,166,3783.6z M159.8,3779c-0.7,0-1.3,0.2-1.8,0.7s-0.6,1.2-0.6,2.3c0,0.8,0.2,1.4,0.6,1.9
			c0.4,0.5,1,0.7,1.8,0.7c0.7,0,1.3-0.2,1.9-0.7c0.6-0.5,0.8-1.1,0.8-1.7c0-1-0.2-1.7-0.7-2.4C161.4,3779.1,160.6,3779,159.8,3779z"
			/>
	</g>
	<g>
		<path class="st8" d="M160.4,3996.7c1.7,0,3,0.5,4,1.4s1.4,2.2,1.4,3.8c0,1.9-0.6,3.4-1.8,4.4s-2.9,1.6-5,1.6c-1.9,0-3.5-0.4-4.6-1
			v-3c0.6,0.4,1.3,0.6,2.2,0.8s1.6,0.4,2.3,0.4c2.2,0,3.4-1,3.4-2.8c0-1.7-1.2-2.6-3.5-2.6c-0.4,0-0.8,0-1.3,0.1s-1,0.1-1.2,0.2
			l-1.4-0.7l0.6-8.8h9.2v3.1h-6.1l-0.4,3.4l0.4-0.1C159.1,3996.8,159.7,3996.7,160.4,3996.7z"/>
	</g>
	<g>
		<g>
			<path class="st6" d="M165.7,4265c0,3-0.5,5.2-1.4,6.6c-1,1.4-2.5,2.2-4.6,2.2c-1.9,0-3.5-0.7-4.4-2.3c-1-1.4-1.6-3.7-1.6-6.6
				c0-3,0.5-5.3,1.4-6.7c1-1.4,2.5-2.2,4.6-2.2c1.9,0,3.5,0.7,4.4,2.3C165.1,4260,165.7,4262.1,165.7,4265z M157.3,4265
				c0,2.2,0.2,3.6,0.6,4.6c0.4,1,1,1.3,1.8,1.3s1.4-0.5,1.8-1.4c0.4-1,0.6-2.4,0.6-4.6s-0.2-3.6-0.6-4.6s-1-1.3-1.8-1.3
				s-1.4,0.5-1.8,1.3C157.4,4261.4,157.3,4262.9,157.3,4265z"/>
		</g>
	</g>
	<rect x="129.4" y="3731.7" class="st9" width="10.1" height="2.3"/>
	<rect x="129.4" y="3785" class="st9" width="10.1" height="2.3"/>
	<rect x="129.4" y="3838.4" class="st9" width="10.1" height="2.3"/>
	<rect x="129.4" y="3891.8" class="st9" width="10.1" height="2.3"/>
	<rect x="129.4" y="3945.2" class="st9" width="10.1" height="2.3"/>
	<rect x="129.4" y="3998.6" class="st9" width="10.1" height="2.3"/>
	<rect x="129.4" y="4052" class="st9" width="10.1" height="2.3"/>
	<rect x="129.4" y="4105.4" class="st9" width="10.1" height="2.3"/>
	<rect x="129.4" y="4158.8" class="st9" width="10.1" height="2.3"/>
	<rect x="129.4" y="4212.2" class="st9" width="10.1" height="2.3"/>
	<rect x="129.4" y="4265.6" class="st9" width="10.1" height="2.3"/>
</g>
<g>
	<g>
		<g>
			<path class="st6" d="M161.6,4359.6H158v-9.9v-1.7v-1.8c-0.6,0.6-1,1-1.2,1.2l-1.9,1.6l-1.7-2l5.5-4.4h2.9V4359.6z"/>
			<path class="st6" d="M178.3,4351.1c0,3-0.5,5.2-1.4,6.6c-1,1.4-2.5,2.2-4.6,2.2c-1.9,0-3.5-0.7-4.4-2.3c-1-1.4-1.6-3.7-1.6-6.6
				c0-3,0.5-5.3,1.4-6.7c1.1-1.3,2.5-2,4.6-2c1.9,0,3.5,0.7,4.4,2.3C177.8,4346,178.3,4348.2,178.3,4351.1z M169.9,4351.1
				c0,2.2,0.2,3.6,0.6,4.6s1,1.3,1.8,1.3s1.4-0.5,1.8-1.4c0.4-1,0.6-2.4,0.6-4.6s-0.2-3.6-0.6-4.6c-0.4-1-1-1.3-1.8-1.3
				s-1.4,0.5-1.8,1.3C170.2,4347.5,169.9,4349,169.9,4351.1z"/>
		</g>
	</g>
	<g>
		<path class="st7" d="M166,4402.4c0,3.4-0.7,5.9-2.2,7.6c-1.4,1.7-3.6,2.5-6.5,2.5c-1,0-1.8,0-2.3-0.1v-2.9c0.6,0.1,1.3,0.2,2,0.2
			c1.2,0,2.2-0.1,3-0.5c0.8-0.4,1.3-1,1.8-1.7s0.6-1.8,0.7-3.1h-0.1c-0.5,0.7-1,1.2-1.6,1.6c-0.6,0.4-1.3,0.5-2.3,0.5
			c-1.4,0-2.6-0.5-3.5-1.4c-0.8-1-1.3-2.3-1.3-4c0-1.8,0.5-3.2,1.6-4.3s2.5-1.6,4.2-1.6c1.3,0,2.4,0.2,3.4,0.8s1.7,1.4,2.2,2.6
			C165.7,4399.8,166,4400.8,166,4402.4z M159.8,4397.8c-0.7,0-1.3,0.2-1.8,0.7s-0.6,1.2-0.6,2.3c0,0.8,0.2,1.4,0.6,1.9
			c0.4,0.5,1,0.7,1.8,0.7c0.7,0,1.3-0.2,1.9-0.7c0.6-0.5,0.8-1.1,0.8-1.7c0-1-0.2-1.7-0.7-2.4
			C161.4,4397.9,160.6,4397.8,159.8,4397.8z"/>
	</g>
	<g>
		<path class="st8" d="M160.4,4615.5c1.7,0,3,0.5,4,1.4c1,0.9,1.4,2.2,1.4,3.8c0,1.9-0.6,3.4-1.8,4.4s-2.9,1.6-5,1.6
			c-1.9,0-3.5-0.4-4.6-1v-3c0.6,0.4,1.3,0.6,2.2,0.8c0.9,0.2,1.6,0.4,2.3,0.4c2.2,0,3.4-1,3.4-2.8c0-1.7-1.2-2.6-3.5-2.6
			c-0.4,0-0.8,0-1.3,0.1c-0.5,0.1-1,0.1-1.2,0.2l-1.4-0.7l0.6-8.8h9.2v3.1h-6.1l-0.4,3.4l0.4-0.1
			C159.1,4615.6,159.7,4615.5,160.4,4615.5z"/>
	</g>
	<g>
		<g>
			<path class="st6" d="M165.7,4883.8c0,3-0.5,5.2-1.4,6.6c-1,1.4-2.5,2.2-4.6,2.2c-1.9,0-3.5-0.7-4.4-2.3c-1-1.4-1.6-3.7-1.6-6.6
				c0-3,0.5-5.3,1.4-6.7c1-1.4,2.5-2.2,4.6-2.2c1.9,0,3.5,0.7,4.4,2.3C165.1,4878.8,165.7,4880.9,165.7,4883.8z M157.3,4883.8
				c0,2.2,0.2,3.6,0.6,4.6c0.4,1,1,1.3,1.8,1.3s1.4-0.5,1.8-1.4c0.4-1,0.6-2.4,0.6-4.6s-0.2-3.6-0.6-4.6s-1-1.3-1.8-1.3
				s-1.4,0.5-1.8,1.3C157.4,4880.2,157.3,4881.7,157.3,4883.8z"/>
		</g>
	</g>
	<rect x="129.4" y="4350.5" class="st9" width="10.1" height="2.3"/>
	<rect x="129.4" y="4403.8" class="st9" width="10.1" height="2.3"/>
	<rect x="129.4" y="4457.2" class="st9" width="10.1" height="2.3"/>
	<rect x="129.4" y="4510.6" class="st9" width="10.1" height="2.3"/>
	<rect x="129.4" y="4564" class="st9" width="10.1" height="2.3"/>
	<rect x="129.4" y="4617.4" class="st9" width="10.1" height="2.3"/>
	<rect x="129.4" y="4670.8" class="st9" width="10.1" height="2.3"/>
	<rect x="129.4" y="4724.2" class="st9" width="10.1" height="2.3"/>
	<rect x="129.4" y="4777.6" class="st9" width="10.1" height="2.3"/>
	<rect x="129.4" y="4831" class="st9" width="10.1" height="2.3"/>
	<rect x="129.4" y="4884.4" class="st9" width="10.1" height="2.3"/>
</g>
<g>
	<g>
		<g>
			<path class="st6" d="M161.6,4978.1H158v-9.9v-1.7v-1.8c-0.6,0.6-1,1-1.2,1.2l-1.9,1.6l-1.7-2l5.5-4.4h2.9V4978.1z"/>
			<path class="st6" d="M178.3,4969.6c0,3-0.5,5.2-1.4,6.6c-1,1.4-2.5,2.2-4.6,2.2c-1.9,0-3.5-0.7-4.4-2.3c-1-1.4-1.6-3.7-1.6-6.6
				c0-3,0.5-5.3,1.4-6.7c1.1-1.3,2.5-2,4.6-2c1.9,0,3.5,0.7,4.4,2.3C177.8,4964.5,178.3,4966.7,178.3,4969.6z M169.9,4969.6
				c0,2.2,0.2,3.6,0.6,4.6s1,1.3,1.8,1.3s1.4-0.5,1.8-1.4c0.4-1,0.6-2.4,0.6-4.6s-0.2-3.6-0.6-4.6c-0.4-1-1-1.3-1.8-1.3
				s-1.4,0.5-1.8,1.3C170.2,4966,169.9,4967.5,169.9,4969.6z"/>
		</g>
	</g>
	<g>
		<path class="st7" d="M166,5020.9c0,3.4-0.7,5.9-2.2,7.6c-1.4,1.7-3.6,2.5-6.5,2.5c-1,0-1.8,0-2.3-0.1v-2.9c0.6,0.1,1.3,0.2,2,0.2
			c1.2,0,2.2-0.1,3-0.5c0.8-0.4,1.3-1,1.8-1.7s0.6-1.8,0.7-3.1h-0.1c-0.5,0.7-1,1.2-1.6,1.6c-0.6,0.4-1.3,0.5-2.3,0.5
			c-1.4,0-2.6-0.5-3.5-1.4c-0.8-1-1.3-2.3-1.3-4c0-1.8,0.5-3.2,1.6-4.3s2.5-1.6,4.2-1.6c1.3,0,2.4,0.2,3.4,0.8s1.7,1.4,2.2,2.6
			C165.7,5018.3,166,5019.3,166,5020.9z M159.8,5016.3c-0.7,0-1.3,0.2-1.8,0.7s-0.6,1.2-0.6,2.3c0,0.8,0.2,1.4,0.6,1.9
			c0.4,0.5,1,0.7,1.8,0.7c0.7,0,1.3-0.2,1.9-0.7c0.6-0.5,0.8-1.1,0.8-1.7c0-1-0.2-1.7-0.7-2.4
			C161.4,5016.4,160.6,5016.3,159.8,5016.3z"/>
	</g>
	<g>
		<path class="st8" d="M160.4,5234c1.7,0,3,0.5,4,1.4c1,0.9,1.4,2.2,1.4,3.8c0,1.9-0.6,3.4-1.8,4.4s-2.9,1.6-5,1.6
			c-1.9,0-3.5-0.4-4.6-1v-3c0.6,0.4,1.3,0.6,2.2,0.8s1.6,0.4,2.3,0.4c2.2,0,3.4-1,3.4-2.8c0-1.7-1.2-2.6-3.5-2.6
			c-0.4,0-0.8,0-1.3,0.1c-0.5,0.1-1,0.1-1.2,0.2l-1.4-0.7l0.6-8.8h9.2v3.1h-6.1l-0.4,3.4l0.4-0.1
			C159.1,5234.1,159.7,5234,160.4,5234z"/>
	</g>
	<g>
		<g>
			<path class="st6" d="M165.7,5502.3c0,3-0.5,5.2-1.4,6.6c-1,1.4-2.5,2.2-4.6,2.2c-1.9,0-3.5-0.7-4.4-2.3c-1-1.4-1.6-3.7-1.6-6.6
				c0-3,0.5-5.3,1.4-6.7c1-1.4,2.5-2.2,4.6-2.2c1.9,0,3.5,0.7,4.4,2.3C165.1,5497.3,165.7,5499.4,165.7,5502.3z M157.3,5502.3
				c0,2.2,0.2,3.6,0.6,4.6c0.4,1,1,1.3,1.8,1.3s1.4-0.5,1.8-1.4c0.4-1,0.6-2.4,0.6-4.6s-0.2-3.6-0.6-4.6s-1-1.3-1.8-1.3
				s-1.4,0.5-1.8,1.3C157.4,5498.7,157.3,5500.2,157.3,5502.3z"/>
		</g>
	</g>
	<rect x="129.4" y="4969" class="st9" width="10.1" height="2.3"/>
	<rect x="129.4" y="5022.3" class="st9" width="10.1" height="2.3"/>
	<rect x="129.4" y="5075.7" class="st9" width="10.1" height="2.3"/>
	<rect x="129.4" y="5129.1" class="st9" width="10.1" height="2.3"/>
	<rect x="129.4" y="5182.5" class="st9" width="10.1" height="2.3"/>
	<rect x="129.4" y="5235.9" class="st9" width="10.1" height="2.3"/>
	<rect x="129.4" y="5289.3" class="st9" width="10.1" height="2.3"/>
	<rect x="129.4" y="5342.7" class="st9" width="10.1" height="2.3"/>
	<rect x="129.4" y="5396.1" class="st9" width="10.1" height="2.3"/>
	<rect x="129.4" y="5449.5" class="st9" width="10.1" height="2.3"/>
	<rect x="129.4" y="5502.9" class="st9" width="10.1" height="2.3"/>
</g>
<g>
	<g>
		<g>
			<path class="st6" d="M161.6,5596.7H158v-9.9v-1.7v-1.8c-0.6,0.6-1,1-1.2,1.2l-1.9,1.6l-1.7-2l5.5-4.4h2.9V5596.7z"/>
			<path class="st6" d="M178.3,5588.2c0,3-0.5,5.2-1.4,6.6c-1,1.4-2.5,2.2-4.6,2.2c-1.9,0-3.5-0.7-4.4-2.3c-1-1.4-1.6-3.7-1.6-6.6
				c0-3,0.5-5.3,1.4-6.7c1.1-1.3,2.5-2,4.6-2c1.9,0,3.5,0.7,4.4,2.3C177.8,5583.1,178.3,5585.2,178.3,5588.2z M169.9,5588.2
				c0,2.2,0.2,3.6,0.6,4.6s1,1.3,1.8,1.3s1.4-0.5,1.8-1.4c0.4-1,0.6-2.4,0.6-4.6s-0.2-3.6-0.6-4.6c-0.4-1-1-1.3-1.8-1.3
				s-1.4,0.5-1.8,1.3C170.2,5584.5,169.9,5586.1,169.9,5588.2z"/>
		</g>
	</g>
	<g>
		<path class="st7" d="M166,5639.4c0,3.4-0.7,5.9-2.2,7.6c-1.4,1.7-3.6,2.5-6.5,2.5c-1,0-1.8,0-2.3-0.1v-2.9c0.6,0.1,1.3,0.2,2,0.2
			c1.2,0,2.2-0.1,3-0.5c0.8-0.4,1.3-1,1.8-1.7s0.6-1.8,0.7-3.1h-0.1c-0.5,0.7-1,1.2-1.6,1.6c-0.6,0.4-1.3,0.5-2.3,0.5
			c-1.4,0-2.6-0.5-3.5-1.4c-0.8-1-1.3-2.3-1.3-4c0-1.8,0.5-3.2,1.6-4.3s2.5-1.6,4.2-1.6c1.3,0,2.4,0.2,3.4,0.8s1.7,1.4,2.2,2.6
			C165.7,5636.8,166,5637.8,166,5639.4z M159.8,5634.8c-0.7,0-1.3,0.2-1.8,0.7s-0.6,1.2-0.6,2.3c0,0.8,0.2,1.4,0.6,1.9
			c0.4,0.5,1,0.7,1.8,0.7c0.7,0,1.3-0.2,1.9-0.7c0.6-0.5,0.8-1.1,0.8-1.7c0-1-0.2-1.7-0.7-2.4
			C161.4,5634.9,160.6,5634.8,159.8,5634.8z"/>
	</g>
	<g>
		<path class="st8" d="M160.4,5852.5c1.7,0,3,0.5,4,1.4c1,0.9,1.4,2.2,1.4,3.8c0,1.9-0.6,3.4-1.8,4.4s-2.9,1.6-5,1.6
			c-1.9,0-3.5-0.4-4.6-1v-3c0.6,0.4,1.3,0.6,2.2,0.8c0.9,0.2,1.6,0.4,2.3,0.4c2.2,0,3.4-1,3.4-2.8c0-1.7-1.2-2.6-3.5-2.6
			c-0.4,0-0.8,0-1.3,0.1c-0.5,0.1-1,0.1-1.2,0.2l-1.4-0.7l0.6-8.8h9.2v3.1h-6.1l-0.4,3.4l0.4-0.1
			C159.1,5852.7,159.7,5852.5,160.4,5852.5z"/>
	</g>
	<g>
		<g>
			<path class="st6" d="M165.7,6120.8c0,3-0.5,5.2-1.4,6.6c-1,1.4-2.5,2.2-4.6,2.2c-1.9,0-3.5-0.7-4.4-2.3c-1-1.4-1.6-3.7-1.6-6.6
				c0-3,0.5-5.3,1.4-6.7c1-1.4,2.5-2.2,4.6-2.2c1.9,0,3.5,0.7,4.4,2.3C165.1,6115.8,165.7,6117.9,165.7,6120.8z M157.3,6120.8
				c0,2.2,0.2,3.6,0.6,4.6c0.4,1,1,1.3,1.8,1.3s1.4-0.5,1.8-1.4c0.4-1,0.6-2.4,0.6-4.6s-0.2-3.6-0.6-4.6s-1-1.3-1.8-1.3
				s-1.4,0.5-1.8,1.3C157.4,6117.2,157.3,6118.7,157.3,6120.8z"/>
		</g>
	</g>
	<rect x="129.4" y="5587.5" class="st9" width="10.1" height="2.3"/>
	<rect x="129.4" y="5640.8" class="st9" width="10.1" height="2.3"/>
	<rect x="129.4" y="5694.2" class="st9" width="10.1" height="2.3"/>
	<rect x="129.4" y="5747.6" class="st9" width="10.1" height="2.3"/>
	<rect x="129.4" y="5801" class="st9" width="10.1" height="2.3"/>
	<rect x="129.4" y="5854.4" class="st9" width="10.1" height="2.3"/>
	<rect x="129.4" y="5907.8" class="st9" width="10.1" height="2.3"/>
	<rect x="129.4" y="5961.2" class="st9" width="10.1" height="2.3"/>
	<rect x="129.4" y="6014.6" class="st9" width="10.1" height="2.3"/>
	<rect x="129.4" y="6068" class="st9" width="10.1" height="2.3"/>
	<rect x="129.4" y="6121.4" class="st9" width="10.1" height="2.3"/>
</g>
<g>
	<g>
		<g>
			<path class="st6" d="M161.6,6215.2H158v-9.9v-1.7v-1.8c-0.6,0.6-1,1-1.2,1.2l-1.9,1.6l-1.7-2l5.5-4.4h2.9V6215.2z"/>
			<path class="st6" d="M178.3,6206.7c0,3-0.5,5.2-1.4,6.6c-1,1.4-2.5,2.2-4.6,2.2c-1.9,0-3.5-0.7-4.4-2.3c-1-1.4-1.6-3.7-1.6-6.6
				c0-3,0.5-5.3,1.4-6.7c1.1-1.3,2.5-2,4.6-2c1.9,0,3.5,0.7,4.4,2.3C177.8,6201.6,178.3,6203.8,178.3,6206.7z M169.9,6206.7
				c0,2.2,0.2,3.6,0.6,4.6s1,1.3,1.8,1.3s1.4-0.5,1.8-1.4c0.4-1,0.6-2.4,0.6-4.6s-0.2-3.6-0.6-4.6c-0.4-1-1-1.3-1.8-1.3
				s-1.4,0.5-1.8,1.3C170.2,6203.1,169.9,6204.6,169.9,6206.7z"/>
		</g>
	</g>
	<g>
		<path class="st7" d="M166,6258c0,3.4-0.7,5.9-2.2,7.6c-1.4,1.7-3.6,2.5-6.5,2.5c-1,0-1.8,0-2.3-0.1v-2.9c0.6,0.1,1.3,0.2,2,0.2
			c1.2,0,2.2-0.1,3-0.5c0.8-0.4,1.3-1,1.8-1.7s0.6-1.8,0.7-3.1h-0.1c-0.5,0.7-1,1.2-1.6,1.6c-0.6,0.4-1.3,0.5-2.3,0.5
			c-1.4,0-2.6-0.5-3.5-1.4c-0.8-1-1.3-2.3-1.3-4c0-1.8,0.5-3.2,1.6-4.3s2.5-1.6,4.2-1.6c1.3,0,2.4,0.2,3.4,0.8s1.7,1.4,2.2,2.6
			C165.7,6255.4,166,6256.4,166,6258z M159.8,6253.4c-0.7,0-1.3,0.2-1.8,0.7s-0.6,1.2-0.6,2.3c0,0.8,0.2,1.4,0.6,1.9
			c0.4,0.5,1,0.7,1.8,0.7c0.7,0,1.3-0.2,1.9-0.7c0.6-0.5,0.8-1.1,0.8-1.7c0-1-0.2-1.7-0.7-2.4
			C161.4,6253.5,160.6,6253.4,159.8,6253.4z"/>
	</g>
	<g>
		<path class="st8" d="M160.4,6471.1c1.7,0,3,0.5,4,1.4c1,0.9,1.4,2.2,1.4,3.8c0,1.9-0.6,3.4-1.8,4.4s-2.9,1.6-5,1.6
			c-1.9,0-3.5-0.4-4.6-1v-3c0.6,0.4,1.3,0.6,2.2,0.8s1.6,0.4,2.3,0.4c2.2,0,3.4-1,3.4-2.8c0-1.7-1.2-2.6-3.5-2.6
			c-0.4,0-0.8,0-1.3,0.1c-0.5,0.1-1,0.1-1.2,0.2l-1.4-0.7l0.6-8.8h9.2v3.1h-6.1l-0.4,3.4l0.4-0.1
			C159.1,6471.2,159.7,6471.1,160.4,6471.1z"/>
	</g>
	<g>
		<g>
			<path class="st6" d="M165.7,6739.4c0,3-0.5,5.2-1.4,6.6c-1,1.4-2.5,2.2-4.6,2.2c-1.9,0-3.5-0.7-4.4-2.3c-1-1.4-1.6-3.7-1.6-6.6
				c0-3,0.5-5.3,1.4-6.7c1-1.4,2.5-2.2,4.6-2.2c1.9,0,3.5,0.7,4.4,2.3C165.1,6734.4,165.7,6736.5,165.7,6739.4z M157.3,6739.4
				c0,2.2,0.2,3.6,0.6,4.6c0.4,1,1,1.3,1.8,1.3s1.4-0.5,1.8-1.4c0.4-1,0.6-2.4,0.6-4.6s-0.2-3.6-0.6-4.6s-1-1.3-1.8-1.3
				s-1.4,0.5-1.8,1.3C157.4,6735.8,157.3,6737.3,157.3,6739.4z"/>
		</g>
	</g>
	<rect x="129.4" y="6206" class="st9" width="10.1" height="2.3"/>
	<rect x="129.4" y="6259.3" class="st9" width="10.1" height="2.3"/>
	<rect x="129.4" y="6312.7" class="st9" width="10.1" height="2.3"/>
	<rect x="129.4" y="6366.1" class="st9" width="10.1" height="2.3"/>
	<rect x="129.4" y="6419.5" class="st9" width="10.1" height="2.3"/>
	<rect x="129.4" y="6472.9" class="st9" width="10.1" height="2.3"/>
	<rect x="129.4" y="6526.3" class="st9" width="10.1" height="2.3"/>
	<rect x="129.4" y="6579.7" class="st9" width="10.1" height="2.3"/>
	<rect x="129.4" y="6633.1" class="st9" width="10.1" height="2.3"/>
	<rect x="129.4" y="6686.5" class="st9" width="10.1" height="2.3"/>
	<rect x="129.4" y="6739.9" class="st9" width="10.1" height="2.3"/>
</g>
</svg>
